<svg width="30" height="22" viewBox="0 0 30 22" fill="none" xmlns="http://www.w3.org/2000/svg">
<path fill-rule="evenodd" clip-rule="evenodd" d="M8.26303 0.754335C8.26303 0.599308 8.3887 0.473633 8.54373 0.473633H9.94724C10.1023 0.473633 10.2279 0.599307 10.2279 0.754335V21.1052C10.2279 21.2602 10.1023 21.3859 9.94724 21.3859H8.54373C8.3887 21.3859 8.26303 21.2602 8.26303 21.1052V0.754335ZM4.75426 6.08767C4.59923 6.08767 4.47356 6.21334 4.47356 6.36837V15.4912C4.47356 15.6462 4.59923 15.7719 4.75426 15.7719H6.15777C6.31279 15.7719 6.43847 15.6462 6.43847 15.4912V6.36837C6.43847 6.21334 6.31279 6.08767 6.15777 6.08767H4.75426ZM0.964784 8.89469C0.809757 8.89469 0.684082 9.02036 0.684082 9.17539V12.6842C0.684082 12.8392 0.809756 12.9649 0.964784 12.9649H2.36829C2.52332 12.9649 2.64899 12.8392 2.64899 12.6842V9.17539C2.64899 9.02036 2.52332 8.89469 2.36829 8.89469H0.964784ZM12.3332 8.89469C12.1782 8.89469 12.0525 9.02036 12.0525 9.17539V12.6842C12.0525 12.8392 12.1782 12.9649 12.3332 12.9649H13.7367C13.8917 12.9649 14.0174 12.8392 14.0174 12.6842V9.17539C14.0174 9.02036 13.8917 8.89469 13.7367 8.89469H12.3332ZM27.2104 9.17539C27.2104 9.02036 27.3361 8.89469 27.4911 8.89469H28.8946C29.0496 8.89469 29.1753 9.02036 29.1753 9.17539V12.6842C29.1753 12.8392 29.0496 12.9649 28.8946 12.9649H27.4911C27.3361 12.9649 27.2104 12.8392 27.2104 12.6842V9.17539ZM15.842 6.36837C15.842 6.21334 15.9677 6.08767 16.1227 6.08767H17.5262C17.6812 6.08767 17.8069 6.21334 17.8069 6.36837V15.4912C17.8069 15.6462 17.6812 15.7719 17.5262 15.7719H16.1227C15.9677 15.7719 15.842 15.6462 15.842 15.4912V6.36837ZM23.7016 6.08767C23.5466 6.08767 23.4209 6.21334 23.4209 6.36837V15.4912C23.4209 15.6462 23.5466 15.7719 23.7016 15.7719H25.1051C25.2602 15.7719 25.3858 15.6462 25.3858 15.4912V6.36837C25.3858 6.21334 25.2602 6.08767 25.1051 6.08767H23.7016ZM19.9122 0.473633C19.7571 0.473633 19.6315 0.599308 19.6315 0.754335V21.1052C19.6315 21.2602 19.7571 21.3859 19.9122 21.3859H21.3157C21.4707 21.3859 21.5964 21.2602 21.5964 21.1052V0.754335C21.5964 0.599307 21.4707 0.473633 21.3157 0.473633H19.9122Z" fill="#01796F"/>
</svg>
