<svg width="325" height="47" viewBox="0 0 325 47" fill="none" xmlns="http://www.w3.org/2000/svg">
<path d="M3.92617 17.3214H1.84761C0.827204 17.3214 0 18.1486 0 19.169V27.0214C0 28.0418 0.827204 28.869 1.84761 28.869H3.92617C4.94658 28.869 5.77379 28.0418 5.77379 27.0214V19.169C5.77379 18.1486 4.94658 17.3214 3.92617 17.3214Z" fill="#01796F"/>
<path d="M14.8324 11.5476H12.7539C11.7335 11.5476 10.9062 12.3748 10.9062 13.3952V32.7951C10.9062 33.8155 11.7335 34.6428 12.7539 34.6428H14.8324C15.8528 34.6428 16.68 33.8155 16.68 32.7951V13.3952C16.68 12.3748 15.8528 11.5476 14.8324 11.5476Z" fill="#01796F"/>
<path d="M25.7382 0H23.6596C22.6392 0 21.812 0.827204 21.812 1.84761V44.3427C21.812 45.3631 22.6392 46.1903 23.6596 46.1903H25.7382C26.7586 46.1903 27.5858 45.3631 27.5858 44.3427V1.84761C27.5858 0.827204 26.7586 0 25.7382 0Z" fill="#01796F"/>
<path d="M36.6444 17.3214H34.5659C33.5455 17.3214 32.7183 18.1486 32.7183 19.169V27.0214C32.7183 28.0418 33.5455 28.869 34.5659 28.869H36.6444C37.6648 28.869 38.492 28.0418 38.492 27.0214V19.169C38.492 18.1486 37.6648 17.3214 36.6444 17.3214Z" fill="#01796F"/>
<path d="M80.2685 17.3214H78.1899C77.1695 17.3214 76.3423 18.1486 76.3423 19.169V27.0214C76.3423 28.0418 77.1695 28.869 78.1899 28.869H80.2685C81.2889 28.869 82.1161 28.0418 82.1161 27.0214V19.169C82.1161 18.1486 81.2889 17.3214 80.2685 17.3214Z" fill="#01796F"/>
<path d="M47.5507 11.5476H45.4721C44.4517 11.5476 43.6245 12.3748 43.6245 13.3952V32.7951C43.6245 33.8155 44.4517 34.6428 45.4721 34.6428H47.5507C48.5711 34.6428 49.3983 33.8155 49.3983 32.7951V13.3952C49.3983 12.3748 48.5711 11.5476 47.5507 11.5476Z" fill="#01796F"/>
<path d="M69.2852 10.5853H67.3606C66.2977 10.5853 65.436 11.447 65.436 12.5099V33.6805C65.436 34.7434 66.2977 35.6051 67.3606 35.6051H69.2852C70.3481 35.6051 71.2098 34.7434 71.2098 33.6805V12.5099C71.2098 11.447 70.3481 10.5853 69.2852 10.5853Z" fill="#01796F"/>
<path d="M58.456 0H56.3774C55.357 0 54.5298 0.827204 54.5298 1.84761V44.3427C54.5298 45.3631 55.357 46.1903 56.3774 46.1903H58.456C59.4764 46.1903 60.3036 45.3631 60.3036 44.3427V1.84761C60.3036 0.827204 59.4764 0 58.456 0Z" fill="#01796F"/>
<path d="M105.949 30.2284C104.975 30.2284 104.046 30.0761 103.162 29.7716C102.279 29.467 101.51 29.0406 100.855 28.4924C100.201 27.9442 99.7208 27.3122 99.4163 26.5964C99.264 26.2766 99.264 25.9797 99.4163 25.7056C99.5838 25.4314 99.8579 25.2563 100.239 25.1802C100.513 25.1193 100.779 25.1649 101.038 25.3172C101.312 25.4543 101.518 25.6675 101.655 25.9568C101.838 26.3375 102.135 26.6878 102.546 27.0076C102.972 27.3274 103.482 27.5863 104.076 27.7843C104.67 27.9822 105.294 28.0812 105.949 28.0812C106.68 28.0812 107.35 27.967 107.959 27.7386C108.584 27.5101 109.086 27.1827 109.467 26.7563C109.848 26.3147 110.038 25.7741 110.038 25.1345C110.038 24.3274 109.718 23.604 109.079 22.9644C108.454 22.3248 107.419 21.9289 105.972 21.7766C104.084 21.5939 102.599 21.038 101.518 20.1091C100.437 19.1801 99.8959 18.0304 99.8959 16.6598C99.8959 15.6547 100.178 14.8019 100.741 14.1014C101.305 13.4009 102.066 12.8679 103.025 12.5024C104 12.137 105.081 11.9542 106.269 11.9542C107.655 11.9542 108.789 12.2359 109.673 12.7994C110.556 13.3629 111.287 14.109 111.866 15.038C112.079 15.373 112.163 15.6928 112.117 15.9974C112.086 16.2867 111.942 16.5152 111.683 16.6827C111.393 16.8654 111.081 16.9035 110.746 16.7969C110.411 16.6903 110.16 16.4923 109.992 16.203C109.612 15.5481 109.117 15.038 108.508 14.6725C107.914 14.307 107.145 14.1167 106.201 14.1014C105.074 14.0862 104.129 14.2994 103.368 14.741C102.607 15.1674 102.226 15.8299 102.226 16.7284C102.226 17.1852 102.34 17.6268 102.569 18.0532C102.812 18.4644 103.246 18.8223 103.871 19.1268C104.51 19.4314 105.424 19.6446 106.612 19.7664C108.424 19.9492 109.833 20.505 110.838 21.434C111.858 22.3477 112.368 23.5583 112.368 25.066C112.368 25.934 112.185 26.6878 111.82 27.3274C111.47 27.967 110.99 28.5076 110.381 28.9492C109.787 29.3756 109.102 29.6954 108.325 29.9086C107.564 30.1218 106.772 30.2284 105.949 30.2284ZM118.021 35.4823C117.869 35.4823 117.686 35.4366 117.473 35.3452C116.803 35.0406 116.62 34.5609 116.925 33.9061L119.209 28.7665L114.069 19.0126C113.917 18.7233 113.894 18.4492 114.001 18.1903C114.123 17.9162 114.328 17.7182 114.618 17.5964C114.907 17.4745 115.181 17.4669 115.44 17.5735C115.699 17.6649 115.897 17.8553 116.034 18.1446L120.214 26.4594L123.892 18.1674C124.196 17.5278 124.676 17.3451 125.331 17.6192C126.016 17.9086 126.206 18.3883 125.902 19.0583L118.912 34.7741C118.729 35.2462 118.432 35.4823 118.021 35.4823ZM129.261 30.0228C128.926 30.0228 128.644 29.9162 128.416 29.703C128.203 29.4746 128.096 29.1929 128.096 28.8579V18.6928C128.096 18.3426 128.203 18.0608 128.416 17.8476C128.644 17.6344 128.926 17.5278 129.261 17.5278C129.611 17.5278 129.893 17.6344 130.106 17.8476C130.32 18.0608 130.426 18.3273 130.426 18.6471C130.822 18.2512 131.294 17.9466 131.842 17.7334C132.391 17.505 132.985 17.3908 133.624 17.3908C135.223 17.3908 136.426 17.9923 137.233 19.1954C137.675 18.6319 138.238 18.1903 138.924 17.8705C139.609 17.5507 140.378 17.3908 141.231 17.3908C142.54 17.3908 143.606 17.8172 144.429 18.67C145.251 19.5228 145.662 20.7411 145.662 22.3248V28.8579C145.662 29.1929 145.556 29.4746 145.343 29.703C145.129 29.9162 144.848 30.0228 144.497 30.0228C144.162 30.0228 143.881 29.9162 143.652 29.703C143.439 29.4746 143.332 29.1929 143.332 28.8579V22.3248C143.332 21.3654 143.096 20.6573 142.624 20.2005C142.152 19.7284 141.535 19.4923 140.774 19.4923C139.982 19.4923 139.327 19.7664 138.809 20.3147C138.307 20.8629 138.056 21.5634 138.056 22.4162V28.8579C138.056 29.1929 137.949 29.4746 137.736 29.703C137.523 29.9162 137.241 30.0228 136.891 30.0228C136.556 30.0228 136.274 29.9162 136.046 29.703C135.832 29.4746 135.726 29.1929 135.726 28.8579V22.3248C135.726 21.3654 135.49 20.6573 135.018 20.2005C134.546 19.7284 133.929 19.4923 133.167 19.4923C132.375 19.4923 131.721 19.7664 131.203 20.3147C130.685 20.8629 130.426 21.5634 130.426 22.4162V28.8579C130.426 29.1929 130.32 29.4746 130.106 29.703C129.893 29.9162 129.611 30.0228 129.261 30.0228ZM150.699 35.3452C150.364 35.3452 150.082 35.231 149.853 35.0026C149.64 34.7894 149.534 34.5153 149.534 34.1802V23.7639C149.549 22.5609 149.831 21.4796 150.379 20.5203C150.927 19.5609 151.673 18.807 152.617 18.2588C153.562 17.6954 154.628 17.4136 155.815 17.4136C157.018 17.4136 158.092 17.6954 159.036 18.2588C159.98 18.807 160.727 19.5609 161.275 20.5203C161.838 21.4796 162.12 22.5609 162.12 23.7639C162.12 24.967 161.861 26.0482 161.343 27.0076C160.841 27.9518 160.148 28.7056 159.265 29.269C158.381 29.8173 157.384 30.0914 156.272 30.0914C155.374 30.0914 154.544 29.9086 153.782 29.5431C153.036 29.1624 152.397 28.6523 151.864 28.0127V34.1802C151.864 34.5153 151.757 34.7894 151.544 35.0026C151.331 35.231 151.049 35.3452 150.699 35.3452ZM155.815 28.0355C156.592 28.0355 157.285 27.8528 157.894 27.4873C158.503 27.1066 158.983 26.5964 159.333 25.9568C159.699 25.302 159.881 24.571 159.881 23.7639C159.881 22.9416 159.699 22.2106 159.333 21.571C158.983 20.9162 158.503 20.406 157.894 20.0406C157.285 19.6598 156.592 19.4695 155.815 19.4695C155.054 19.4695 154.361 19.6598 153.737 20.0406C153.128 20.406 152.648 20.9162 152.298 21.571C151.947 22.2106 151.772 22.9416 151.772 23.7639C151.772 24.571 151.947 25.302 152.298 25.9568C152.648 26.5964 153.128 27.1066 153.737 27.4873C154.361 27.8528 155.054 28.0355 155.815 28.0355ZM166.76 30.0228C166.425 30.0228 166.143 29.9162 165.915 29.703C165.702 29.4746 165.595 29.1929 165.595 28.8579V18.67C165.595 18.3197 165.702 18.038 165.915 17.8248C166.143 17.6116 166.425 17.505 166.76 17.505C167.11 17.505 167.392 17.6116 167.605 17.8248C167.818 18.038 167.925 18.3197 167.925 18.67V18.9213C168.397 18.4492 168.968 18.0761 169.638 17.802C170.308 17.5278 171.032 17.3908 171.808 17.3908C172.859 17.3908 173.796 17.6192 174.618 18.0761C175.455 18.5177 176.11 19.1725 176.582 20.0406C177.07 20.9086 177.313 21.9746 177.313 23.2385V28.8579C177.313 29.1929 177.199 29.4746 176.971 29.703C176.757 29.9162 176.483 30.0228 176.148 30.0228C175.813 30.0228 175.532 29.9162 175.303 29.703C175.09 29.4746 174.983 29.1929 174.983 28.8579V23.2385C174.983 21.9441 174.633 20.9999 173.933 20.406C173.247 19.7969 172.387 19.4923 171.351 19.4923C170.712 19.4923 170.133 19.6218 169.615 19.8807C169.098 20.1395 168.686 20.4898 168.382 20.9314C168.077 21.3578 167.925 21.8527 167.925 22.4162V28.8579C167.925 29.1929 167.818 29.4746 167.605 29.703C167.392 29.9162 167.11 30.0228 166.76 30.0228ZM166.76 25.4543C166.425 25.4543 166.143 25.3477 165.915 25.1345C165.702 24.9061 165.595 24.6243 165.595 24.2893V13.3248C165.595 12.9745 165.702 12.6928 165.915 12.4796C166.143 12.2664 166.425 12.1598 166.76 12.1598C167.11 12.1598 167.392 12.2664 167.605 12.4796C167.818 12.6928 167.925 12.9745 167.925 13.3248V24.2893C167.925 24.6243 167.818 24.9061 167.605 25.1345C167.392 25.3477 167.11 25.4543 166.76 25.4543ZM186.853 30.0914C185.619 30.0914 184.53 29.8249 183.586 29.2919C182.642 28.7436 181.896 27.9975 181.348 27.0533C180.815 26.0939 180.548 24.9974 180.548 23.7639C180.548 22.5152 180.815 21.4187 181.348 20.4746C181.896 19.5152 182.642 18.769 183.586 18.236C184.53 17.6877 185.619 17.4136 186.853 17.4136C188.071 17.4136 189.152 17.6877 190.097 18.236C191.041 18.769 191.779 19.5152 192.312 20.4746C192.86 21.4187 193.135 22.5152 193.135 23.7639C193.135 24.9974 192.868 26.0939 192.335 27.0533C191.802 27.9975 191.064 28.7436 190.119 29.2919C189.175 29.8249 188.086 30.0914 186.853 30.0914ZM186.853 28.0355C187.645 28.0355 188.345 27.8528 188.954 27.4873C189.564 27.1218 190.036 26.6193 190.371 25.9797C190.721 25.3401 190.896 24.6015 190.896 23.7639C190.896 22.9264 190.721 22.1878 190.371 21.5482C190.036 20.8933 189.564 20.3832 188.954 20.0177C188.345 19.6522 187.645 19.4695 186.853 19.4695C186.061 19.4695 185.36 19.6522 184.751 20.0177C184.142 20.3832 183.662 20.8933 183.312 21.5482C182.962 22.1878 182.787 22.9264 182.787 23.7639C182.787 24.6015 182.962 25.3401 183.312 25.9797C183.662 26.6193 184.142 27.1218 184.751 27.4873C185.36 27.8528 186.061 28.0355 186.853 28.0355ZM197.767 30.0228C197.432 30.0228 197.15 29.9162 196.922 29.703C196.709 29.4746 196.602 29.1929 196.602 28.8579V18.67C196.602 18.3197 196.709 18.038 196.922 17.8248C197.15 17.6116 197.432 17.505 197.767 17.505C198.117 17.505 198.399 17.6116 198.612 17.8248C198.826 18.038 198.932 18.3197 198.932 18.67V18.9213C199.404 18.4492 199.975 18.0761 200.645 17.802C201.315 17.5278 202.039 17.3908 202.815 17.3908C203.866 17.3908 204.803 17.6192 205.625 18.0761C206.463 18.5177 207.118 19.1725 207.59 20.0406C208.077 20.9086 208.321 21.9746 208.321 23.2385V28.8579C208.321 29.1929 208.206 29.4746 207.978 29.703C207.765 29.9162 207.491 30.0228 207.156 30.0228C206.821 30.0228 206.539 29.9162 206.31 29.703C206.097 29.4746 205.991 29.1929 205.991 28.8579V23.2385C205.991 21.9441 205.64 20.9999 204.94 20.406C204.255 19.7969 203.394 19.4923 202.359 19.4923C201.719 19.4923 201.14 19.6218 200.623 19.8807C200.105 20.1395 199.694 20.4898 199.389 20.9314C199.084 21.3578 198.932 21.8527 198.932 22.4162V28.8579C198.932 29.1929 198.826 29.4746 198.612 29.703C198.399 29.9162 198.117 30.0228 197.767 30.0228ZM214.411 35.4823C214.259 35.4823 214.076 35.4366 213.863 35.3452C213.193 35.0406 213.01 34.5609 213.315 33.9061L215.599 28.7665L210.46 19.0126C210.307 18.7233 210.284 18.4492 210.391 18.1903C210.513 17.9162 210.718 17.7182 211.008 17.5964C211.297 17.4745 211.571 17.4669 211.83 17.5735C212.089 17.6649 212.287 17.8553 212.424 18.1446L216.604 26.4594L220.282 18.1674C220.587 17.5278 221.066 17.3451 221.721 17.6192C222.406 17.9086 222.597 18.3883 222.292 19.0583L215.302 34.7741C215.12 35.2462 214.823 35.4823 214.411 35.4823ZM231.156 30C230.821 30 230.539 29.8858 230.311 29.6574C230.082 29.4289 229.968 29.1472 229.968 28.8122V13.3476C229.968 12.9974 230.082 12.7156 230.311 12.5024C230.539 12.274 230.821 12.1598 231.156 12.1598H241.481C241.831 12.1598 242.113 12.2664 242.326 12.4796C242.539 12.6776 242.646 12.9441 242.646 13.2791C242.646 13.5989 242.539 13.8578 242.326 14.0557C242.113 14.2537 241.831 14.3527 241.481 14.3527H232.344V19.9035H238.9C239.25 19.9035 239.532 20.0101 239.745 20.2233C239.958 20.4213 240.065 20.6802 240.065 20.9999C240.065 21.3197 239.958 21.5862 239.745 21.7994C239.532 21.9974 239.25 22.0964 238.9 22.0964H232.344V28.8122C232.344 29.1472 232.229 29.4289 232.001 29.6574C231.773 29.8858 231.491 30 231.156 30ZM246.849 30C246.514 30 246.232 29.8934 246.004 29.6802C245.79 29.4518 245.684 29.17 245.684 28.835V18.67C245.684 18.3197 245.79 18.038 246.004 17.8248C246.232 17.6116 246.514 17.505 246.849 17.505C247.199 17.505 247.481 17.6116 247.694 17.8248C247.907 18.038 248.014 18.3197 248.014 18.67V28.835C248.014 29.17 247.907 29.4518 247.694 29.6802C247.481 29.8934 247.199 30 246.849 30ZM246.849 15.472C246.438 15.472 246.08 15.3273 245.775 15.038C245.486 14.7334 245.341 14.3755 245.341 13.9644C245.341 13.5532 245.486 13.203 245.775 12.9136C246.08 12.609 246.438 12.4568 246.849 12.4568C247.26 12.4568 247.61 12.609 247.9 12.9136C248.204 13.203 248.356 13.5532 248.356 13.9644C248.356 14.3755 248.204 14.7334 247.9 15.038C247.61 15.3273 247.26 15.472 246.849 15.472ZM253.513 30.0228C253.178 30.0228 252.897 29.9162 252.668 29.703C252.455 29.4746 252.348 29.1929 252.348 28.8579V18.67C252.348 18.3197 252.455 18.038 252.668 17.8248C252.897 17.6116 253.178 17.505 253.513 17.505C253.864 17.505 254.145 17.6116 254.359 17.8248C254.572 18.038 254.678 18.3197 254.678 18.67V18.9213C255.15 18.4492 255.722 18.0761 256.392 17.802C257.062 17.5278 257.785 17.3908 258.562 17.3908C259.612 17.3908 260.549 17.6192 261.371 18.0761C262.209 18.5177 262.864 19.1725 263.336 20.0406C263.823 20.9086 264.067 21.9746 264.067 23.2385V28.8579C264.067 29.1929 263.953 29.4746 263.724 29.703C263.511 29.9162 263.237 30.0228 262.902 30.0228C262.567 30.0228 262.285 29.9162 262.057 29.703C261.843 29.4746 261.737 29.1929 261.737 28.8579V23.2385C261.737 21.9441 261.387 20.9999 260.686 20.406C260.001 19.7969 259.14 19.4923 258.105 19.4923C257.465 19.4923 256.887 19.6218 256.369 19.8807C255.851 20.1395 255.44 20.4898 255.135 20.9314C254.831 21.3578 254.678 21.8527 254.678 22.4162V28.8579C254.678 29.1929 254.572 29.4746 254.359 29.703C254.145 29.9162 253.864 30.0228 253.513 30.0228ZM273.127 30.0914C272.015 30.0914 271.018 29.8173 270.135 29.269C269.251 28.7056 268.551 27.9518 268.033 27.0076C267.531 26.0482 267.279 24.967 267.279 23.7639C267.279 22.5609 267.553 21.4796 268.102 20.5203C268.665 19.5609 269.419 18.807 270.363 18.2588C271.323 17.6954 272.396 17.4136 273.584 17.4136C274.772 17.4136 275.838 17.6954 276.782 18.2588C277.726 18.807 278.472 19.5609 279.021 20.5203C279.584 21.4796 279.866 22.5609 279.866 23.7639V28.8579C279.866 29.1929 279.752 29.4746 279.523 29.703C279.31 29.9162 279.036 30.0228 278.701 30.0228C278.366 30.0228 278.084 29.9162 277.856 29.703C277.642 29.4746 277.536 29.1929 277.536 28.8579V28.0127C277.003 28.6523 276.356 29.1624 275.594 29.5431C274.848 29.9086 274.026 30.0914 273.127 30.0914ZM273.584 28.0355C274.361 28.0355 275.054 27.8528 275.663 27.4873C276.272 27.1066 276.751 26.5964 277.102 25.9568C277.452 25.302 277.627 24.571 277.627 23.7639C277.627 22.9416 277.452 22.2106 277.102 21.571C276.751 20.9162 276.272 20.406 275.663 20.0406C275.054 19.6598 274.361 19.4695 273.584 19.4695C272.823 19.4695 272.13 19.6598 271.505 20.0406C270.896 20.406 270.409 20.9162 270.043 21.571C269.693 22.2106 269.518 22.9416 269.518 23.7639C269.518 24.571 269.693 25.302 270.043 25.9568C270.409 26.5964 270.896 27.1066 271.505 27.4873C272.13 27.8528 272.823 28.0355 273.584 28.0355ZM284.498 30.0228C284.163 30.0228 283.882 29.9162 283.653 29.703C283.44 29.4746 283.333 29.1929 283.333 28.8579V18.67C283.333 18.3197 283.44 18.038 283.653 17.8248C283.882 17.6116 284.163 17.505 284.498 17.505C284.849 17.505 285.13 17.6116 285.344 17.8248C285.557 18.038 285.663 18.3197 285.663 18.67V18.9213C286.135 18.4492 286.706 18.0761 287.377 17.802C288.047 17.5278 288.77 17.3908 289.547 17.3908C290.597 17.3908 291.534 17.6192 292.356 18.0761C293.194 18.5177 293.849 19.1725 294.321 20.0406C294.808 20.9086 295.052 21.9746 295.052 23.2385V28.8579C295.052 29.1929 294.938 29.4746 294.709 29.703C294.496 29.9162 294.222 30.0228 293.887 30.0228C293.552 30.0228 293.27 29.9162 293.042 29.703C292.828 29.4746 292.722 29.1929 292.722 28.8579V23.2385C292.722 21.9441 292.371 20.9999 291.671 20.406C290.986 19.7969 290.125 19.4923 289.09 19.4923C288.45 19.4923 287.871 19.6218 287.354 19.8807C286.836 20.1395 286.425 20.4898 286.12 20.9314C285.816 21.3578 285.663 21.8527 285.663 22.4162V28.8579C285.663 29.1929 285.557 29.4746 285.344 29.703C285.13 29.9162 284.849 30.0228 284.498 30.0228ZM304.569 30.0914C303.351 30.0914 302.262 29.8173 301.302 29.269C300.358 28.7056 299.612 27.9518 299.064 27.0076C298.531 26.0482 298.264 24.967 298.264 23.7639C298.264 22.5304 298.531 21.434 299.064 20.4746C299.597 19.5152 300.328 18.769 301.257 18.236C302.186 17.6877 303.252 17.4136 304.455 17.4136C306.252 17.4136 307.744 18.0989 308.932 19.4695C309.145 19.7131 309.221 19.9644 309.16 20.2233C309.099 20.4822 308.932 20.7106 308.658 20.9086C308.445 21.0609 308.209 21.1142 307.95 21.0685C307.691 21.0076 307.455 20.8705 307.242 20.6573C306.495 19.8654 305.566 19.4695 304.455 19.4695C303.282 19.4695 302.33 19.8654 301.599 20.6573C300.868 21.434 300.503 22.4695 300.503 23.7639C300.503 24.5863 300.67 25.3172 301.005 25.9568C301.356 26.5964 301.835 27.1066 302.445 27.4873C303.054 27.8528 303.762 28.0355 304.569 28.0355C305.604 28.0355 306.442 27.769 307.082 27.236C307.325 27.0381 307.577 26.9315 307.835 26.9162C308.094 26.8858 308.323 26.9543 308.521 27.1218C308.78 27.335 308.924 27.5787 308.955 27.8528C308.985 28.1117 308.894 28.3477 308.681 28.5609C307.584 29.5812 306.214 30.0914 304.569 30.0914ZM318.494 30.0914C317.23 30.0914 316.103 29.8249 315.113 29.2919C314.138 28.7436 313.369 27.9975 312.806 27.0533C312.257 26.0939 311.983 24.9974 311.983 23.7639C311.983 22.5152 312.242 21.4187 312.76 20.4746C313.293 19.5152 314.024 18.769 314.953 18.236C315.882 17.6877 316.948 17.4136 318.151 17.4136C319.339 17.4136 320.359 17.6801 321.212 18.2131C322.065 18.7309 322.712 19.4543 323.153 20.3832C323.61 21.2969 323.839 22.3553 323.839 23.5583C323.839 23.8477 323.74 24.0913 323.542 24.2893C323.344 24.4721 323.093 24.5634 322.788 24.5634H314.108C314.275 25.6142 314.755 26.4746 315.547 27.1447C316.354 27.7995 317.336 28.1269 318.494 28.1269C318.966 28.1269 319.445 28.0431 319.933 27.8756C320.435 27.6929 320.839 27.4873 321.143 27.2589C321.372 27.0914 321.615 27.0076 321.874 27.0076C322.148 26.9924 322.384 27.0685 322.582 27.236C322.841 27.4645 322.978 27.7157 322.994 27.9898C323.009 28.2639 322.887 28.5 322.628 28.698C322.11 29.1091 321.463 29.4442 320.686 29.703C319.925 29.9619 319.194 30.0914 318.494 30.0914ZM318.151 19.3781C317.024 19.3781 316.118 19.6903 315.433 20.3147C314.747 20.939 314.313 21.7461 314.131 22.736H321.737C321.6 21.7614 321.227 20.9619 320.618 20.3375C320.009 19.6979 319.186 19.3781 318.151 19.3781Z" fill="#01796F"/>
</svg>
