<svg xmlns="http://www.w3.org/2000/svg" focusable="false" viewBox="0 0 12 13" aria-hidden="true" fill="#3B3B3B" style="font-size: 1.1rem;line-height: 1;transform: rotate(180deg);"><path d="M5.99984 1.83366C3.42251 1.83366 1.33317 3.923 1.33317 6.50033C1.33317 9.07765 3.42251 11.167 5.99984 11.167C8.57717 11.167 10.6665 9.07765 10.6665 6.50033C10.6665 3.923 8.57717 1.83366 5.99984 1.83366ZM0.166504 6.50033C0.166504 3.27866 2.77818 0.666992 5.99984 0.666992C9.2215 0.666992 11.8332 3.27866 11.8332 6.50033C11.8332 9.72199 9.2215 12.3337 5.99984 12.3337C2.77818 12.3337 0.166504 9.72199 0.166504 6.50033Z" fill-opacity="0.65"></path><path d="M5.99984 7.66699C5.67767 7.66699 5.4165 7.40582 5.4165 7.08366L5.4165 3.58366C5.4165 3.26149 5.67767 3.00033 5.99984 3.00033C6.322 3.00033 6.58317 3.26149 6.58317 3.58366L6.58317 7.08366C6.58317 7.40582 6.322 7.66699 5.99984 7.66699Z" fill-opacity="0.65"></path><path d="M5.12484 9.12533C5.12484 8.64208 5.51659 8.25033 5.99984 8.25033C6.48309 8.25033 6.87484 8.64208 6.87484 9.12533C6.87484 9.60857 6.48309 10.0003 5.99984 10.0003C5.51659 10.0003 5.12484 9.60857 5.12484 9.12533Z" fill-opacity="0.65"></path></svg>