<svg width="13" height="14" viewBox="0 0 13 14" fill="none" xmlns="http://www.w3.org/2000/svg">
<path d="M7.75024 13.2502H1.50024C1.16529 13.2619 0.840538 13.1339 0.603547 12.8969C0.366557 12.6599 0.238602 12.3352 0.250242 12.0002V5.75024C0.238602 5.41529 0.366557 5.09054 0.603547 4.85355C0.840538 4.61656 1.16529 4.4886 1.50024 4.50024H4.00024V2.00024C3.9886 1.66529 4.11656 1.34054 4.35355 1.10355C4.59054 0.866557 4.91529 0.738602 5.25024 0.750242H11.5002C11.8352 0.738602 12.1599 0.866557 12.3969 1.10355C12.6339 1.34054 12.7619 1.66529 12.7502 2.00024V8.25024C12.7617 8.58514 12.6337 8.90978 12.3967 9.14673C12.1598 9.38368 11.8351 9.51169 11.5002 9.50024H9.00024V12.0002C9.01169 12.3351 8.88368 12.6598 8.64673 12.8967C8.40978 13.1337 8.08514 13.2617 7.75024 13.2502ZM1.50024 5.75024V12.0002H7.75024V9.50024H5.25024C4.91534 9.51169 4.5907 9.38368 4.35375 9.14673C4.1168 8.90978 3.98879 8.58514 4.00024 8.25024V5.75024H1.50024ZM5.25024 2.00024V8.25024H11.5002V2.00024H5.25024Z" fill="#3B3B3B" fill-opacity="0.45"/>
</svg>
