<svg width="13" height="14" viewBox="0 0 13 14" fill="none" xmlns="http://www.w3.org/2000/svg">
<path d="M7.75 13.2502H1.5C1.16504 13.2619 0.840294 13.1339 0.603303 12.8969C0.366312 12.6599 0.238358 12.3352 0.249998 12.0002V5.75024C0.238358 5.41529 0.366312 5.09054 0.603303 4.85355C0.840294 4.61656 1.16504 4.4886 1.5 4.50024H4V2.00024C3.98836 1.66529 4.11631 1.34054 4.3533 1.10355C4.59029 0.866557 4.91504 0.738602 5.25 0.750242H11.5C11.835 0.738602 12.1597 0.866557 12.3967 1.10355C12.6337 1.34054 12.7616 1.66529 12.75 2.00024V8.25024C12.7615 8.58514 12.6334 8.90978 12.3965 9.14673C12.1595 9.38368 11.8349 9.51169 11.5 9.50024H9V12.0002C9.01145 12.3351 8.88344 12.6598 8.64649 12.8967C8.40954 13.1337 8.0849 13.2617 7.75 13.2502ZM1.5 5.75024V12.0002H7.75V9.50024H5.25C4.9151 9.51169 4.59046 9.38368 4.35351 9.14673C4.11656 8.90978 3.98855 8.58514 4 8.25024V5.75024H1.5ZM5.25 2.00024V8.25024H11.5V2.00024H5.25Z" fill="#ECF3EC" fill-opacity="0.45"/>
</svg>
