<svg width="21" height="20" viewBox="0 0 21 20" fill="none" xmlns="http://www.w3.org/2000/svg">
<path d="M9.99946 20C4.7639 20 0.470579 15.984 0.020752 10.8689C0.0473689 10.3739 0.449285 9.98004 0.949684 9.98004C1.23715 9.98004 1.49533 10.1078 1.66568 10.31C1.671 10.318 1.67899 10.3127 1.67899 10.2914C2.78626 11.4677 4.354 12.2049 6.10007 12.2049C9.48309 12.2049 12.2246 9.46374 12.2246 6.08117C12.2246 4.32202 11.4794 2.75183 10.2922 1.64205C10.2949 1.63939 10.3056 1.63939 10.3002 1.63407C10.1139 1.46108 9.9968 1.21623 9.9968 0.939454C9.9968 0.433799 10.3934 0.0319361 10.8938 0C16.0069 0.45509 20.0208 4.74518 20.0208 9.98004C20.0208 15.5156 15.5358 20 9.99946 20Z" fill="#ECF3EC" fill-opacity="0.65"/>
</svg>
