<svg width="21" height="20" viewBox="0 0 21 20" fill="none" xmlns="http://www.w3.org/2000/svg">
<path fill-rule="evenodd" clip-rule="evenodd" d="M10.5049 20C16.0277 20 20.5049 15.5228 20.5049 10C20.5049 4.47715 16.0277 0 10.5049 0C4.98204 0 0.504883 4.47715 0.504883 10C0.504883 15.5228 4.98204 20 10.5049 20ZM12.4406 5.84085H12.4588L12.4618 5.83333L12.4406 5.84085ZM12.4302 5.84452L12.4339 5.84085H12.4406L12.4302 5.84452ZM12.4244 5.85029C12.4213 5.85015 12.4182 5.85001 12.4151 5.84988L12.4302 5.84452L12.4244 5.85029ZM12.4244 5.85029C13.4633 5.89715 14.4622 6.26486 15.2828 6.90275C16.2399 8.70839 16.7577 10.7135 16.7943 12.7559C16.3865 13.2079 15.8882 13.5694 15.3317 13.8172C14.7752 14.065 14.1728 14.1936 13.5634 14.1946C13.5634 14.1946 13.1753 13.7494 12.8996 13.3613C13.6291 13.1882 14.2783 12.7733 14.7411 12.1844C14.3638 12.4103 13.9744 12.6154 13.5747 12.7988C13.0901 12.998 12.5864 13.1475 12.0715 13.2448C11.1836 13.385 10.2792 13.385 9.39136 13.2448C8.87477 13.154 8.37038 13.0041 7.88816 12.7981C7.67815 12.6981 7.42586 12.5943 7.16996 12.489C7.15043 12.481 7.13088 12.4729 7.11132 12.4649C7.1017 12.4648 7.09223 12.4624 7.08362 12.4582C7.07501 12.4539 7.06748 12.4477 7.06159 12.4401V12.4348C7.0556 12.4273 7.04805 12.4212 7.03946 12.4169C7.03087 12.4127 7.02146 12.4103 7.01186 12.41H6.96213C6.87232 12.3489 6.77898 12.2932 6.68259 12.243C7.13179 12.8198 7.76017 13.2314 8.4691 13.4132C8.13078 13.8035 7.79699 14.248 7.79699 14.248C7.19181 14.2765 6.58907 14.1538 6.04334 13.8912C5.49761 13.6286 5.02612 13.2342 4.67155 12.7439C4.70829 10.703 5.22446 8.69922 6.17851 6.89372C7.0106 6.2465 8.02594 5.87756 9.08017 5.83935L9.19319 5.95216C8.20598 6.14559 7.28394 6.58543 6.51306 7.23064C6.51306 7.23064 6.73684 7.12009 7.12639 6.95088C7.86972 6.62019 8.66235 6.41339 9.47274 6.33871H9.64001C10.3264 6.25562 11.0204 6.25562 11.7068 6.33871C12.7977 6.46336 13.8569 6.78442 14.833 7.28629C14.0792 6.68071 13.2033 6.24463 12.2651 6.00781L12.4244 5.85029ZM13.235 9.67756C13.0437 9.56225 12.8221 9.5068 12.5989 9.51837C12.4557 9.52207 12.3147 9.55394 12.1839 9.61214C12.053 9.67034 11.935 9.75374 11.8365 9.85756C11.738 9.96137 11.661 10.0836 11.6099 10.2171C11.5589 10.3507 11.5347 10.493 11.5388 10.6359C11.5394 10.859 11.6069 11.0768 11.7328 11.2611C11.8586 11.4455 12.0368 11.588 12.2446 11.6703C12.4523 11.7525 12.68 11.7708 12.8982 11.7227C13.1165 11.6745 13.3152 11.5622 13.4689 11.4002C13.6226 11.2382 13.7241 11.034 13.7603 10.8139C13.7966 10.5938 13.7659 10.3679 13.6722 10.1653C13.5786 9.96278 13.4263 9.79288 13.235 9.67756ZM9.44104 9.67947C9.2502 9.56367 9.02898 9.50756 8.8059 9.51837L8.80289 9.51611C8.65941 9.51961 8.51804 9.55141 8.38692 9.60968C8.2558 9.66795 8.13753 9.75153 8.03892 9.85562C7.94031 9.95971 7.86331 10.0822 7.81234 10.2162C7.76138 10.3501 7.73747 10.4927 7.74199 10.6359C7.74255 10.8588 7.80999 11.0765 7.9356 11.2608C8.06122 11.4451 8.23926 11.5877 8.44678 11.6701C8.6543 11.7525 8.88179 11.771 9.09994 11.7232C9.31809 11.6754 9.51689 11.5635 9.67074 11.4019C9.82458 11.2403 9.92642 11.0364 9.96312 10.8165C9.99982 10.5966 9.9697 10.3708 9.87665 10.1681C9.7836 9.96547 9.63188 9.79528 9.44104 9.67947Z" fill="white" fill-opacity="0.65"/>
</svg>
