<svg width="21" height="20" viewBox="0 0 21 20" fill="none" xmlns="http://www.w3.org/2000/svg">
<path d="M10.2516 0C4.59045 0 0 4.58956 0 10.2525C0 14.7832 2.93667 18.6257 7.01182 19.9826C7.52355 20.0744 7.68581 19.7722 7.68581 19.5003C7.68581 19.256 7.69116 18.5758 7.68581 17.7199C4.83472 18.3386 4.24365 16.3692 4.24365 16.3692C3.77738 15.1844 3.10695 14.8697 3.10695 14.8697C2.17531 14.2332 3.1756 14.2465 3.1756 14.2465C4.20353 14.3178 4.74646 15.3021 4.74646 15.3021C5.66117 16.8694 7.14555 16.4165 7.7295 16.1544C7.824 15.4929 8.08789 15.0391 8.3812 14.785C6.10425 14.5247 3.71141 13.6465 3.71141 9.71581C3.71141 8.59695 4.11081 7.68225 4.76697 6.96457C4.66177 6.70692 4.30873 5.66295 4.86682 4.25167C4.86682 4.25167 5.72892 3.97619 7.68581 5.30366C8.52263 5.07543 9.38601 4.95912 10.2534 4.95775C11.1235 4.96221 12.0008 5.07544 12.821 5.30366C14.7779 3.97708 15.6373 4.25167 15.6373 4.25167C16.1963 5.66295 15.8441 6.70692 15.7389 6.96457C16.3951 7.68225 16.7936 8.59695 16.7936 9.71581C16.7936 13.6563 14.3963 14.522 12.1122 14.7743C12.4795 15.0926 12.8138 15.7077 12.8138 16.6643V19.5029C12.8138 19.7775 12.9797 20.0798 13.5003 19.9808C17.571 18.623 20.505 14.7814 20.505 10.2525C20.505 4.58956 15.9155 0 10.2516 0Z" fill="white" fill-opacity="0.65"/>
</svg>
