<svg width="21" height="20" viewBox="0 0 21 20" fill="none" xmlns="http://www.w3.org/2000/svg">
<path d="M11.021 20H9.021V17H11.021V20ZM16.385 17.778L14.264 15.657L15.678 14.243L17.8 16.365L16.387 17.778H16.385ZM3.657 17.778L2.242 16.364L4.362 14.242L5.777 15.656L3.657 17.778ZM10.021 15.007C7.25597 15.0059 5.01526 12.7637 5.016 9.99867C5.01673 7.23364 7.25863 4.99263 10.0237 4.993C12.7887 4.99337 15.03 7.23497 15.03 10C15.0272 12.7649 12.7859 15.0053 10.021 15.007ZM20.021 11H17.021V9H20.021V11ZM3.021 11H0.0209961V9H3.021V11ZM15.677 5.758L14.264 4.343L16.385 2.221L17.8 3.636L15.678 5.757L15.677 5.758ZM4.364 5.758L2.244 3.637L3.659 2.223L5.779 4.345L4.365 5.757L4.364 5.758ZM11.021 3H9.021V0H11.021V3Z" fill="#3B3B3B" fill-opacity="0.65"/>
</svg>
