<svg width="20" height="16" viewBox="0 0 20 16" fill="none" xmlns="http://www.w3.org/2000/svg">
<g clip-path="url(#clip0_153_2736)">
<path d="M20 9.10483C19.9989 8.91943 19.9246 8.74195 19.7931 8.61121C19.6617 8.48047 19.4838 8.40708 19.2984 8.40708H17.5349C17.3316 8.40708 17.1366 8.32634 16.9928 8.18255C16.849 8.03876 16.7682 7.84371 16.7682 7.64036V5.91139C16.7791 5.36093 16.5857 4.82594 16.2253 4.40967C15.865 3.9934 15.3632 3.72539 14.8169 3.65727C14.5157 3.62732 14.2116 3.66068 13.9241 3.75526C13.6366 3.84984 13.3721 4.00358 13.1475 4.20648C12.923 4.40938 12.7433 4.65696 12.6202 4.93343C12.497 5.20989 12.433 5.50906 12.4324 5.81172V10.0287C12.4338 10.2035 12.3769 10.3739 12.2707 10.5128C12.1645 10.6516 12.015 10.7511 11.8458 10.7954C11.745 10.8196 11.6403 10.823 11.5382 10.8055C11.436 10.7881 11.3384 10.75 11.2513 10.6938C11.1642 10.6375 11.0895 10.5642 11.0315 10.4782C10.9736 10.3923 10.9337 10.2954 10.9143 10.1936V2.2542C10.9242 1.70439 10.7304 1.17028 10.3701 0.754817C10.0098 0.339357 9.50863 0.0718728 8.96296 0.00381615C8.66179 -0.0261294 8.35768 0.00722725 8.07019 0.101809C7.78269 0.196391 7.51816 0.350123 7.29359 0.553027C7.06902 0.755932 6.88939 1.00351 6.76623 1.27997C6.64306 1.55644 6.5791 1.8557 6.57845 2.15836V12.5091C6.58304 12.6957 6.52176 12.8778 6.40538 13.0236C6.289 13.1694 6.12496 13.2696 5.94207 13.3065C5.83104 13.3256 5.71715 13.3201 5.60851 13.2903C5.49986 13.2604 5.39914 13.207 5.31349 13.1338C5.22784 13.0606 5.15938 12.9694 5.11297 12.8668C5.06657 12.7641 5.04336 12.6524 5.045 12.5397V7.43333C5.05499 6.90015 4.87723 6.38049 4.5428 5.96512C4.33903 5.7227 4.08423 5.52823 3.79662 5.39569C3.50901 5.26315 3.19568 5.19581 2.879 5.19839H1.29189C1.10582 5.19839 0.927379 5.27226 0.795812 5.40383C0.664246 5.5354 0.590332 5.71382 0.590332 5.89988V5.89988C0.592341 6.08497 0.667022 6.26185 0.798263 6.39237C0.929505 6.5229 1.10679 6.59663 1.29189 6.59763H2.8675C3.07085 6.59763 3.26587 6.67846 3.40966 6.82225C3.55345 6.96604 3.63423 7.161 3.63423 7.36435V12.4554C3.62507 13.0054 3.81907 13.5395 4.1791 13.9554C4.53913 14.3714 5.03989 14.6399 5.58554 14.7096C5.88691 14.739 6.1911 14.7051 6.4786 14.61C6.7661 14.515 7.03058 14.3609 7.25507 14.1577C7.47957 13.9545 7.65914 13.7066 7.78226 13.43C7.90538 13.1534 7.96934 12.8541 7.97005 12.5513V2.2235C7.96455 2.03633 8.02541 1.8532 8.14187 1.70658C8.25833 1.55995 8.42288 1.45924 8.60644 1.42224C8.71746 1.40307 8.83135 1.40867 8.93999 1.43852C9.04864 1.46837 9.14937 1.52171 9.23502 1.59492C9.32067 1.66812 9.38913 1.75937 9.43553 1.86204C9.48194 1.96471 9.50514 2.0763 9.5035 2.18896V10.0786C9.49949 10.6295 9.70555 11.1612 10.0797 11.5655C10.4539 11.9699 10.9682 12.2164 11.5177 12.255C12.0673 12.2936 12.6109 12.1214 13.0379 11.7733C13.465 11.4252 13.7433 10.9275 13.8163 10.3815H13.8393V5.88463C13.8346 5.69764 13.8957 5.51492 14.0121 5.36845C14.1284 5.22199 14.2925 5.12107 14.4757 5.08336C14.5867 5.0642 14.7006 5.06971 14.8093 5.09956C14.9179 5.12941 15.0186 5.18284 15.1043 5.25605C15.1899 5.32925 15.2584 5.42049 15.3048 5.52316C15.3512 5.62583 15.3744 5.73743 15.3728 5.85009V7.59824C15.363 8.13022 15.5408 8.64858 15.875 9.06262C16.0788 9.30503 16.3335 9.49951 16.6212 9.63205C16.9088 9.76459 17.2221 9.83192 17.5388 9.82934H19.3061C19.398 9.82934 19.4891 9.8112 19.574 9.7759C19.6589 9.7406 19.736 9.68891 19.8008 9.62372C19.8656 9.55852 19.9169 9.4811 19.9518 9.396C19.9866 9.31091 20.0043 9.2198 20.0038 9.12785L20 9.10483Z" fill="#01796F"/>
<path opacity="0.2" d="M18.7042 9.0017H16.9446C16.7413 9.0017 16.5462 8.92096 16.4024 8.77717C16.2587 8.63338 16.1779 8.43833 16.1779 8.23498V6.52136C16.1862 5.97157 15.9919 5.43799 15.632 5.02226C15.2721 4.60654 14.7719 4.33779 14.2266 4.26724C13.9252 4.23786 13.621 4.27169 13.3335 4.36673C13.046 4.46176 12.7815 4.61587 12.557 4.81907C12.3325 5.02227 12.153 5.27012 12.0298 5.54676C11.9067 5.8234 11.8428 6.12272 11.8421 6.42552V10.6425C11.8422 10.817 11.7848 10.9868 11.6788 11.1254C11.5727 11.264 11.424 11.3637 11.2555 11.4092C11.1541 11.4339 11.0488 11.4376 10.946 11.4202C10.8431 11.4027 10.7449 11.3646 10.6573 11.3079C10.5698 11.2512 10.4947 11.1772 10.4367 11.0904C10.3787 11.0037 10.339 10.9061 10.3201 10.8035V2.86791C10.3293 2.3179 10.1353 1.78387 9.77523 1.36797C9.4152 0.95206 8.91444 0.683531 8.36879 0.613784C8.0676 0.584378 7.76359 0.6183 7.47629 0.713369C7.18898 0.808438 6.92475 0.962543 6.70055 1.1658C6.47635 1.36906 6.29714 1.61696 6.17445 1.89359C6.05175 2.17023 5.98828 2.46945 5.98811 2.77207V13.1037C5.99177 13.2905 5.92967 13.4728 5.81265 13.6185C5.69564 13.7643 5.53114 13.8643 5.3479 13.9011C5.23687 13.9202 5.12298 13.9147 5.01434 13.8849C4.90569 13.855 4.80496 13.8016 4.71931 13.7284C4.63367 13.6552 4.5652 13.564 4.5188 13.4613C4.47239 13.3586 4.44919 13.247 4.45083 13.1344V8.02411C4.46133 7.49266 4.28495 6.97446 3.95246 6.55973C3.74775 6.31743 3.49224 6.12309 3.20404 5.99059C2.91584 5.85808 2.60202 5.79066 2.28483 5.79301H0.697711C0.601479 5.78588 0.504812 5.79861 0.413752 5.83054C0.322692 5.86247 0.239197 5.91285 0.168488 5.97851C0.0977802 6.04418 0.0413808 6.12377 0.00281188 6.21222C-0.035757 6.30067 -0.0556641 6.39613 -0.0556641 6.49263C-0.0556641 6.58912 -0.035757 6.68458 0.00281188 6.77304C0.0413808 6.86149 0.0977802 6.94098 0.168488 7.00665C0.239197 7.07231 0.322692 7.12269 0.413752 7.15462C0.504812 7.18655 0.601479 7.19937 0.697711 7.19224H2.281C2.48435 7.19224 2.67937 7.27299 2.82316 7.41678C2.96694 7.56057 3.04772 7.75562 3.04772 7.95897V13.0385C3.03686 13.589 3.23026 14.124 3.5906 14.5402C3.95095 14.9565 4.45269 15.2245 4.99904 15.2926C5.30021 15.3226 5.60431 15.2892 5.89181 15.1946C6.17931 15.1001 6.44384 14.9464 6.66841 14.7435C6.89297 14.5406 7.07261 14.2929 7.19577 14.0165C7.31893 13.74 7.38289 13.4409 7.38355 13.1382V2.80277C7.37896 2.61625 7.44024 2.43411 7.55662 2.28828C7.673 2.14245 7.83704 2.04224 8.01993 2.00534C8.13096 1.98618 8.24485 1.99169 8.35349 2.02154C8.46213 2.05139 8.56286 2.10482 8.64851 2.17803C8.73416 2.25123 8.80262 2.34247 8.84903 2.44514C8.89543 2.54781 8.91864 2.65941 8.917 2.77207V10.6617C8.91401 11.2122 9.12079 11.7432 9.49529 12.1468C9.86979 12.5503 10.3839 12.7961 10.9331 12.8342C11.4824 12.8723 12.0255 12.6998 12.4521 12.3518C12.8787 12.0038 13.1568 11.5064 13.2298 10.9607H13.2528V6.46389C13.249 6.27756 13.3106 6.09573 13.4268 5.95006C13.5431 5.80439 13.7067 5.70406 13.8892 5.66647C14.0002 5.6473 14.1141 5.65281 14.2228 5.68266C14.3314 5.71251 14.4321 5.76595 14.5178 5.83915C14.6034 5.91236 14.6719 6.0036 14.7183 6.10627C14.7647 6.20894 14.7879 6.32054 14.7863 6.43319V8.18135C14.7772 8.71322 14.9549 9.23137 15.2885 9.64572C15.4928 9.88753 15.7477 10.0815 16.0352 10.214C16.3226 10.3465 16.6357 10.4142 16.9523 10.4124H18.7196C18.8962 10.3994 19.0613 10.32 19.1818 10.1903C19.3023 10.0605 19.3693 9.88992 19.3693 9.71283C19.3693 9.53574 19.3023 9.36517 19.1818 9.23541C19.0613 9.10564 18.8962 9.0263 18.7196 9.01321L18.7042 9.0017Z" fill="#01796F"/>
</g>
<defs>
<clipPath id="clip0_153_2736">
<rect width="20" height="15.3" fill="white"/>
</clipPath>
</defs>
</svg>
