<svg width="32" height="32" viewBox="0 0 32 32" fill="none" xmlns="http://www.w3.org/2000/svg">
<circle cx="16" cy="16" r="16" fill="#ECF3EC"/>
<path d="M6 16C6 10.4772 10.4772 6 16 6V6C21.5228 6 26 10.4772 26 16V16C26 21.5228 21.5228 26 16 26V26C10.4772 26 6 21.5228 6 16V16Z" fill="#ECF3EC"/>
<path fill-rule="evenodd" clip-rule="evenodd" d="M11.7895 9.59634C11.7895 9.49945 11.868 9.4209 11.9649 9.4209H12.8421C12.939 9.4209 13.0175 9.49944 13.0175 9.59634V22.3156C13.0175 22.4125 12.939 22.4911 12.8421 22.4911H11.9649C11.868 22.4911 11.7895 22.4125 11.7895 22.3156V9.59634ZM9.59647 12.9297C9.49958 12.9297 9.42103 13.0082 9.42103 13.1051V18.8069C9.42103 18.9038 9.49958 18.9823 9.59647 18.9823H10.4737C10.5706 18.9823 10.6491 18.9038 10.6491 18.8069V13.1051C10.6491 13.0082 10.5706 12.9297 10.4737 12.9297H9.59647ZM7.22805 14.6841C7.13116 14.6841 7.05261 14.7626 7.05261 14.8595V17.0525C7.05261 17.1494 7.13116 17.2279 7.22805 17.2279H8.10524C8.20214 17.2279 8.28068 17.1494 8.28068 17.0525V14.8595C8.28068 14.7626 8.20214 14.6841 8.10524 14.6841H7.22805ZM14.3333 14.6841C14.2364 14.6841 14.1579 14.7626 14.1579 14.8595V17.0525C14.1579 17.1494 14.2364 17.2279 14.3333 17.2279H15.2105C15.3074 17.2279 15.3859 17.1494 15.3859 17.0525V14.8595C15.3859 14.7626 15.3074 14.6841 15.2105 14.6841H14.3333ZM23.6316 14.8595C23.6316 14.7626 23.7101 14.6841 23.807 14.6841H24.6842C24.7811 14.6841 24.8596 14.7626 24.8596 14.8595V17.0525C24.8596 17.1494 24.7811 17.2279 24.6842 17.2279H23.807C23.7101 17.2279 23.6316 17.1494 23.6316 17.0525V14.8595ZM16.5263 13.1051C16.5263 13.0082 16.6048 12.9297 16.7017 12.9297H17.5789C17.6758 12.9297 17.7544 13.0082 17.7544 13.1051V18.8069C17.7544 18.9038 17.6758 18.9823 17.5789 18.9823H16.7017C16.6048 18.9823 16.5263 18.9038 16.5263 18.8069V13.1051ZM21.4386 12.9297C21.3417 12.9297 21.2631 13.0082 21.2631 13.1051V18.8069C21.2631 18.9038 21.3417 18.9823 21.4386 18.9823H22.3158C22.4127 18.9823 22.4912 18.9038 22.4912 18.8069V13.1051C22.4912 13.0082 22.4127 12.9297 22.3158 12.9297H21.4386ZM19.0702 9.4209C18.9733 9.4209 18.8947 9.49945 18.8947 9.59634V22.3156C18.8947 22.4125 18.9733 22.4911 19.0702 22.4911H19.9473C20.0442 22.4911 20.1228 22.4125 20.1228 22.3156V9.59634C20.1228 9.49944 20.0442 9.4209 19.9473 9.4209H19.0702Z" fill="#01796F"/>
</svg>
