<svg width="21" height="20" viewBox="0 0 21 20" fill="none" xmlns="http://www.w3.org/2000/svg">
<path fill-rule="evenodd" clip-rule="evenodd" d="M10.5049 20C16.0277 20 20.5049 15.5228 20.5049 10C20.5049 4.47715 16.0277 0 10.5049 0C4.98204 0 0.504883 4.47715 0.504883 10C0.504883 15.5228 4.98204 20 10.5049 20ZM3.83822 9.99999C3.83822 7.90902 5.52182 6.21379 7.59863 6.21379C9.67553 6.21379 11.359 7.90889 11.359 9.99999C11.359 12.0911 9.67532 13.7862 7.59863 13.7862C5.52194 13.7862 3.83822 12.091 3.83822 9.99999ZM11.7237 10.0001C11.7237 8.03181 12.5654 6.43558 13.6038 6.43558H13.6039C14.6424 6.43558 15.484 8.03124 15.484 10.0001H15.4842C15.4842 11.9684 14.6424 13.5646 13.604 13.5646C12.5655 13.5646 11.7237 11.9683 11.7237 10.0001ZM15.8491 10.0001C15.8491 8.2366 16.1451 6.80685 16.5102 6.80685H16.5103C16.8754 6.80685 17.1715 8.23647 17.1715 9.99999C17.1715 11.7631 16.8755 13.1933 16.5102 13.1933C16.1449 13.1933 15.8491 11.7635 15.8491 10.0001Z" fill="white" fill-opacity="0.65"/>
</svg>
