<svg width="21" height="21" viewBox="0 0 21 21" fill="none" xmlns="http://www.w3.org/2000/svg">
<path d="M6.021 18.3049L8.75275 19.0297V18.0819L8.97575 17.8589H10.5367V19.7544H8.86425L6.80148 18.8624L6.021 18.3049Z" fill="#CDBDB2"/>
<path d="M14.9409 18.3049L12.2649 19.0297V18.0819L12.0419 17.8589H10.481V19.7544H12.1534L14.2161 18.8624L14.9409 18.3049Z" fill="#CDBDB2"/>
<path d="M8.97593 16.2422L8.75293 18.0818L9.03163 17.8588H11.9306L12.2651 18.0818L12.0421 16.2422L11.5961 15.9634L9.36612 16.0192L8.97593 16.2422Z" fill="#171717"/>
<path d="M7.47021 3.80957L8.80819 6.93152L9.42148 16.0187H11.5957L12.2646 6.93152L13.4911 3.80957H7.47021Z" fill="#F6851B"/>
<path d="M1.61664 10.6671L0.0556641 15.1827L3.9581 14.9597H6.46676V13.0086L6.35527 8.99463L5.79777 9.44062L1.61664 10.6671Z" fill="#F6851B"/>
<path d="M4.57129 11.1689L9.14272 11.2804L8.64103 13.6219L6.46676 13.0644L4.57129 11.1689Z" fill="#CD6115"/>
<path d="M4.57129 11.2246L6.46676 13.0086V14.7926L4.57129 11.2246Z" fill="#E47520"/>
<path d="M6.4668 13.0645L8.69676 13.6219L9.42155 16.0192L8.91976 16.2979L6.4668 14.8484V13.0645Z" fill="#F6851B"/>
<path d="M6.46699 14.8486L6.021 18.3051L8.97575 16.2424L6.46699 14.8486Z" fill="#E4761A"/>
<path d="M9.14294 11.2808L9.42173 16.0195L8.58545 13.5944L9.14294 11.2808Z" fill="#E47520"/>
<path d="M3.90234 14.9044L6.4668 14.8486L6.02081 18.3051L3.90234 14.9044Z" fill="#CD6115"/>
<path d="M1.28215 19.8102L6.02077 18.3049L3.90231 14.9043L0.0556641 15.183L1.28215 19.8102Z" fill="#E4761A"/>
<path d="M8.80822 6.93213L6.41106 8.9391L4.57129 11.1691L9.14272 11.3364L8.80822 6.93213Z" fill="#E4761A"/>
<path d="M6.021 18.3049L8.97575 16.2422L8.75275 18.0262V19.0296L6.74578 18.6393L6.021 18.3049ZM14.9409 18.3049L12.0419 16.2422L12.2649 18.0262V19.0296L14.2719 18.6393L14.9409 18.3049Z" fill="#DFCEC3"/>
<path d="M7.91644 12.2842L8.52973 13.5665L6.35547 13.009L7.91644 12.2842Z" fill="#243447"/>
<path d="M1.22656 1.18994L8.80844 6.93205L7.52626 3.8101L1.22656 1.18994Z" fill="#E4761A"/>
<path d="M1.22614 1.18994L0.222656 4.25609L0.780148 7.60104L0.389953 7.82404L0.947444 8.32583L0.501451 8.71603L1.11464 9.27352L0.724448 9.60801L1.61643 10.723L5.79757 9.44081C7.8417 7.80551 8.84519 6.96922 8.80802 6.93205C8.77085 6.89489 6.24356 4.98088 1.22614 1.18994Z" fill="#763D16"/>
<path d="M19.3447 10.6671L20.9057 15.1827L17.0033 14.9597H14.4946V13.0086L14.6061 8.99463L15.1636 9.44062L19.3447 10.6671Z" fill="#F6851B"/>
<path d="M16.3903 11.1689L11.8188 11.2804L12.3205 13.6219L14.4948 13.0644L16.3903 11.1689Z" fill="#CD6115"/>
<path d="M16.3901 11.2246L14.4946 13.0086V14.7926L16.3901 11.2246Z" fill="#E47520"/>
<path d="M14.4948 13.0645L12.2648 13.6219L11.54 16.0192L12.0418 16.2979L14.4948 14.8484V13.0645Z" fill="#F6851B"/>
<path d="M14.495 14.8486L14.9409 18.3051L12.042 16.2981L14.495 14.8486Z" fill="#E4761A"/>
<path d="M11.8188 11.2808L11.54 16.0195L12.3763 13.5944L11.8188 11.2808Z" fill="#E47520"/>
<path d="M17.0591 14.9044L14.4946 14.8486L14.9406 18.3051L17.0591 14.9044Z" fill="#CD6115"/>
<path d="M19.6795 19.8102L14.9409 18.3049L17.0594 14.9043L20.906 15.183L19.6795 19.8102Z" fill="#E4761A"/>
<path d="M12.1533 6.93213L14.5505 8.9391L16.3903 11.1691L11.8188 11.3364L12.1533 6.93213Z" fill="#E4761A"/>
<path d="M13.0449 12.2842L12.4316 13.5665L14.6059 13.009L13.0449 12.2842Z" fill="#243447"/>
<path d="M19.7352 1.18994L12.1533 6.93205L13.4355 3.8101L19.7352 1.18994Z" fill="#E4761A"/>
<path d="M19.7352 1.18994L20.7387 4.25609L20.1812 7.60104L20.5714 7.82404L20.0139 8.32583L20.4599 8.71603L19.8467 9.27352L20.2369 9.60801L19.3449 10.723L15.1638 9.44081C13.1197 7.80551 12.1162 6.96922 12.1533 6.93205C12.1905 6.89489 14.7178 4.98088 19.7352 1.18994Z" fill="#763D16"/>
</svg>
