<svg width="28" height="32" viewBox="0 0 28 32" fill="none" xmlns="http://www.w3.org/2000/svg">
<g clip-path="url(#clip0_153_2788)">
<path d="M8.69645 11.5118H2.17578V9.10463H8.69645C8.91843 9.10302 9.13077 9.01371 9.28717 8.85617C9.44357 8.69863 9.53134 8.48556 9.53134 8.26357V1.44434H11.969V8.26357C11.969 8.69218 11.8842 9.11661 11.7194 9.51229C11.5547 9.90797 11.3132 10.2671 11.009 10.5691C10.7048 10.871 10.3438 11.1097 9.94694 11.2715C9.55004 11.4333 9.12505 11.515 8.69645 11.5118Z" fill="#01796F"/>
<path d="M13.0415 25.9975C10.5063 25.9975 8.44043 24.2241 8.44043 22.0486C8.44043 19.873 10.5063 18.0996 13.0415 18.0996C15.5766 18.0996 17.6425 19.873 17.6425 22.0486C17.6425 24.2241 15.5766 25.9975 13.0415 25.9975ZM13.0415 19.9034C11.5118 19.9034 10.2687 20.8541 10.2687 22.0242C10.2687 23.1942 11.4875 24.1449 13.0415 24.1449C14.5954 24.1449 15.8143 23.1942 15.8143 22.0242C15.8143 20.8541 14.5711 19.9278 13.0415 19.9278V19.9034Z" fill="#01796F"/>
<path d="M17.6422 21.8349H15.814V6.84338C15.8142 6.71925 15.8448 6.59712 15.903 6.48749C15.9612 6.37787 16.0454 6.28417 16.1481 6.21448C16.2508 6.14479 16.369 6.10115 16.4924 6.08757C16.6158 6.07399 16.7406 6.09084 16.8561 6.13652L18.4771 6.77643C19.595 7.21718 20.5176 8.04463 21.0768 9.10827C21.636 10.1719 21.7948 11.4011 21.5241 12.5719L21.1585 14.1502C21.1033 14.3863 20.9571 14.5912 20.7517 14.7202C20.5463 14.8491 20.2982 14.8918 20.0615 14.8389C19.8254 14.7837 19.6205 14.6375 19.4916 14.4321C19.3626 14.2267 19.32 13.9786 19.3729 13.7419L19.7386 12.1635C19.9115 11.4187 19.8109 10.6366 19.4552 9.95975C19.0994 9.28292 18.5122 8.75659 17.8006 8.4767L17.6361 8.4096L17.6422 21.8349Z" fill="#01796F"/>
<path d="M23.2427 0H11.1887C10.9011 0.00148981 10.6169 0.0611132 10.3529 0.175264C10.089 0.289415 9.85094 0.455791 9.65295 0.664308L1.52345 9.19602C1.14043 9.58498 0.922152 10.1066 0.914042 10.6524C0.91565 10.8728 1.00432 11.0837 1.16072 11.2389C1.31712 11.3942 1.52856 11.4813 1.74893 11.4813H3.33949V10.7683L11.3044 2.38288H23.2306C23.5974 2.38288 23.9493 2.52858 24.2087 2.78801C24.4682 3.04744 24.6139 3.39936 24.6139 3.76625V27.2284C24.6147 27.4103 24.5795 27.5905 24.5103 27.7587C24.441 27.9269 24.3392 28.0797 24.2105 28.2083C24.0819 28.3369 23.9291 28.4389 23.7609 28.5081C23.5927 28.5773 23.4124 28.6126 23.2306 28.6118H4.73503C4.37126 28.6151 4.02082 28.4749 3.75963 28.2217C3.49843 27.9685 3.34748 27.6225 3.33949 27.2588V14.3211C3.33949 13.9978 3.21108 13.6879 2.9825 13.4593C2.75393 13.2308 2.44392 13.1023 2.12067 13.1023C1.79742 13.1023 1.48741 13.2308 1.25884 13.4593C1.03027 13.6879 0.901855 13.9978 0.901855 14.3211V27.2588C0.901855 28.2657 1.30185 29.2314 2.01386 29.9434C2.72586 30.6554 3.69154 31.0554 4.69847 31.0554H23.2062C24.2131 31.0554 25.1788 30.6554 25.8908 29.9434C26.6028 29.2314 27.0028 28.2657 27.0028 27.2588V3.7966C27.0028 2.79598 26.6079 1.8359 25.9037 1.12493C25.1996 0.413974 24.2433 0.00963679 23.2427 0Z" fill="#01796F"/>
<path opacity="0.2" d="M18.4408 14.6802C18.4088 14.7987 18.4009 14.9224 18.4178 15.044C18.4346 15.1656 18.4757 15.2826 18.5387 15.388C18.6017 15.4934 18.6853 15.5849 18.7845 15.6573C18.8836 15.7296 18.9964 15.7814 19.1159 15.8092C19.2355 15.837 19.3594 15.8404 19.4803 15.8193C19.6013 15.7982 19.7167 15.753 19.8198 15.6863C19.9229 15.6196 20.0114 15.533 20.0802 15.4313C20.1491 15.3296 20.1967 15.2151 20.2203 15.0946L20.5859 13.5163C20.8569 12.3447 20.6984 11.1147 20.1392 10.05C19.58 8.98536 18.6573 8.15669 17.5389 7.71476L15.9179 7.10535C15.8019 7.06101 15.677 7.04543 15.5537 7.05997C15.4304 7.07451 15.3125 7.11872 15.21 7.18882C15.1076 7.25891 15.0237 7.35279 14.9654 7.46242C14.9072 7.57206 14.8765 7.69418 14.8758 7.81831V19.8785C14.0493 19.3467 13.0858 19.0671 12.103 19.0741C9.56784 19.0741 7.50195 20.8413 7.50195 23.023C7.50195 25.2047 9.56784 26.972 12.103 26.972C14.6381 26.972 16.704 25.1986 16.704 23.023C16.704 22.9499 16.704 22.8829 16.704 22.8098V9.40283L16.8685 9.46978C17.575 9.74786 18.1589 10.269 18.5153 10.9393C18.8717 11.6096 18.9771 12.3851 18.8126 13.1262L18.4408 14.6802ZM12.0969 25.1132C10.5673 25.1132 9.32408 24.1565 9.32408 22.9925C9.32408 21.8285 10.5429 20.8718 12.0969 20.8718C13.6509 20.8718 14.8697 21.8224 14.8697 22.9925C14.8697 24.1626 13.6265 25.1132 12.0969 25.1132Z" fill="#01796F"/>
<path opacity="0.2" d="M3.79683 31.9995H22.3045C23.3115 31.9995 24.2772 31.5995 24.9892 30.8875C25.7012 30.1755 26.1012 29.2098 26.1012 28.2029V4.77121C26.1012 3.76428 25.7012 2.7986 24.9892 2.0866C24.2772 1.3746 23.3115 0.974609 22.3045 0.974609H10.2444C9.95721 0.974962 9.67311 1.03349 9.40917 1.1466C9.14524 1.25971 8.90695 1.42512 8.70866 1.63282L0.579157 10.1645C0.196669 10.5538 -0.0215157 11.0752 -0.030251 11.6209C-0.0310551 11.7303 -0.0102113 11.8387 0.0310794 11.9399C0.0723701 12.0412 0.133292 12.1334 0.210333 12.211C0.287374 12.2886 0.379008 12.3502 0.479962 12.3922C0.580915 12.4343 0.68919 12.4559 0.798544 12.4559H7.75189C8.61335 12.4559 9.43953 12.1136 10.0487 11.5044C10.6578 10.8953 11 10.0692 11 9.20771V3.35734H22.3045C22.6714 3.35734 23.0233 3.50319 23.2827 3.76262C23.5422 4.02205 23.6879 4.37382 23.6879 4.74071V28.2029C23.6879 28.5698 23.5422 28.9217 23.2827 29.1811C23.0233 29.4406 22.6714 29.5863 22.3045 29.5863H3.79683C3.42994 29.5863 3.07808 29.4406 2.81865 29.1811C2.55922 28.9217 2.41348 28.5698 2.41348 28.2029V15.2652C2.41348 14.9419 2.28506 14.632 2.05649 14.4035C1.82792 14.1749 1.51791 14.0464 1.19466 14.0464C0.87141 14.0464 0.561399 14.1749 0.332826 14.4035C0.104254 14.632 -0.0241557 14.9419 -0.0241557 15.2652V28.2029C-0.024166 28.7035 0.0748379 29.1993 0.267158 29.6616C0.459478 30.1238 0.741316 30.5433 1.09645 30.8961C1.45158 31.249 1.873 31.5282 2.33644 31.7176C2.79989 31.9069 3.2962 32.0027 3.79683 31.9995ZM7.75189 10.0608H4.02231L8.58678 5.25266V9.22601C8.582 9.44426 8.49193 9.65199 8.33587 9.80462C8.17981 9.95726 7.97018 10.0426 7.75189 10.0425V10.0608Z" fill="#01796F"/>
</g>
<defs>
<clipPath id="clip0_153_2788">
<rect width="27.0394" height="32" fill="white"/>
</clipPath>
</defs>
</svg>
