<svg width="23" height="20" viewBox="0 0 23 20" fill="none" xmlns="http://www.w3.org/2000/svg">
<path d="M10.7732 19.1368C15.5377 19.1368 19.4002 15.2984 19.4002 10.5635C19.4002 5.82863 15.5377 1.99023 10.7732 1.99023C6.00866 1.99023 2.14624 5.82863 2.14624 10.5635C2.14624 15.2984 6.00866 19.1368 10.7732 19.1368Z" fill="url(#paint0_radial_153_2059)"/>
<g style="mix-blend-mode:soft-light">
<path d="M10.7732 19.1368C15.5377 19.1368 19.4002 15.2984 19.4002 10.5635C19.4002 5.82863 15.5377 1.99023 10.7732 1.99023C6.00866 1.99023 2.14624 5.82863 2.14624 10.5635C2.14624 15.2984 6.00866 19.1368 10.7732 19.1368Z" fill="url(#paint1_radial_153_2059)"/>
</g>
<g style="mix-blend-mode:soft-light">
<path d="M10.7732 19.1368C15.5377 19.1368 19.4002 15.2984 19.4002 10.5635C19.4002 5.82863 15.5377 1.99023 10.7732 1.99023C6.00866 1.99023 2.14624 5.82863 2.14624 10.5635C2.14624 15.2984 6.00866 19.1368 10.7732 19.1368Z" fill="url(#paint2_radial_153_2059)"/>
</g>
<g style="mix-blend-mode:overlay">
<path d="M10.7732 19.1368C15.5377 19.1368 19.4002 15.2984 19.4002 10.5635C19.4002 5.82863 15.5377 1.99023 10.7732 1.99023C6.00866 1.99023 2.14624 5.82863 2.14624 10.5635C2.14624 15.2984 6.00866 19.1368 10.7732 19.1368Z" fill="url(#paint3_radial_153_2059)" fill-opacity="0.7"/>
</g>
<mask id="mask0_153_2059" style="mask-type:alpha" maskUnits="userSpaceOnUse" x="2" y="1" width="18" height="19">
<path d="M10.7732 19.1368C15.5377 19.1368 19.4002 15.2984 19.4002 10.5635C19.4002 5.82863 15.5377 1.99023 10.7732 1.99023C6.00866 1.99023 2.14624 5.82863 2.14624 10.5635C2.14624 15.2984 6.00866 19.1368 10.7732 19.1368Z" fill="white"/>
</mask>
<g mask="url(#mask0_153_2059)">
<g filter="url(#filter0_f_153_2059)">
<path d="M2.09725 10.3191C2.10661 10.1973 2.14695 10.1851 2.15872 10.3088C2.17179 10.4462 2.14638 10.7225 2.1525 10.8891C2.1687 11.3304 2.23676 11.7141 2.30693 12.0261C2.53304 13.0318 2.84618 13.6799 3.13825 14.2289C4.09829 16.0338 5.14994 16.9477 6.17585 17.6364C7.67967 18.6461 9.19571 18.9672 10.713 19.0354C10.7513 19.0371 10.7576 19.2848 10.72 19.3171C10.6521 19.3752 10.568 19.3175 10.4985 19.3151C10.2989 19.3081 10.0993 19.2945 9.89978 19.2739C9.30803 19.2128 8.71632 19.0883 8.1258 18.8881C6.5202 18.3437 4.78901 17.4116 3.27712 14.7861C3.18201 14.6209 3.08765 14.447 2.99463 14.2602C2.92024 14.1107 2.84657 13.9541 2.7742 13.7866C2.53616 13.2355 1.98145 11.8249 2.09725 10.3191ZM10.714 19.3197C10.6775 19.3208 10.6683 19.0899 10.7031 19.0419C10.7557 18.9695 10.8345 19.0292 10.89 19.0257C11.1203 19.0114 11.3506 18.9902 11.5808 18.9615C12.2119 18.8827 12.8426 18.7482 13.4719 18.5411C15.0328 18.0274 16.7109 17.2443 18.1822 14.8383C18.2759 14.6852 18.3687 14.5227 18.4603 14.3481C18.7386 13.8174 19.4362 12.4088 19.3556 10.6576C19.3488 10.51 19.394 10.4215 19.4142 10.5482C19.44 10.7094 19.4296 11.0456 19.4225 11.2245C19.3997 11.7973 19.3112 12.2818 19.2179 12.673C18.922 13.9129 18.5067 14.6319 18.1264 15.2321C16.8902 17.1832 15.5476 17.9698 14.2422 18.535C13.0714 19.0419 11.8917 19.2836 10.714 19.3197Z" fill="#401C02"/>
</g>
<g filter="url(#filter1_f_153_2059)">
<path d="M2.09725 10.3191C2.10661 10.1973 2.14695 10.1851 2.15872 10.3088C2.17179 10.4462 2.14638 10.7225 2.1525 10.8891C2.1687 11.3304 2.23676 11.7141 2.30693 12.0261C2.53304 13.0318 2.84618 13.6799 3.13825 14.2289C4.09829 16.0338 5.14994 16.9477 6.17585 17.6364C7.67967 18.6461 9.19571 18.9672 10.713 19.0354C10.7513 19.0371 10.7576 19.2848 10.72 19.3171C10.6521 19.3752 10.568 19.3175 10.4985 19.3151C10.2989 19.3081 10.0993 19.2945 9.89978 19.2739C9.30803 19.2128 8.71632 19.0883 8.1258 18.8881C6.5202 18.3437 4.78901 17.4116 3.27712 14.7861C3.18201 14.6209 3.08765 14.447 2.99463 14.2602C2.92024 14.1107 2.84657 13.9541 2.7742 13.7866C2.53616 13.2355 1.98145 11.8249 2.09725 10.3191ZM10.714 19.3197C10.6775 19.3208 10.6683 19.0899 10.7031 19.0419C10.7557 18.9695 10.8345 19.0292 10.89 19.0257C11.1203 19.0114 11.3506 18.9902 11.5808 18.9615C12.2119 18.8827 12.8426 18.7482 13.4719 18.5411C15.0328 18.0274 16.7109 17.2443 18.1822 14.8383C18.2759 14.6852 18.3687 14.5227 18.4603 14.3481C18.7386 13.8174 19.4362 12.4088 19.3556 10.6576C19.3488 10.51 19.394 10.4215 19.4142 10.5482C19.44 10.7094 19.4296 11.0456 19.4225 11.2245C19.3997 11.7973 19.3112 12.2818 19.2179 12.673C18.922 13.9129 18.5067 14.6319 18.1264 15.2321C16.8902 17.1832 15.5476 17.9698 14.2422 18.535C13.0714 19.0419 11.8917 19.2836 10.714 19.3197Z" fill="#401C02"/>
</g>
</g>
<g filter="url(#filter2_f_153_2059)">
<ellipse cx="13.0927" cy="14.5391" rx="1.78849" ry="1.77737" fill="#E66200" fill-opacity="0.75"/>
</g>
<path d="M13.0397 13.4934C13.0361 13.4827 13.0289 13.4721 13.0254 13.4614L13.0111 13.4365C13.0039 13.4258 13.0003 13.4152 12.9932 13.4081L12.9896 13.4045C12.986 13.3974 12.9789 13.3903 12.9753 13.3832C12.9324 13.3299 12.8859 13.2801 12.8358 13.2339C12.7464 13.1592 12.6498 13.0917 12.5496 13.0313C12.3636 12.9211 12.1669 12.8251 11.9666 12.7433C11.8664 12.7042 11.7663 12.6651 11.6661 12.6296L11.6339 12.6189C11.5946 12.6047 11.5552 12.5905 11.5159 12.5798C11.4658 12.562 11.4157 12.5478 11.3621 12.5336C11.244 12.4981 11.1439 12.4732 11.0509 12.4518C10.9686 12.4341 10.9042 12.4198 10.8434 12.4056C10.8219 12.4021 10.8005 12.4056 10.7826 12.4163C10.7647 12.427 10.7504 12.4412 10.7397 12.4625C10.7325 12.4803 10.7325 12.5016 10.7361 12.5229C10.7432 12.5443 10.7576 12.5585 10.7754 12.5691C10.8327 12.6047 10.8899 12.6402 10.9507 12.6758C11.0294 12.722 11.1081 12.7682 11.1868 12.8144L11.7448 13.1379C11.9165 13.241 12.0882 13.3405 12.242 13.4472C12.3135 13.4969 12.3815 13.5503 12.4459 13.6071C12.4638 13.6213 12.4781 13.6391 12.496 13.6569L12.4995 13.664L12.496 13.6676C12.4817 13.6853 12.4638 13.7031 12.4459 13.7209C12.3815 13.7778 12.3135 13.8311 12.242 13.8808C12.081 13.991 11.9093 14.0941 11.7448 14.1901L11.1546 14.5314C11.1367 14.542 11.1224 14.5562 11.1117 14.574C11.1009 14.5918 11.0974 14.6131 11.0974 14.6344C11.0974 14.6558 11.1045 14.6771 11.1117 14.6949C11.1224 14.7127 11.1367 14.7269 11.1546 14.7375L11.2583 14.798L11.7627 15.0895C11.9129 15.1783 12.0596 15.2672 12.1955 15.3596C12.2599 15.4023 12.3171 15.4485 12.3744 15.4982C12.3887 15.5125 12.403 15.5267 12.4173 15.5409C12.403 15.5551 12.3887 15.5693 12.3744 15.5836C12.3171 15.6333 12.2599 15.6795 12.1955 15.7222C12.056 15.8182 11.9058 15.907 11.7627 15.9924L11.2726 16.2767C11.2047 16.3158 11.1367 16.3549 11.0688 16.3976C11.0187 16.426 10.9686 16.458 10.9185 16.49C10.9006 16.5007 10.8863 16.5149 10.8827 16.5362C10.8756 16.554 10.8756 16.5753 10.8827 16.5931C10.8899 16.6109 10.9006 16.6215 10.9149 16.6322C10.9292 16.6429 10.9471 16.6464 10.965 16.6464C10.9722 16.6464 10.9758 16.6464 10.9829 16.6429C11.0366 16.6322 11.0938 16.618 11.1618 16.6038C11.244 16.586 11.3299 16.5611 11.4336 16.5327C11.5373 16.5042 11.6196 16.4758 11.7019 16.4474C11.7806 16.4189 11.87 16.3869 11.9666 16.3478C12.1454 16.2767 12.3135 16.195 12.4781 16.099C12.5675 16.0457 12.6498 15.9888 12.7285 15.9213C12.775 15.8822 12.8143 15.8395 12.8537 15.7897C12.8608 15.7826 12.8644 15.7755 12.8716 15.7649C12.8787 15.7542 12.8823 15.7506 12.8859 15.7435L12.9002 15.7186C12.9037 15.7115 12.9073 15.7009 12.9145 15.6902C12.9359 15.644 12.9467 15.5942 12.9467 15.5409C12.9467 15.4911 12.9359 15.4378 12.9145 15.3916C12.9109 15.3845 12.9073 15.3738 12.9002 15.3632L12.8859 15.3383C12.8716 15.3276 12.868 15.3205 12.8608 15.3098L12.8572 15.3027C12.8537 15.2956 12.8501 15.2921 12.8465 15.285C12.8107 15.2388 12.7678 15.1925 12.7213 15.1534C12.6426 15.0859 12.5604 15.029 12.4709 14.9757C12.3064 14.8797 12.1347 14.798 11.9594 14.7269C11.8915 14.6984 11.8235 14.6736 11.7591 14.6487C11.8235 14.6238 11.8915 14.5989 11.9666 14.5705C12.1669 14.4887 12.3636 14.3963 12.5532 14.2861C12.6534 14.2292 12.7499 14.1617 12.8394 14.0835C12.893 14.0408 12.9395 13.991 12.9789 13.9342C12.9824 13.9271 12.986 13.9235 12.9932 13.9164L12.9967 13.9093C12.9967 13.9057 13.0039 13.8986 13.0075 13.888L13.0254 13.8595C13.0289 13.8489 13.0361 13.8382 13.0397 13.8275C13.0611 13.7742 13.0754 13.7173 13.0754 13.6605C13.0754 13.6036 13.0647 13.5467 13.0397 13.4934Z" fill="url(#paint4_radial_153_2059)"/>
<path d="M10.9577 16.6787C10.9649 16.6787 10.9756 16.6787 10.9828 16.6751C11.0436 16.6644 11.1008 16.6502 11.1652 16.636C11.2475 16.6182 11.3297 16.5934 11.4406 16.5649C11.5336 16.54 11.6123 16.5116 11.6839 16.4867L11.7089 16.476C11.8055 16.4441 11.8913 16.4085 11.9736 16.3765C12.1525 16.3054 12.3277 16.2201 12.4923 16.1241C12.5817 16.0708 12.6675 16.0104 12.7462 15.9428C12.7927 15.9037 12.8392 15.8575 12.875 15.8078C12.8822 15.8006 12.8857 15.79 12.8929 15.7793L12.8965 15.7722C12.9 15.7651 12.9036 15.7615 12.9072 15.7544L12.9215 15.7296C12.9251 15.7224 12.9322 15.7118 12.9358 15.7011C12.9609 15.6478 12.9716 15.5945 12.9716 15.5376C12.9716 15.4807 12.9609 15.4238 12.9358 15.3741L12.9322 15.3634C12.9287 15.3563 12.9251 15.3527 12.9251 15.3456L12.9072 15.3208C12.9 15.3101 12.8965 15.303 12.8893 15.2923L12.8857 15.2852C12.8822 15.2781 12.8786 15.271 12.8714 15.2674C12.8321 15.2177 12.7892 15.1715 12.7427 15.1324C12.664 15.0648 12.5781 15.0044 12.4887 14.9511C12.3241 14.8551 12.1489 14.7698 11.97 14.6987C11.9307 14.6809 11.8949 14.6667 11.8591 14.6525C11.8949 14.6382 11.9343 14.624 11.9772 14.6063C12.1811 14.5245 12.3778 14.4285 12.5674 14.3183C12.6711 14.2579 12.7677 14.1904 12.8571 14.1157C12.9108 14.0695 12.9609 14.0197 13.0038 13.9628C13.0074 13.9593 13.0109 13.9557 13.0145 13.9486L13.0217 13.9344C13.0288 13.9237 13.036 13.9131 13.0395 13.906L13.0574 13.8775C13.0646 13.8669 13.0682 13.8562 13.0753 13.842C13.0968 13.7851 13.1111 13.7247 13.1111 13.6607C13.1111 13.5967 13.0968 13.5363 13.0717 13.4794C13.0682 13.4687 13.061 13.4581 13.0574 13.4474L13.0431 13.419C13.036 13.4083 13.0288 13.3976 13.0217 13.387L13.0181 13.3834C13.0145 13.3799 13.0109 13.3728 13.0074 13.3657L13.0038 13.3621C12.9609 13.3052 12.9108 13.2519 12.8571 13.2057C12.7677 13.131 12.6675 13.0599 12.5674 12.9995C12.3778 12.8893 12.1811 12.7933 11.9772 12.7116C11.877 12.6725 11.7769 12.6334 11.6731 12.5978L11.6409 12.5872C11.6016 12.5729 11.5623 12.5587 11.5193 12.5481C11.4692 12.5303 11.4192 12.5161 11.3655 12.5019C11.2546 12.4699 11.1581 12.4414 11.0543 12.4201C10.972 12.4023 10.9077 12.3881 10.8469 12.3739C10.8182 12.3668 10.7896 12.3739 10.761 12.3881C10.736 12.4023 10.7145 12.4236 10.7038 12.4521C10.693 12.4805 10.693 12.509 10.7002 12.5374C10.7109 12.5658 10.7288 12.5872 10.7539 12.6049C10.8111 12.6405 10.8683 12.676 10.9291 12.708C11.0078 12.7542 11.0865 12.8005 11.1652 12.8467L11.7232 13.1701C11.8878 13.2661 12.063 13.3692 12.2168 13.4794C12.2884 13.5256 12.3563 13.5789 12.4171 13.6358C12.4279 13.6465 12.4386 13.6536 12.4458 13.6643C12.435 13.6749 12.4279 13.6856 12.4171 13.6927C12.3528 13.7496 12.2848 13.8029 12.2168 13.8491C12.0595 13.9557 11.8949 14.0553 11.7196 14.1584L11.1294 14.4996C11.1044 14.5138 11.0865 14.5316 11.0722 14.5565C11.0579 14.5814 11.0507 14.6063 11.0507 14.6347C11.0507 14.6631 11.0579 14.688 11.0722 14.7129C11.0865 14.7378 11.1044 14.7556 11.1294 14.7698L11.2367 14.8231L11.7411 15.1146C11.8734 15.1928 12.0308 15.2852 12.1739 15.3847C12.2347 15.4274 12.2955 15.4701 12.3492 15.5198C12.3563 15.5234 12.3599 15.5305 12.3671 15.5376C12.3599 15.5447 12.3563 15.5483 12.3492 15.5554C12.2955 15.6051 12.2347 15.6513 12.1739 15.6904C12.038 15.7829 11.8913 15.8717 11.7411 15.9606L11.2511 16.245C11.1831 16.2841 11.1151 16.3232 11.0472 16.3658L11.0221 16.3801C10.9792 16.405 10.9399 16.4298 10.8969 16.4547C10.8719 16.4689 10.854 16.4903 10.8433 16.5187C10.8325 16.5471 10.8361 16.5756 10.8469 16.6005C10.8576 16.6218 10.8719 16.6431 10.8934 16.6573C10.9077 16.6716 10.9327 16.6787 10.9577 16.6787ZM13.0074 13.5078C13.0288 13.5576 13.0395 13.6074 13.0395 13.6607C13.0395 13.714 13.0288 13.7638 13.0074 13.8135C13.0038 13.8242 12.9966 13.8349 12.993 13.842L12.9787 13.8704C12.9752 13.8811 12.968 13.8882 12.9644 13.8953L12.9537 13.9095C12.9501 13.9131 12.9501 13.9166 12.9465 13.9202C12.9072 13.9735 12.8607 14.0197 12.8106 14.0624C12.7248 14.137 12.6282 14.201 12.528 14.2579C12.342 14.3645 12.1489 14.4605 11.9486 14.5387C11.8734 14.5672 11.8091 14.5956 11.7447 14.6169L11.6517 14.6489L11.7447 14.6809C11.8091 14.7022 11.877 14.7307 11.945 14.7591C12.1203 14.8266 12.292 14.912 12.4529 15.0044C12.5388 15.0542 12.621 15.1146 12.6997 15.1786C12.7427 15.2177 12.7856 15.2568 12.8178 15.303C12.8213 15.3065 12.8249 15.3136 12.8285 15.3172L12.8321 15.3243C12.8392 15.335 12.8428 15.3421 12.8464 15.3492L12.8607 15.3776C12.8607 15.3812 12.8643 15.3883 12.8678 15.3919L12.8714 15.4025C12.8893 15.4452 12.9 15.4878 12.9 15.5376C12.9 15.5874 12.8893 15.63 12.8714 15.6727C12.8678 15.6833 12.8643 15.6904 12.8571 15.7011L12.8428 15.726C12.8392 15.7296 12.8392 15.7331 12.8357 15.7367L12.8285 15.7473C12.8213 15.758 12.8178 15.7651 12.8142 15.7687C12.7784 15.8149 12.7391 15.8575 12.6962 15.8931C12.621 15.9571 12.5388 16.0175 12.4493 16.0673C12.2884 16.1632 12.1167 16.245 11.9414 16.3125C11.8591 16.3445 11.7733 16.3765 11.6803 16.4121L11.6553 16.4227C11.5837 16.4476 11.5086 16.4725 11.4192 16.4974C11.3119 16.5258 11.226 16.5507 11.1473 16.5685C11.0829 16.5827 11.0293 16.5969 10.9685 16.6076C10.9649 16.6076 10.9613 16.6076 10.9577 16.6076C10.947 16.6076 10.9363 16.604 10.9291 16.6005C10.922 16.5934 10.9148 16.5862 10.9112 16.5756C10.9077 16.5649 10.9077 16.5542 10.9112 16.5436C10.9148 16.5329 10.922 16.5223 10.9327 16.5187C10.9756 16.4938 11.015 16.4689 11.0579 16.4441L11.0829 16.4298C11.1509 16.3907 11.2189 16.3481 11.2868 16.309L11.7769 16.0246C11.9271 15.9357 12.0773 15.8469 12.2133 15.7509C12.2776 15.7082 12.3385 15.662 12.3957 15.6087C12.41 15.5945 12.4279 15.5803 12.4386 15.5625L12.4601 15.5412L12.4386 15.5163C12.4243 15.4985 12.41 15.4843 12.3921 15.4701C12.3349 15.4203 12.2741 15.3705 12.2097 15.3279C12.0666 15.2283 11.9092 15.1359 11.7733 15.0542L11.1652 14.7022C11.1509 14.6951 11.1437 14.6845 11.1366 14.6702C11.1294 14.656 11.1259 14.6418 11.1259 14.6276C11.1259 14.6134 11.1294 14.5991 11.1366 14.5849C11.1437 14.5707 11.1545 14.5636 11.1652 14.5529L11.7554 14.2117C11.9307 14.1086 12.0988 14.0091 12.2562 13.8989C12.3277 13.8491 12.3993 13.7958 12.4637 13.7353C12.4815 13.7176 12.4994 13.6998 12.5173 13.6785L12.5388 13.6536L12.5137 13.6251C12.4994 13.6074 12.4815 13.5896 12.4637 13.5718C12.3993 13.5114 12.3277 13.4581 12.2562 13.4083C12.0988 13.2981 11.9235 13.195 11.7554 13.099L11.1974 12.7756C11.1187 12.7294 11.04 12.6831 10.9613 12.6369C10.9041 12.6014 10.8469 12.5694 10.786 12.5338C10.7753 12.5267 10.7682 12.5161 10.7646 12.5054C10.761 12.4947 10.761 12.4805 10.7646 12.4699C10.7682 12.4592 10.7789 12.4485 10.7896 12.4414C10.8075 12.4414 10.8182 12.4414 10.8325 12.4414C10.8934 12.4556 10.9577 12.4663 11.0364 12.4876C11.1402 12.5125 11.2367 12.5374 11.3441 12.5694C11.3941 12.5836 11.4442 12.6014 11.4979 12.6156C11.5372 12.6298 11.5766 12.644 11.6159 12.6547L11.6481 12.6654C11.7483 12.7009 11.8484 12.7365 11.9486 12.7791C12.1489 12.8573 12.342 12.9533 12.528 13.0635C12.6282 13.1204 12.7212 13.1879 12.8106 13.2626C12.8607 13.3052 12.9072 13.355 12.9465 13.4048L12.9501 13.4083C12.9537 13.4119 12.9573 13.419 12.9609 13.4225L12.9644 13.4296C12.968 13.4367 12.9752 13.4439 12.9787 13.4545L12.993 13.483C13.0002 13.4901 13.0038 13.4972 13.0074 13.5078Z" fill="url(#paint5_linear_153_2059)"/>
<g opacity="0.7">
<g filter="url(#filter3_f_153_2059)">
<ellipse cx="15.56" cy="10.9844" rx="1.78849" ry="1.77737" fill="#E66200"/>
</g>
<g filter="url(#filter4_f_153_2059)">
<ellipse cx="6.00944" cy="10.9844" rx="1.78849" ry="1.77737" fill="#E66200"/>
</g>
</g>
<path d="M4.34847 7.72143C4.63213 7.43491 6.39487 5.77663 8.0392 6.96213C8.09312 7.00337 8.1331 7.05997 8.15381 7.12437C8.17451 7.18877 8.17496 7.25792 8.1551 7.32258C8.14303 7.36771 8.11692 7.40789 8.08049 7.43739C8.04407 7.46688 7.99919 7.48418 7.95228 7.48681C7.43613 7.538 6.48751 6.91379 4.97266 7.80496C4.84065 7.88473 4.71312 7.97159 4.59064 8.06517C4.50121 8.13164 4.35849 8.21091 4.27193 8.12098C4.19788 8.0442 4.21756 7.94324 4.24939 7.86646C4.27281 7.81227 4.30644 7.76304 4.34847 7.72143Z" fill="#42210B"/>
<path d="M17.1905 7.72143C16.9064 7.43491 15.1437 5.77663 13.4997 6.96213C13.4457 7.0033 13.4057 7.0599 13.385 7.12432C13.3643 7.18875 13.3639 7.25793 13.3838 7.32258C13.3958 7.36774 13.4219 7.40795 13.4584 7.43745C13.4948 7.46696 13.5397 7.48424 13.5866 7.48681C14.1024 7.538 15.0514 6.91379 16.5663 7.80496C16.6982 7.8849 16.8257 7.97176 16.9483 8.06517C17.0377 8.13164 17.1804 8.21091 17.267 8.12098C17.341 8.0442 17.3214 7.94324 17.2892 7.86646C17.2659 7.8123 17.2324 7.76308 17.1905 7.72143Z" fill="#42210B"/>
<path d="M8.64142 10.7901C8.51512 10.7186 8.37979 10.6641 8.23901 10.628C7.6996 10.4859 7.17736 10.6391 6.70699 10.9106C6.18082 11.2142 5.70544 10.4045 6.23089 10.1012C7.21027 9.53603 8.47831 9.43472 9.39867 10.1745C9.85867 10.5442 9.23305 11.1801 8.76769 10.8641C8.72695 10.8369 8.6848 10.8119 8.64142 10.7891V10.7901Z" fill="url(#paint6_radial_153_2059)"/>
<path d="M8.64142 10.7901C8.51512 10.7186 8.37979 10.6641 8.23901 10.628C7.6996 10.4859 7.17736 10.6391 6.70699 10.9106C6.18082 11.2142 5.70544 10.4045 6.23089 10.1012C7.21027 9.53603 8.47831 9.43472 9.39867 10.1745C9.85867 10.5442 9.23305 11.1801 8.76769 10.8641C8.72695 10.8369 8.6848 10.8119 8.64142 10.7891V10.7901Z" stroke="url(#paint7_linear_153_2059)" stroke-width="0.0715397" stroke-miterlimit="10"/>
<path d="M14.6183 10.7901C14.4919 10.7187 14.3566 10.6642 14.2159 10.628C13.6765 10.4859 13.1542 10.6391 12.6835 10.9106C12.1577 11.2142 11.6819 10.4045 12.2074 10.1012C13.1871 9.53603 14.4548 9.43472 15.3752 10.1745C15.8355 10.5442 15.2099 11.1801 14.7442 10.8641C14.7035 10.837 14.6615 10.8119 14.6183 10.7891V10.7901Z" fill="url(#paint8_radial_153_2059)"/>
<path d="M14.6183 10.7901C14.4919 10.7187 14.3566 10.6642 14.2159 10.628C13.6765 10.4859 13.1542 10.6391 12.6835 10.9106C12.1577 11.2142 11.6819 10.4045 12.2074 10.1012C13.1871 9.53603 14.4548 9.43472 15.3752 10.1745C15.8355 10.5442 15.2099 11.1801 14.7442 10.8641C14.7035 10.837 14.6615 10.8119 14.6183 10.7891V10.7901Z" stroke="url(#paint9_linear_153_2059)" stroke-width="0.0715397" stroke-miterlimit="10"/>
<mask id="mask1_153_2059" style="mask-type:alpha" maskUnits="userSpaceOnUse" x="2" y="1" width="18" height="19">
<path d="M10.7732 19.1368C15.5377 19.1368 19.4002 15.2984 19.4002 10.5635C19.4002 5.82863 15.5377 1.99023 10.7732 1.99023C6.00866 1.99023 2.14624 5.82863 2.14624 10.5635C2.14624 15.2984 6.00866 19.1368 10.7732 19.1368Z" fill="url(#paint10_radial_153_2059)"/>
</mask>
<g mask="url(#mask1_153_2059)">
<g filter="url(#filter5_f_153_2059)">
<path d="M17.5931 15.649L12.6453 14.6377L12.463 15.5186L17.4108 16.5299L17.5931 15.649Z" fill="#712900"/>
</g>
</g>
<mask id="mask2_153_2059" style="mask-type:alpha" maskUnits="userSpaceOnUse" x="10" y="8" width="13" height="9">
<path fill-rule="evenodd" clip-rule="evenodd" d="M12.0589 12.7967H16.8119V8.99316H23.0001V15.7827H12.8552C12.8514 15.7884 12.8478 15.7934 12.8441 15.7983C12.8075 15.8461 12.7659 15.8898 12.7199 15.9288C12.6418 15.9951 12.558 16.0545 12.4696 16.1065C12.305 16.2022 12.1334 16.2854 11.9563 16.3553C11.8608 16.3941 11.771 16.4268 11.6923 16.4542C11.6837 16.4572 11.675 16.4602 11.6662 16.4633C11.595 16.4881 11.5185 16.5149 11.4258 16.5402C11.3217 16.5686 11.2351 16.5917 11.1529 16.6113C11.086 16.6276 11.0287 16.6401 10.974 16.6507C10.9682 16.6518 10.9624 16.6524 10.9565 16.6525C10.939 16.6525 10.9219 16.6473 10.9074 16.6376C10.8929 16.6278 10.8817 16.6139 10.8753 16.5978C10.8679 16.5793 10.8674 16.5588 10.874 16.54C10.8806 16.5212 10.8937 16.5053 10.9111 16.4954C10.9532 16.4694 10.9959 16.4438 11.0384 16.4184C11.0464 16.4136 11.0544 16.4088 11.0624 16.404C11.1303 16.3632 11.199 16.3234 11.2673 16.2839L11.7577 15.9995C11.9015 15.9149 12.0539 15.8243 12.1923 15.7286C12.2552 15.6866 12.3149 15.6401 12.3712 15.5897C12.3858 15.5763 12.3996 15.5622 12.4127 15.5474C12.3998 15.5322 12.386 15.518 12.3712 15.5047C12.315 15.4542 12.2552 15.4077 12.1923 15.3657C12.0564 15.2726 11.9094 15.1837 11.7577 15.0948L11.2534 14.803L11.1507 14.7429C11.1328 14.7325 11.1179 14.7176 11.1075 14.6996C11.0972 14.6817 11.0917 14.6614 11.0917 14.6407C11.0917 14.62 11.0972 14.5997 11.1075 14.5818C11.1179 14.5639 11.1328 14.549 11.1507 14.5385L11.7413 14.1969C11.9055 14.1002 12.0789 13.9971 12.2388 13.8869C12.3108 13.8384 12.3793 13.7849 12.4438 13.727C12.4618 13.7107 12.4786 13.6932 12.4942 13.6747L12.4971 13.6715L12.4924 13.6662C12.4774 13.6485 12.4611 13.6319 12.4438 13.6164C12.3791 13.5584 12.3105 13.5048 12.2385 13.4561C12.0829 13.3491 11.9144 13.2485 11.7409 13.1465L11.1818 12.823C11.1035 12.7775 11.0252 12.7316 10.9468 12.6847C10.8889 12.6504 10.8309 12.6154 10.773 12.5799C10.7552 12.5693 10.7417 12.5527 10.7352 12.5332C10.7286 12.5136 10.7293 12.4923 10.7372 12.4732C10.7452 12.4537 10.7597 12.4375 10.7784 12.4275C10.7971 12.4175 10.8187 12.4143 10.8395 12.4185C10.9 12.4299 10.964 12.4437 11.0459 12.4633C11.1382 12.485 11.2369 12.5105 11.3568 12.5461C11.4083 12.5614 11.4591 12.577 11.5098 12.5934C11.5499 12.6058 11.5896 12.6193 11.6292 12.6328L11.6293 12.6328L11.6615 12.6438C11.762 12.6783 11.8633 12.7164 11.9627 12.7569C11.9949 12.7698 12.027 12.7831 12.0589 12.7967Z" fill="white"/>
</mask>
<g mask="url(#mask2_153_2059)">
<path d="M22.7755 12.01C22.7755 12.0566 22.773 12.1028 22.7715 12.149C22.7709 12.2418 22.7643 12.3344 22.7519 12.4263C22.7087 12.7973 22.5974 13.1573 22.4235 13.4885C22.2035 13.9047 21.8922 14.2664 21.5126 14.547C21.133 14.8277 20.6948 15.02 20.2305 15.1098C20.044 15.1457 19.8548 15.1655 19.6649 15.1691H15.7209V14.2698H19.6649C20.216 14.2754 20.7506 14.0834 21.1708 13.7291C21.3817 13.5517 21.559 13.3384 21.6945 13.0992C21.8294 12.8586 21.9183 12.5953 21.9567 12.3225C21.9977 12.0516 21.9864 11.7755 21.9234 11.5088C21.8585 11.2432 21.7403 10.9933 21.5761 10.7741C21.4105 10.5521 21.2016 10.3655 20.962 10.2254C20.7223 10.0852 20.4568 9.99439 20.1811 9.95825C19.9067 9.91815 19.6267 9.93964 19.3617 10.0211C19.0967 10.1027 18.8534 10.2421 18.6498 10.4292C18.2338 10.7968 18.0102 11.3656 18.046 11.9201C18.0654 12.196 18.1532 12.4629 18.3017 12.6968C18.4531 12.9316 18.6591 13.1266 18.9023 13.2656C19.1497 13.4009 19.4259 13.4757 19.7082 13.4838C19.744 13.4838 19.778 13.481 19.8127 13.4806C19.8474 13.4808 19.8821 13.478 19.9164 13.4725L20.0201 13.4586L20.1214 13.4344L20.1721 13.4227L20.2215 13.4049C20.2541 13.3928 20.2873 13.3832 20.3199 13.3694C20.384 13.3419 20.4463 13.3105 20.5066 13.2755C20.5674 13.2406 20.6258 13.2018 20.6815 13.1593C20.7094 13.1383 20.7337 13.1134 20.7609 13.0907L20.8006 13.0551C20.8131 13.0427 20.8246 13.0295 20.8364 13.0171C20.9352 12.9166 21.0195 12.803 21.0868 12.6794C21.1527 12.5558 21.2026 12.4244 21.2352 12.2884L21.2528 12.1839L21.2617 12.1316L21.2653 12.079L21.2721 11.9724L21.2685 11.8679C21.2603 11.7286 21.2305 11.5914 21.1801 11.4612C21.1285 11.3307 21.0583 11.2082 20.9716 11.0975C20.8817 10.9888 20.7769 10.8931 20.6604 10.8132C20.5424 10.7341 20.413 10.6733 20.2766 10.6329C20.1396 10.5921 19.9971 10.5727 19.8542 10.5753C19.8184 10.5778 19.7826 10.5753 19.749 10.581L19.6438 10.5956L19.5408 10.6198C19.505 10.628 19.4739 10.6425 19.4403 10.6532C19.1707 10.7527 18.9435 10.9408 18.7964 11.1864C18.7234 11.3094 18.6714 11.4436 18.6426 11.5835C18.6134 11.7233 18.6097 11.8672 18.6319 12.0083C18.678 12.293 18.8315 12.5496 19.0611 12.726C19.1744 12.8144 19.3032 12.8811 19.441 12.9225C19.5802 12.9632 19.7259 12.977 19.8702 12.9631C20.1622 12.9226 20.4264 12.7693 20.6053 12.5365C20.695 12.4233 20.7574 12.2913 20.7877 12.1505C20.8168 12.0108 20.8084 11.866 20.7634 11.7306C20.7146 11.5934 20.6333 11.4698 20.5264 11.3704C20.4194 11.271 20.2899 11.1986 20.1489 11.1594C20.0788 11.141 20.0068 11.1307 19.9343 11.1288C19.8625 11.1289 19.7911 11.139 19.7222 11.159C19.5824 11.2023 19.4596 11.2876 19.3708 11.4033C19.2819 11.5189 19.2315 11.6592 19.2264 11.8046C19.2204 11.9494 19.2716 12.0908 19.3691 12.1986C19.4666 12.3064 19.6027 12.3721 19.7483 12.3815C19.8197 12.3876 19.8915 12.3764 19.9576 12.3488C20.0236 12.3212 20.0819 12.278 20.1274 12.223C20.1738 12.1683 20.2056 12.1029 20.2197 12.0328C20.2338 11.9627 20.2299 11.8902 20.2083 11.822C20.1833 11.7552 20.1386 11.6974 20.0801 11.6561C20.0216 11.6149 19.952 11.592 19.8803 11.5906C19.8685 11.5896 19.8575 11.5842 19.8496 11.5755C19.8416 11.5669 19.8372 11.5556 19.8372 11.5438C19.8372 11.5321 19.8416 11.5208 19.8496 11.5121C19.8575 11.5035 19.8685 11.4981 19.8803 11.4971C19.9726 11.4963 20.063 11.5233 20.1396 11.5745C20.2162 11.6257 20.2754 11.6987 20.3095 11.784C20.3402 11.8698 20.3483 11.962 20.3329 12.0518C20.3176 12.1416 20.2793 12.226 20.2219 12.2969C20.1648 12.3688 20.0912 12.4259 20.0072 12.4636C19.9235 12.5013 19.8318 12.5183 19.74 12.513C19.5575 12.5055 19.3852 12.427 19.2604 12.2944C19.134 12.1612 19.0651 11.9841 19.0683 11.801C19.0698 11.6211 19.1283 11.4463 19.2353 11.3012C19.3421 11.1546 19.4921 11.0447 19.6646 10.9866C19.7513 10.9586 19.8417 10.9432 19.9328 10.9408C20.159 10.9398 20.3799 11.0081 20.5655 11.1364C20.7511 11.2647 20.8924 11.4468 20.9702 11.6578C21.0325 11.8294 21.0484 12.0142 21.0163 12.1938C20.9831 12.3712 20.9097 12.5387 20.8017 12.6837C20.6954 12.8272 20.5626 12.9494 20.4104 13.0438C20.2572 13.1402 20.0854 13.2037 19.906 13.2304C19.5423 13.2755 19.1751 13.1798 18.8805 12.9631C18.5838 12.7459 18.3813 12.4248 18.3139 12.0648C18.2498 11.7051 18.313 11.3344 18.4928 11.0158C18.6734 10.6953 18.9589 10.446 19.3019 10.3091C19.3448 10.2938 19.387 10.2736 19.4317 10.2625L19.5651 10.227L19.7018 10.2046C19.7468 10.1971 19.7933 10.1975 19.8388 10.1936C20.0218 10.1854 20.205 10.2056 20.3818 10.2533C20.5589 10.3009 20.7278 10.375 20.8825 10.473C21.0376 10.5725 21.1775 10.6936 21.2982 10.8324C21.416 10.9741 21.5124 11.1322 21.5843 11.3016C21.6553 11.4716 21.6996 11.6514 21.7156 11.8348L21.7238 11.9731L21.7192 12.1096L21.716 12.1775L21.7067 12.2454C21.7002 12.2909 21.6942 12.336 21.6866 12.3812C21.6499 12.5607 21.5898 12.7346 21.5078 12.8987C21.4244 13.0627 21.3185 13.2144 21.193 13.3495C21.1773 13.3662 21.1626 13.385 21.1465 13.4007L21.0961 13.4476C21.0603 13.4785 21.0288 13.5112 20.9927 13.54C20.921 13.5984 20.8455 13.6519 20.7666 13.7003C20.6879 13.7493 20.6059 13.7929 20.5213 13.8308C20.4787 13.8496 20.4347 13.8645 20.3914 13.8813L20.326 13.9058L20.2583 13.9243C20.2136 13.936 20.1682 13.9488 20.1231 13.9598L19.9854 13.9826C19.9395 13.9908 19.893 13.9956 19.8463 13.9971C19.7998 13.9996 19.7533 14.0039 19.7068 14.0046C19.3341 14.0071 18.9667 13.9174 18.6375 13.7436C18.3084 13.5699 18.0279 13.3175 17.8214 13.0093C17.6119 12.6989 17.4832 12.3418 17.4468 11.9699C17.4147 11.6005 17.4652 11.2287 17.5946 10.8811C17.6267 10.7941 17.6639 10.7091 17.7062 10.6265C17.7259 10.5846 17.7482 10.544 17.7731 10.505L17.8446 10.3859C17.899 10.3109 17.9519 10.2341 18.0113 10.1623L18.1039 10.0585L18.1508 10.0066L18.2016 9.95931C18.4718 9.69863 18.7971 9.50109 19.1538 9.38106C19.5106 9.26103 19.8897 9.22153 20.2637 9.26543C20.6363 9.30412 20.997 9.41743 21.3243 9.59851C21.6534 9.78063 21.9426 10.0263 22.1748 10.3211C22.407 10.6159 22.5775 10.9538 22.6764 11.3151L22.7122 11.4512L22.7358 11.5899L22.7583 11.7292C22.7626 11.7758 22.7651 11.8227 22.768 11.8696L22.7755 12.01Z" fill="url(#paint11_linear_153_2059)"/>
<path d="M15.9257 14.2695H10.8743V15.1689H15.9257V14.2695Z" fill="url(#paint12_linear_153_2059)"/>
<g style="mix-blend-mode:soft-light">
<path style="mix-blend-mode:soft-light" d="M11.8003 15.1689H11.1912L10.8743 14.8539V14.2695H10.8954L11.8003 15.1689Z" fill="url(#paint13_linear_153_2059)"/>
<path style="mix-blend-mode:soft-light" d="M13.0917 15.1689H12.4825L11.5779 14.2695H12.187L13.0917 15.1689Z" fill="url(#paint14_linear_153_2059)"/>
<path style="mix-blend-mode:soft-light" d="M14.3829 15.1689H13.7741L12.8691 14.2695H13.4783L14.3829 15.1689Z" fill="url(#paint15_linear_153_2059)"/>
<path style="mix-blend-mode:soft-light" d="M15.6745 15.1689H15.0654L14.1604 14.2695H14.7696L15.6745 15.1689Z" fill="url(#paint16_linear_153_2059)"/>
</g>
<path d="M15.4316 14.1816H15.2363V15.258H15.4316V14.1816Z" fill="url(#paint17_linear_153_2059)"/>
<path d="M16.141 14.4038V15.0355C16.141 15.0945 16.1174 15.1511 16.0754 15.1928C16.0334 15.2346 15.9764 15.258 15.917 15.258H15.4316V14.1816H15.917C15.9464 14.1816 15.9755 14.1873 16.0027 14.1985C16.0299 14.2096 16.0546 14.226 16.0754 14.2466C16.0961 14.2672 16.1126 14.2917 16.1239 14.3187C16.1352 14.3457 16.141 14.3746 16.141 14.4038Z" fill="url(#paint18_linear_153_2059)"/>
<mask id="mask3_153_2059" style="mask-type:alpha" maskUnits="userSpaceOnUse" x="15" y="9" width="8" height="7">
<path d="M22.7576 12.0042C22.7576 12.0507 22.7551 12.097 22.7537 12.1432C22.7531 12.2359 22.7465 12.3285 22.734 12.4204C22.6909 12.7915 22.5796 13.1515 22.4057 13.4826C22.1856 13.8988 21.8743 14.2606 21.4948 14.5412C21.1152 14.8218 20.677 15.0141 20.2126 15.1039C20.0262 15.1398 19.837 15.1597 19.6471 15.1633H15.7031V14.2639H19.6471C20.1982 14.2695 20.7328 14.0775 21.153 13.7232C21.3638 13.5459 21.5412 13.3326 21.6767 13.0934C21.8115 12.8527 21.9004 12.5894 21.9389 12.3166C21.9799 12.0458 21.9686 11.7696 21.9056 11.503C21.8406 11.2374 21.7225 10.9875 21.5583 10.7682C21.3926 10.5463 21.1838 10.3597 20.9441 10.2195C20.7045 10.0794 20.4389 9.98853 20.1633 9.95239C19.8888 9.91229 19.6088 9.93378 19.3439 10.0153C19.0789 10.0968 18.8356 10.2362 18.632 10.4234C18.216 10.7909 17.9924 11.3597 18.0282 11.9142C18.0475 12.1902 18.1354 12.457 18.2839 12.691C18.4353 12.9257 18.6413 13.1208 18.8845 13.2597C19.1319 13.3951 19.4081 13.4699 19.6904 13.478C19.7262 13.478 19.7601 13.4751 19.7948 13.4748C19.8296 13.4749 19.8643 13.4722 19.8986 13.4666L20.0023 13.4527L20.1035 13.4286L20.1543 13.4168L20.2037 13.3991C20.2362 13.387 20.2695 13.3774 20.3021 13.3635C20.3661 13.336 20.4285 13.3047 20.4888 13.2697C20.5495 13.2347 20.608 13.1959 20.6637 13.1534C20.6916 13.1325 20.7159 13.1076 20.7431 13.0848L20.7828 13.0493C20.7953 13.0368 20.8068 13.0237 20.8186 13.0112C20.9174 12.9108 21.0017 12.7971 21.069 12.6735C21.1349 12.55 21.1848 12.4186 21.2174 12.2825L21.2349 12.178L21.2439 12.1258L21.2474 12.0731L21.2542 11.9665L21.2507 11.862C21.2425 11.7227 21.2127 11.5855 21.1623 11.4553C21.1107 11.3248 21.0405 11.2023 20.9538 11.0917C20.8639 10.983 20.7591 10.8872 20.6426 10.8073C20.5246 10.7282 20.3952 10.6675 20.2588 10.6271C20.1218 10.5863 19.9793 10.5668 19.8363 10.5695C19.8006 10.572 19.7648 10.5695 19.7312 10.5752L19.626 10.5898L19.523 10.6139C19.4872 10.6221 19.4561 10.6367 19.4225 10.6473C19.1529 10.7468 18.9257 10.935 18.7786 11.1805C18.7055 11.3035 18.6536 11.4377 18.6248 11.5776C18.5955 11.7174 18.5919 11.8613 18.6141 12.0024C18.6602 12.2871 18.8137 12.5438 19.0433 12.7201C19.1565 12.8085 19.2854 12.8752 19.4232 12.9167C19.5623 12.9574 19.7081 12.9711 19.8524 12.9572C20.1444 12.9167 20.4085 12.7635 20.5875 12.5306C20.6772 12.4175 20.7396 12.2854 20.7699 12.1446C20.799 12.005 20.7906 11.8602 20.7456 11.7248C20.6968 11.5875 20.6155 11.464 20.5085 11.3646C20.4016 11.2651 20.2721 11.1928 20.1311 11.1535C20.061 11.1351 19.9889 11.1249 19.9165 11.123C19.8447 11.123 19.7732 11.1332 19.7043 11.1532C19.5646 11.1964 19.4418 11.2818 19.3529 11.3974C19.2641 11.5131 19.2137 11.6533 19.2086 11.7987C19.2026 11.9436 19.2538 12.085 19.3513 12.1928C19.4488 12.3006 19.5849 12.3662 19.7305 12.3756C19.8019 12.3818 19.8737 12.3705 19.9397 12.3429C20.0058 12.3153 20.0641 12.2721 20.1096 12.2171C20.156 12.1625 20.1877 12.097 20.2019 12.0269C20.216 11.9568 20.2121 11.8843 20.1905 11.8161C20.1654 11.7493 20.1208 11.6915 20.0623 11.6503C20.0038 11.609 19.9342 11.5862 19.8624 11.5847C19.8507 11.5837 19.8397 11.5783 19.8317 11.5697C19.8238 11.561 19.8193 11.5497 19.8193 11.538C19.8193 11.5262 19.8238 11.5149 19.8317 11.5063C19.8397 11.4976 19.8507 11.4923 19.8624 11.4912C19.9548 11.4904 20.0452 11.5174 20.1218 11.5686C20.1984 11.6198 20.2576 11.6928 20.2917 11.7781C20.3224 11.8639 20.3304 11.9561 20.3151 12.0459C20.2997 12.1357 20.2615 12.2201 20.204 12.291C20.147 12.3629 20.0734 12.4201 19.9894 12.4578C19.9057 12.4955 19.814 12.5124 19.7222 12.5072C19.5397 12.4996 19.3674 12.4211 19.2425 12.2886C19.1162 12.1553 19.0472 11.9782 19.0505 11.7952C19.052 11.6153 19.1104 11.4404 19.2175 11.2954C19.3242 11.1487 19.4743 11.0388 19.6467 10.9808C19.7335 10.9527 19.8238 10.9373 19.915 10.9349C20.1411 10.9339 20.362 11.0022 20.5477 11.1306C20.7333 11.2589 20.8746 11.4409 20.9523 11.6519C21.0147 11.8235 21.0306 12.0083 20.9985 12.188C20.9653 12.3653 20.8919 12.5328 20.7839 12.6778C20.6776 12.8214 20.5448 12.9436 20.3925 13.0379C20.2393 13.1343 20.0675 13.1979 19.8882 13.2245C19.5245 13.2696 19.1573 13.1739 18.8627 12.9572C18.566 12.7401 18.3634 12.4189 18.2961 12.0589C18.2319 11.6992 18.2951 11.3285 18.4749 11.0099C18.6556 10.6895 18.9411 10.4401 19.284 10.3032C19.327 10.288 19.3692 10.2677 19.4139 10.2567L19.5473 10.2211L19.6839 10.1987C19.729 10.1913 19.7755 10.1916 19.8209 10.1877C20.004 10.1796 20.1871 10.1997 20.3639 10.2474C20.5411 10.295 20.7099 10.3691 20.8647 10.4671C21.0197 10.5667 21.1597 10.6877 21.2804 10.8265C21.3982 10.9682 21.4946 11.1263 21.5665 11.2957C21.6375 11.4657 21.6818 11.6456 21.6978 11.8289L21.706 11.9672L21.7014 12.1037L21.6981 12.1716L21.6888 12.2395C21.6824 12.285 21.6763 12.3301 21.6688 12.3753C21.632 12.5548 21.5719 12.7288 21.49 12.8929C21.4066 13.0569 21.3006 13.2086 21.1752 13.3436C21.1595 13.3603 21.1448 13.3792 21.1287 13.3948L21.0783 13.4417C21.0425 13.4726 21.011 13.5053 20.9749 13.5341C20.9032 13.5925 20.8277 13.6461 20.7488 13.6945C20.6701 13.7434 20.5881 13.787 20.5034 13.8249C20.4609 13.8438 20.4169 13.8587 20.3736 13.8754L20.3081 13.8999L20.2405 13.9184C20.1958 13.9301 20.1504 13.9429 20.1053 13.954L19.9676 13.9767C19.9216 13.9849 19.8751 13.9898 19.8285 13.9913C19.782 13.9938 19.7355 13.998 19.689 13.9987C19.3163 14.0012 18.9488 13.9115 18.6197 13.7378C18.2906 13.564 18.0101 13.3117 17.8035 13.0034C17.5941 12.6931 17.4654 12.3359 17.429 11.964C17.3969 11.5947 17.4474 11.2229 17.5767 10.8752C17.6088 10.7882 17.6461 10.7032 17.6884 10.6207C17.708 10.5788 17.7304 10.5382 17.7552 10.4991L17.8268 10.38C17.8811 10.305 17.9341 10.2282 17.9935 10.1564L18.0861 10.0526L18.133 10.0007L18.1838 9.95345C18.454 9.69277 18.7793 9.49523 19.136 9.3752C19.4927 9.25517 19.8719 9.21567 20.2459 9.25957C20.6184 9.29826 20.9792 9.41157 21.3065 9.59265C21.6356 9.77477 21.9248 10.0204 22.157 10.3152C22.3892 10.61 22.5597 10.948 22.6586 11.3092L22.6943 11.4454L22.7179 11.584L22.7405 11.7234C22.7448 11.7699 22.7473 11.8168 22.7501 11.8638L22.7576 12.0042Z" fill="url(#paint19_linear_153_2059)"/>
</mask>
<g mask="url(#mask3_153_2059)">
<g filter="url(#filter6_f_153_2059)">
<path d="M16.1326 14.5496L18.2108 14.5532H19.2517C19.5951 14.5568 19.9349 14.5141 20.264 14.411C20.5895 14.3115 20.9007 14.1551 21.1725 13.9524C21.448 13.7498 21.684 13.501 21.8593 13.2095C21.9452 13.0638 22.0096 12.9074 22.0596 12.7474L22.0918 12.6265C22.099 12.6052 22.1026 12.5839 22.1061 12.5661L22.1169 12.5021C22.1347 12.4204 22.1347 12.335 22.1455 12.2497C22.1598 11.912 22.0954 11.5708 21.9917 11.2509C21.9702 11.1691 21.9344 11.0909 21.9022 11.0127C21.8879 10.9736 21.8665 10.9345 21.8486 10.8989C21.8307 10.8598 21.8128 10.8243 21.7914 10.7852L21.727 10.675C21.7162 10.6572 21.7055 10.6394 21.6948 10.6217L21.659 10.5719C21.634 10.5364 21.6089 10.5044 21.5839 10.4688L21.5016 10.3728C21.3872 10.252 21.2548 10.1382 21.1082 10.0529C20.9615 9.96759 20.8041 9.90361 20.6396 9.86095C20.475 9.8183 20.3033 9.80052 20.1352 9.80408C19.9635 9.80763 19.7954 9.82896 19.6273 9.86451C19.4592 9.90361 19.2982 9.95693 19.1444 10.028C18.9906 10.0991 18.8403 10.1844 18.7044 10.2875C18.6686 10.3124 18.6365 10.3408 18.6078 10.3693C18.5756 10.3977 18.547 10.4262 18.5148 10.4581C18.5005 10.4724 18.4862 10.4901 18.4719 10.5044L18.4218 10.5506C18.4075 10.5683 18.3968 10.5861 18.3861 10.6003C18.3753 10.6181 18.361 10.6359 18.3503 10.6537L18.3217 10.707C18.311 10.7248 18.3038 10.7461 18.2931 10.7639L18.243 10.8847C18.2108 10.9629 18.175 11.0411 18.1464 11.1229C18.0856 11.2828 18.0319 11.4464 17.9998 11.6134C17.9819 11.6952 17.9711 11.7805 17.9604 11.8658C17.9533 11.9511 17.9533 12.0364 17.9568 12.1182C17.964 12.2035 17.9747 12.2853 17.9962 12.367C18.0176 12.4488 18.0427 12.5306 18.0784 12.6052C18.1464 12.7581 18.2466 12.8967 18.361 13.0211C18.4755 13.1455 18.6078 13.2557 18.7473 13.3517C18.8868 13.4512 19.0335 13.5365 19.1945 13.597C19.5128 13.7214 19.8669 13.7392 20.196 13.6539C20.5251 13.5685 20.8291 13.3837 21.0581 13.1313C21.2834 12.8789 21.4337 12.5519 21.4444 12.2142C21.4515 12.0436 21.4229 11.8765 21.3693 11.7165L21.3228 11.5992L21.2691 11.4819L21.2083 11.3682L21.1439 11.258C21.0545 11.1122 20.9436 10.9807 20.8148 10.8669C20.7826 10.8385 20.7505 10.8136 20.7147 10.7852C20.6789 10.7603 20.6467 10.7354 20.6074 10.7141C20.5358 10.6679 20.4571 10.6323 20.3784 10.6039C20.2998 10.5755 20.2175 10.5541 20.1316 10.5399C20.0458 10.5257 19.9635 10.5186 19.8777 10.5221C19.706 10.5257 19.5379 10.5541 19.3733 10.6074C19.291 10.6323 19.2124 10.6643 19.1337 10.7034C19.055 10.739 18.9834 10.7816 18.919 10.8385C18.7903 10.9487 18.6937 11.0944 18.6257 11.2473C18.5578 11.4037 18.5113 11.5708 18.5041 11.7379C18.4934 11.9085 18.5184 12.0791 18.5828 12.2355C18.6472 12.3919 18.7473 12.5341 18.8725 12.6479C18.9977 12.7652 19.148 12.8505 19.3054 12.918C19.4627 12.9856 19.6309 13.0282 19.8026 13.0318C19.9742 13.0353 20.1459 12.9927 20.2926 12.9074C20.4428 12.822 20.568 12.7012 20.6646 12.5625C20.7111 12.4915 20.754 12.4168 20.7826 12.3386C20.8113 12.2604 20.8148 12.1715 20.8148 12.0898C20.8148 11.9191 20.7826 11.7485 20.7111 11.5921C20.6753 11.5139 20.6253 11.4428 20.568 11.3824C20.5072 11.3219 20.4357 11.2722 20.3606 11.2402C20.2819 11.2046 20.1996 11.1833 20.1138 11.1726C20.0279 11.162 19.9421 11.162 19.8562 11.1691C19.8133 11.1726 19.7704 11.1798 19.7274 11.1833C19.6845 11.1869 19.6416 11.1975 19.6022 11.2118C19.52 11.2366 19.4413 11.2686 19.3697 11.3148C19.2982 11.361 19.2338 11.4215 19.1909 11.4926C19.1444 11.5637 19.1193 11.6454 19.1122 11.7307C19.105 11.8161 19.1158 11.9014 19.1372 11.9831C19.1587 12.0649 19.1909 12.1466 19.2338 12.2177C19.2767 12.2888 19.3375 12.3528 19.4127 12.3955C19.4878 12.4381 19.57 12.4595 19.6559 12.463C19.824 12.463 20.0064 12.4239 20.1281 12.3031C20.1889 12.2426 20.2318 12.168 20.2533 12.0862C20.264 12.0436 20.2676 12.0009 20.264 11.9618C20.2604 11.9191 20.2533 11.8765 20.2389 11.8374C20.2103 11.7556 20.1567 11.6881 20.0887 11.6348C20.0207 11.5814 19.9421 11.5459 19.8598 11.521L19.8634 11.5103C19.9456 11.5352 20.0279 11.5708 20.0959 11.6241C20.1638 11.6774 20.2211 11.7485 20.2497 11.8303C20.264 11.8729 20.2711 11.9156 20.2747 11.9582C20.2747 12.0009 20.2747 12.0471 20.264 12.0898C20.2425 12.1751 20.1996 12.2533 20.1352 12.3137C20.0744 12.3777 19.9957 12.4204 19.9099 12.4452C19.8276 12.4701 19.7382 12.4843 19.6523 12.4808C19.5665 12.4772 19.477 12.4559 19.4019 12.4133C19.3268 12.3706 19.2624 12.3031 19.2195 12.2284C19.1766 12.1538 19.1408 12.072 19.1193 11.9867C19.0979 11.9014 19.0836 11.8161 19.0907 11.7272C19.0979 11.6419 19.1229 11.553 19.1694 11.4784C19.2159 11.4037 19.2839 11.3433 19.3554 11.2935C19.4305 11.2473 19.5092 11.2118 19.5951 11.1869C19.638 11.1762 19.6809 11.1655 19.7239 11.1584C19.7668 11.1513 19.8097 11.1442 19.8526 11.1442C19.9385 11.1371 20.0279 11.1371 20.1138 11.1478C20.1996 11.1584 20.2854 11.1798 20.3677 11.2153C20.4464 11.2509 20.5215 11.3006 20.5823 11.3646C20.6431 11.4286 20.6932 11.4997 20.7326 11.5779C20.8077 11.7343 20.8399 11.912 20.8399 12.0862C20.8399 12.1289 20.8363 12.1715 20.8327 12.2177C20.8291 12.2604 20.822 12.3066 20.8041 12.3457C20.7755 12.4275 20.7326 12.5057 20.6825 12.5768C20.5823 12.719 20.4536 12.8434 20.3033 12.9322C20.1495 13.0211 19.9742 13.0638 19.799 13.0602C19.6237 13.0602 19.4484 13.014 19.291 12.9465C19.1301 12.8789 18.9763 12.7901 18.8475 12.6727C18.7152 12.5554 18.6114 12.4097 18.547 12.2462C18.4826 12.0827 18.454 11.9049 18.4648 11.7307C18.4719 11.5566 18.5184 11.3859 18.5864 11.226C18.6579 11.066 18.7581 10.9203 18.8904 10.803C18.9548 10.7425 19.0335 10.6963 19.1122 10.6608C19.1909 10.6217 19.2732 10.5897 19.3554 10.5612C19.52 10.5079 19.6952 10.4759 19.8705 10.4724C19.9599 10.4688 20.0458 10.4759 20.1316 10.4901C20.2175 10.5044 20.3033 10.5257 20.3856 10.5541C20.4679 10.5826 20.5501 10.6217 20.6253 10.6679C20.6646 10.6892 20.7004 10.7141 20.7361 10.739C20.7719 10.7674 20.8077 10.7923 20.8399 10.8207C20.9722 10.938 21.0831 11.0731 21.1761 11.2189L21.2441 11.3326L21.3049 11.4464L21.3585 11.5637L21.405 11.6845C21.4623 11.8516 21.4909 12.0258 21.4837 12.2C21.473 12.5519 21.3192 12.8896 21.0867 13.1491C20.8542 13.4121 20.5394 13.6005 20.1996 13.6894C19.8598 13.7783 19.4914 13.7605 19.1623 13.6325C18.9977 13.5685 18.8439 13.4797 18.7008 13.3801C18.5578 13.2806 18.4218 13.1704 18.3038 13.0389C18.1858 12.9109 18.0784 12.7652 18.0069 12.6052C17.9676 12.527 17.9425 12.4417 17.9175 12.3564C17.896 12.2711 17.8817 12.1822 17.8746 12.0969C17.871 12.008 17.871 11.9227 17.8781 11.8338C17.8853 11.745 17.896 11.6596 17.9175 11.5743C17.9533 11.4037 18.0069 11.2366 18.0677 11.0731C18.0999 10.9914 18.1321 10.9132 18.1643 10.8314L18.2179 10.7141C18.2287 10.6928 18.2358 10.675 18.2466 10.6537L18.2788 10.5932C18.2895 10.5719 18.3038 10.5541 18.3145 10.5364C18.3288 10.5186 18.3396 10.5008 18.3539 10.483L18.3968 10.4333C18.4111 10.4155 18.4254 10.3977 18.4397 10.3835C18.4719 10.3515 18.5005 10.3195 18.5363 10.2911C18.5685 10.2626 18.6007 10.2342 18.6365 10.2058C18.776 10.0991 18.9298 10.0103 19.0872 9.93916C19.2481 9.86806 19.4127 9.80763 19.5844 9.76853C19.7561 9.72943 19.9313 9.7081 20.1066 9.70454C20.2819 9.70099 20.4607 9.71876 20.6324 9.76142C20.8041 9.80408 20.9686 9.87162 21.1225 9.96048C21.2763 10.0494 21.4122 10.1667 21.5338 10.2911L21.6197 10.3906C21.6483 10.4262 21.6733 10.4617 21.6984 10.4972L21.7377 10.5506C21.7484 10.5683 21.7592 10.5897 21.7735 10.6074L21.8414 10.7212C21.8629 10.7603 21.8808 10.7994 21.8987 10.8385C21.9166 10.8776 21.938 10.9167 21.9523 10.9558C21.9845 11.0376 22.0203 11.1158 22.0453 11.2011C22.1526 11.5317 22.2206 11.88 22.2063 12.232C22.1991 12.3208 22.1956 12.4061 22.1777 12.495L22.1669 12.559C22.1634 12.5803 22.1598 12.6017 22.1526 12.623L22.1204 12.7509C22.0704 12.918 22.0024 13.0815 21.913 13.2344C21.7341 13.5365 21.4873 13.796 21.2047 14.0058C20.9221 14.2155 20.6038 14.3755 20.2711 14.4786C19.9349 14.5852 19.5808 14.6314 19.2338 14.6278H18.1929L16.1326 14.6563V14.5496Z" fill="white"/>
</g>
</g>
<mask id="mask4_153_2059" style="mask-type:alpha" maskUnits="userSpaceOnUse" x="10" y="14" width="7" height="2">
<path d="M16.1324 14.2539H10.8743V15.1781H16.1324V14.2539Z" fill="url(#paint20_linear_153_2059)"/>
</mask>
<g mask="url(#mask4_153_2059)">
<g filter="url(#filter7_f_153_2059)">
<path d="M16.025 14.6094H10.5522" stroke="white" stroke-width="0.107309"/>
</g>
</g>
</g>
<mask id="mask5_153_2059" style="mask-type:alpha" maskUnits="userSpaceOnUse" x="10" y="12" width="7" height="5">
<path fill-rule="evenodd" clip-rule="evenodd" d="M12.5475 13.0437C12.5805 13.063 12.613 13.0831 12.6448 13.1041V12.939H16.0072L16.4185 16.1205H12.4459C12.2886 16.2104 12.125 16.289 11.9563 16.3557C11.8608 16.3944 11.771 16.4271 11.6923 16.4545L11.6662 16.4636C11.595 16.4884 11.5185 16.5152 11.4258 16.5405C11.3217 16.5689 11.2351 16.592 11.1529 16.6116C11.086 16.6279 11.0287 16.6404 10.974 16.6511C10.9682 16.6522 10.9624 16.6528 10.9565 16.6528C10.939 16.6528 10.9219 16.6476 10.9074 16.6379C10.8929 16.6281 10.8817 16.6143 10.8753 16.5981C10.8679 16.5796 10.8674 16.5591 10.874 16.5403C10.8806 16.5215 10.8937 16.5057 10.9111 16.4957C10.9532 16.4697 10.9958 16.4442 11.0383 16.4187L11.0384 16.4187L11.0624 16.4044C11.1303 16.3635 11.199 16.3237 11.2673 16.2842L11.7577 15.9998C11.9015 15.9152 12.0539 15.8246 12.1923 15.729C12.2552 15.6869 12.3149 15.6404 12.3712 15.59C12.3858 15.5766 12.3996 15.5625 12.4127 15.5477C12.3998 15.5326 12.386 15.5183 12.3712 15.505C12.315 15.4545 12.2552 15.408 12.1923 15.366C12.0564 15.2729 11.9094 15.184 11.7577 15.0951L11.2534 14.8033L11.1507 14.7432C11.1328 14.7328 11.1179 14.7179 11.1075 14.6999C11.0972 14.682 11.0917 14.6617 11.0917 14.641C11.0917 14.6204 11.0972 14.6 11.1075 14.5821C11.1179 14.5642 11.1328 14.5493 11.1507 14.5388L11.7413 14.1972C11.9055 14.1005 12.0789 13.9974 12.2388 13.8872C12.3108 13.8387 12.3793 13.7852 12.4438 13.7273C12.4618 13.711 12.4786 13.6935 12.4942 13.675L12.4971 13.6718L12.4924 13.6665C12.4774 13.6488 12.4611 13.6322 12.4438 13.6167C12.3791 13.5587 12.3105 13.5051 12.2385 13.4564C12.0829 13.3494 11.9144 13.2488 11.7409 13.1468L11.1818 12.8233C11.1035 12.7778 11.0252 12.732 10.9468 12.685C10.8889 12.6507 10.8309 12.6157 10.773 12.5802C10.7552 12.5696 10.7417 12.553 10.7352 12.5335C10.7286 12.5139 10.7293 12.4926 10.7372 12.4735C10.7452 12.454 10.7597 12.4378 10.7784 12.4278C10.7971 12.4178 10.8187 12.4146 10.8395 12.4188C10.9 12.4302 10.964 12.444 11.0459 12.4636C11.1382 12.4853 11.2369 12.5109 11.3568 12.5464C11.4083 12.5617 11.4591 12.5773 11.5098 12.5937C11.5499 12.6061 11.5896 12.6196 11.6293 12.6331L11.6293 12.6331L11.6615 12.6442C11.762 12.6786 11.8633 12.7167 11.9627 12.7572C12.1646 12.838 12.3601 12.9338 12.5475 13.0437Z" fill="black"/>
</mask>
<g mask="url(#mask5_153_2059)">
<g filter="url(#filter8_f_153_2059)">
<path d="M12.2389 13.8867C12.079 13.9969 11.9056 14.1 11.7414 14.1967L11.1508 14.5383C11.1328 14.5487 11.118 14.5637 11.1076 14.5816C11.0972 14.5995 11.0918 14.6198 11.0918 14.6405C11.0918 14.6612 11.0972 14.6815 11.1076 14.6994C11.118 14.7173 11.1328 14.7323 11.1508 14.7427L11.2535 14.8028L11.7578 15.0946C11.9095 15.1835 12.0565 15.2724 12.1924 15.3655" stroke="url(#paint21_radial_153_2059)" stroke-width="0.286159"/>
</g>
</g>
<mask id="mask6_153_2059" style="mask-type:alpha" maskUnits="userSpaceOnUse" x="10" y="12" width="7" height="5">
<path fill-rule="evenodd" clip-rule="evenodd" d="M12.5475 13.0437C12.5805 13.063 12.613 13.0831 12.6448 13.1041V12.939H16.0072L16.4185 16.1205H12.4459C12.2886 16.2104 12.125 16.289 11.9563 16.3557C11.8608 16.3944 11.771 16.4271 11.6923 16.4545L11.6662 16.4636C11.595 16.4884 11.5185 16.5152 11.4258 16.5405C11.3217 16.5689 11.2351 16.592 11.1529 16.6116C11.086 16.6279 11.0287 16.6404 10.974 16.6511C10.9682 16.6522 10.9624 16.6528 10.9565 16.6528C10.939 16.6528 10.9219 16.6476 10.9074 16.6379C10.8929 16.6281 10.8817 16.6143 10.8753 16.5981C10.8679 16.5796 10.8674 16.5591 10.874 16.5403C10.8806 16.5215 10.8937 16.5057 10.9111 16.4957C10.9532 16.4697 10.9958 16.4442 11.0383 16.4187L11.0384 16.4187L11.0624 16.4044C11.1303 16.3635 11.199 16.3237 11.2673 16.2842L11.7577 15.9998C11.9015 15.9152 12.0539 15.8246 12.1923 15.729C12.2552 15.6869 12.3149 15.6404 12.3712 15.59C12.3858 15.5766 12.3996 15.5625 12.4127 15.5477C12.3998 15.5326 12.386 15.5183 12.3712 15.505C12.315 15.4545 12.2552 15.408 12.1923 15.366C12.0564 15.2729 11.9094 15.184 11.7577 15.0951L11.2534 14.8033L11.1507 14.7432C11.1328 14.7328 11.1179 14.7179 11.1075 14.6999C11.0972 14.682 11.0917 14.6617 11.0917 14.641C11.0917 14.6204 11.0972 14.6 11.1075 14.5821C11.1179 14.5642 11.1328 14.5493 11.1507 14.5388L11.7413 14.1972C11.9055 14.1005 12.0789 13.9974 12.2388 13.8872C12.3108 13.8387 12.3793 13.7852 12.4438 13.7273C12.4618 13.711 12.4786 13.6935 12.4942 13.675L12.4971 13.6718L12.4924 13.6665C12.4774 13.6488 12.4611 13.6322 12.4438 13.6167C12.3791 13.5587 12.3105 13.5051 12.2385 13.4564C12.0829 13.3494 11.9144 13.2488 11.7409 13.1468L11.1818 12.8233C11.1035 12.7778 11.0252 12.732 10.9468 12.685C10.8889 12.6507 10.8309 12.6157 10.773 12.5802C10.7552 12.5696 10.7417 12.553 10.7352 12.5335C10.7286 12.5139 10.7293 12.4926 10.7372 12.4735C10.7452 12.454 10.7597 12.4378 10.7784 12.4278C10.7971 12.4178 10.8187 12.4146 10.8395 12.4188C10.9 12.4302 10.964 12.444 11.0459 12.4636C11.1382 12.4853 11.2369 12.5109 11.3568 12.5464C11.4083 12.5617 11.4591 12.5773 11.5098 12.5937C11.5499 12.6061 11.5896 12.6196 11.6293 12.6331L11.6293 12.6331L11.6615 12.6442C11.762 12.6786 11.8633 12.7167 11.9627 12.7572C12.1646 12.838 12.3601 12.9338 12.5475 13.0437Z" fill="black"/>
</mask>
<g mask="url(#mask6_153_2059)">
<g filter="url(#filter9_f_153_2059)">
<path d="M12.2389 13.8867C12.079 13.9969 11.9056 14.1 11.7414 14.1967L11.1508 14.5383C11.1328 14.5487 11.118 14.5637 11.1076 14.5816C11.0972 14.5995 11.0918 14.6198 11.0918 14.6405C11.0918 14.6612 11.0972 14.6815 11.1076 14.6994C11.118 14.7173 11.1328 14.7323 11.1508 14.7427L11.2535 14.8028L11.7578 15.0946C11.9095 15.1835 12.0565 15.2724 12.1924 15.3655" stroke="url(#paint22_radial_153_2059)" stroke-width="0.429238"/>
</g>
</g>
<path d="M8.16483 2.41174V2.41956C6.94721 2.79836 5.82953 3.44135 4.89262 4.30204C3.95572 5.16273 3.22301 6.21959 2.74749 7.39619C2.67929 7.56444 2.61681 7.73353 2.56006 7.90345L2.39051 7.41041L2.28678 7.10754L1.96485 6.16376L1.66259 5.28325L1.233 4.03625L1.20438 3.95272L0.930026 3.15468L0.643867 2.32003L0.502219 1.90768L0.243245 1.15265L0.199606 1.02539L0.0207567 0.506401C-0.00233838 0.439376 -0.00624772 0.367293 0.00946444 0.298189C0.0251766 0.229085 0.0598928 0.165676 0.109743 0.11503C0.159593 0.0643846 0.222617 0.0284931 0.29179 0.0113571C0.360963 -0.00577876 0.433565 -0.00348574 0.501503 0.0179806L0.921799 0.14915L1.23478 0.246906L1.742 0.404736L2.51606 0.646458L2.8988 0.766252L3.71614 1.02184L4.16111 1.16083L4.87329 1.38335L5.62625 1.61832L5.69206 1.63894L6.84886 2.00046L7.32961 2.15082L7.66763 2.25746L8.16483 2.41174Z" fill="url(#paint23_linear_153_2059)"/>
<path d="M8.16492 2.41131L8.15848 2.42126C6.94205 2.80088 5.82564 3.44425 4.88989 4.30489C3.95415 5.16553 3.22243 6.22197 2.74758 7.39789C2.67938 7.56615 2.6169 7.73523 2.56015 7.90515L2.3906 7.41211L2.28687 7.10924C3.19966 4.90568 4.95071 3.14917 7.15943 2.22149C7.21595 2.19779 7.2727 2.17409 7.3297 2.15039L7.66772 2.25703L8.16492 2.41131Z" fill="#42C5E9"/>
<path d="M1.66031 5.2832C2.51795 3.64412 3.91884 2.34964 5.62612 1.61863L4.87316 1.38366L4.16098 1.16113C2.9751 1.85649 1.96428 2.8113 1.20532 3.95302L1.23394 4.03656L1.66031 5.2832Z" fill="#42C5E9"/>
<path d="M0.643429 2.31948C1.17421 1.66705 1.80576 1.10242 2.51455 0.646622L1.74192 0.4049L1.2347 0.24707C0.881888 0.523948 0.550447 0.826711 0.243164 1.15282L0.502138 1.90784L0.643429 2.31948Z" fill="#42C5E9"/>
<mask id="mask7_153_2059" style="mask-type:alpha" maskUnits="userSpaceOnUse" x="0" y="0" width="9" height="8">
<path d="M8.16483 2.41174V2.41956C6.94721 2.79836 5.82953 3.44135 4.89262 4.30204C3.95572 5.16273 3.22301 6.21959 2.74749 7.39619C2.67929 7.56444 2.61681 7.73353 2.56006 7.90345L2.39051 7.41041L2.28678 7.10754L1.96485 6.16376L1.66259 5.28325L1.233 4.03625L1.20438 3.95272L0.930026 3.15468L0.643867 2.32003L0.502219 1.90768L0.243245 1.15265L0.199606 1.02539L0.0207567 0.506401C-0.00233838 0.439376 -0.00624772 0.367293 0.00946444 0.298189C0.0251766 0.229085 0.0598928 0.165676 0.109743 0.11503C0.159593 0.0643846 0.222617 0.0284931 0.29179 0.0113571C0.360963 -0.00577876 0.433565 -0.00348574 0.501503 0.0179806L0.921799 0.14915L1.23478 0.246906L1.742 0.404736L2.51606 0.646458L2.8988 0.766252L3.71614 1.02184L4.16111 1.16083L4.87329 1.38335L5.62625 1.61832L5.69206 1.63894L6.84886 2.00046L7.32961 2.15082L7.66763 2.25746L8.16483 2.41174Z" fill="url(#paint24_linear_153_2059)"/>
<path d="M8.16492 2.41131L8.15848 2.42126C6.94205 2.80088 5.82564 3.44425 4.88989 4.30489C3.95415 5.16553 3.22243 6.22197 2.74758 7.39789C2.67938 7.56615 2.6169 7.73523 2.56015 7.90515L2.3906 7.41211L2.28687 7.10924C3.19966 4.90568 4.95071 3.14917 7.15943 2.22149C7.21595 2.19779 7.2727 2.17409 7.3297 2.15039L7.66772 2.25703L8.16492 2.41131Z" fill="#42C5E9"/>
<path d="M1.66031 5.2832C2.51795 3.64412 3.91884 2.34964 5.62612 1.61863L4.87316 1.38366L4.16098 1.16113C2.9751 1.85649 1.96428 2.8113 1.20532 3.95302L1.23394 4.03656L1.66031 5.2832Z" fill="#42C5E9"/>
<path d="M0.643429 2.31948C1.17421 1.66705 1.80576 1.10242 2.51455 0.646622L1.74192 0.4049L1.2347 0.24707C0.881888 0.523948 0.550447 0.826711 0.243164 1.15282L0.502138 1.90784L0.643429 2.31948Z" fill="#42C5E9"/>
</mask>
<g mask="url(#mask7_153_2059)">
<g filter="url(#filter10_f_153_2059)">
<path d="M-0.500732 -0.569336L5.93784 5.04714" stroke="white" stroke-width="0.286159"/>
</g>
</g>
<path d="M4.01926 9.4248C3.74813 9.83253 4.57513 10.3753 4.30542 10.7831C4.03572 11.1908 3.20765 10.648 2.93651 11.0554C2.66538 11.4627 3.49238 12.0063 3.22267 12.414C2.95297 12.8217 2.1249 12.2789 1.85376 12.6866" stroke="#DD0044" stroke-width="0.286159" stroke-miterlimit="10" stroke-linecap="round"/>
<path d="M18.0735 4.42285C18.2359 4.88497 19.1713 4.55829 19.334 5.01969C19.4968 5.4811 18.561 5.80635 18.7234 6.2674C18.8858 6.72845 19.8216 6.40319 19.984 6.86424C20.1463 7.32529 19.2113 7.65126 19.3737 8.11231" stroke="#F15A24" stroke-width="0.286159" stroke-miterlimit="10" stroke-linecap="round"/>
<path d="M15.4961 16.1865L14.8909 17.1435L16.102 17.8441L16.5334 16.7222L15.4961 16.1865Z" fill="#42C5E9"/>
<path d="M2.34204 15.3916L1.73682 16.3489L2.94798 17.0492L3.37937 15.9273L2.34204 15.3916Z" fill="#DD0044"/>
<path d="M12.3461 3.59375L11.7412 4.55068L12.9524 5.25097L13.3834 4.12909L12.3461 3.59375Z" fill="#3066D9"/>
<path d="M6.52246 14.832L5.91724 15.7893L7.12876 16.4896L7.55979 15.3677L6.52246 14.832Z" fill="#2E67DE"/>
<path d="M15.0565 0.332031L14.4517 1.28897L15.6628 1.98925L16.0939 0.867374L15.0565 0.332031Z" fill="#42C5E9"/>
<path d="M2.03589 7.87598L1.43066 8.83291L2.64183 9.53319L3.07321 8.41132L2.03589 7.87598Z" fill="#F15A24"/>
<path d="M7.34375 1.2832L6.73853 2.24014L7.95005 2.94042L8.38108 1.81855L7.34375 1.2832Z" fill="#DD0044"/>
<path d="M10.3423 18.3418L9.73706 19.2987L10.9486 19.9994L11.3796 18.8771L10.3423 18.3418Z" fill="#F15A24"/>
<defs>
<filter id="filter0_f_153_2059" x="1.1873" y="9.32743" width="19.1376" height="10.9096" filterUnits="userSpaceOnUse" color-interpolation-filters="sRGB">
<feFlood flood-opacity="0" result="BackgroundImageFix"/>
<feBlend mode="normal" in="SourceGraphic" in2="BackgroundImageFix" result="shape"/>
<feGaussianBlur stdDeviation="0.447123" result="effect1_foregroundBlur_153_2059"/>
</filter>
<filter id="filter1_f_153_2059" x="0.65075" y="8.79089" width="20.2107" height="11.9827" filterUnits="userSpaceOnUse" color-interpolation-filters="sRGB">
<feFlood flood-opacity="0" result="BackgroundImageFix"/>
<feBlend mode="normal" in="SourceGraphic" in2="BackgroundImageFix" result="shape"/>
<feGaussianBlur stdDeviation="0.715397" result="effect1_foregroundBlur_153_2059"/>
</filter>
<filter id="filter2_f_153_2059" x="9.15801" y="10.6155" width="7.86928" height="7.84707" filterUnits="userSpaceOnUse" color-interpolation-filters="sRGB">
<feFlood flood-opacity="0" result="BackgroundImageFix"/>
<feBlend mode="normal" in="SourceGraphic" in2="BackgroundImageFix" result="shape"/>
<feGaussianBlur stdDeviation="1.07309" result="effect1_foregroundBlur_153_2059"/>
</filter>
<filter id="filter3_f_153_2059" x="11.6253" y="7.06084" width="7.86928" height="7.84707" filterUnits="userSpaceOnUse" color-interpolation-filters="sRGB">
<feFlood flood-opacity="0" result="BackgroundImageFix"/>
<feBlend mode="normal" in="SourceGraphic" in2="BackgroundImageFix" result="shape"/>
<feGaussianBlur stdDeviation="1.07309" result="effect1_foregroundBlur_153_2059"/>
</filter>
<filter id="filter4_f_153_2059" x="2.07476" y="7.06084" width="7.86928" height="7.84707" filterUnits="userSpaceOnUse" color-interpolation-filters="sRGB">
<feFlood flood-opacity="0" result="BackgroundImageFix"/>
<feBlend mode="normal" in="SourceGraphic" in2="BackgroundImageFix" result="shape"/>
<feGaussianBlur stdDeviation="1.07309" result="effect1_foregroundBlur_153_2059"/>
</filter>
<filter id="filter5_f_153_2059" x="11.3898" y="13.5646" width="7.27632" height="4.03877" filterUnits="userSpaceOnUse" color-interpolation-filters="sRGB">
<feFlood flood-opacity="0" result="BackgroundImageFix"/>
<feBlend mode="normal" in="SourceGraphic" in2="BackgroundImageFix" result="shape"/>
<feGaussianBlur stdDeviation="0.536547" result="effect1_foregroundBlur_153_2059"/>
</filter>
<filter id="filter6_f_153_2059" x="15.7749" y="9.3464" width="6.79108" height="5.66754" filterUnits="userSpaceOnUse" color-interpolation-filters="sRGB">
<feFlood flood-opacity="0" result="BackgroundImageFix"/>
<feBlend mode="normal" in="SourceGraphic" in2="BackgroundImageFix" result="shape"/>
<feGaussianBlur stdDeviation="0.178849" result="effect1_foregroundBlur_153_2059"/>
</filter>
<filter id="filter7_f_153_2059" x="10.2661" y="14.2695" width="6.04522" height="0.679739" filterUnits="userSpaceOnUse" color-interpolation-filters="sRGB">
<feFlood flood-opacity="0" result="BackgroundImageFix"/>
<feBlend mode="normal" in="SourceGraphic" in2="BackgroundImageFix" result="shape"/>
<feGaussianBlur stdDeviation="0.143079" result="effect1_foregroundBlur_153_2059"/>
</filter>
<filter id="filter8_f_153_2059" x="10.5195" y="13.3393" width="2.22981" height="2.57332" filterUnits="userSpaceOnUse" color-interpolation-filters="sRGB">
<feFlood flood-opacity="0" result="BackgroundImageFix"/>
<feBlend mode="normal" in="SourceGraphic" in2="BackgroundImageFix" result="shape"/>
<feGaussianBlur stdDeviation="0.214619" result="effect1_foregroundBlur_153_2059"/>
</filter>
<filter id="filter9_f_153_2059" x="10.3764" y="13.2092" width="2.48495" height="2.83456" filterUnits="userSpaceOnUse" color-interpolation-filters="sRGB">
<feFlood flood-opacity="0" result="BackgroundImageFix"/>
<feBlend mode="normal" in="SourceGraphic" in2="BackgroundImageFix" result="shape"/>
<feGaussianBlur stdDeviation="0.250389" result="effect1_foregroundBlur_153_2059"/>
</filter>
<filter id="filter10_f_153_2059" x="-1.66782" y="-1.74985" width="8.7729" height="7.97822" filterUnits="userSpaceOnUse" color-interpolation-filters="sRGB">
<feFlood flood-opacity="0" result="BackgroundImageFix"/>
<feBlend mode="normal" in="SourceGraphic" in2="BackgroundImageFix" result="shape"/>
<feGaussianBlur stdDeviation="0.536547" result="effect1_foregroundBlur_153_2059"/>
</filter>
<radialGradient id="paint0_radial_153_2059" cx="0" cy="0" r="1" gradientUnits="userSpaceOnUse" gradientTransform="translate(10.7668 1.99023) rotate(90) scale(17.1338 17.2411)">
<stop stop-color="#FFDE43"/>
<stop offset="1" stop-color="#FFBC00"/>
</radialGradient>
<radialGradient id="paint1_radial_153_2059" cx="0" cy="0" r="1" gradientUnits="userSpaceOnUse" gradientTransform="translate(10.7668 4.28304) rotate(90) scale(14.841 14.9339)">
<stop stop-color="white" stop-opacity="0.5"/>
<stop offset="0.782278"/>
</radialGradient>
<radialGradient id="paint2_radial_153_2059" cx="0" cy="0" r="1" gradientUnits="userSpaceOnUse" gradientTransform="translate(10.7668 4.28304) rotate(90) scale(14.841 14.9339)">
<stop stop-color="white" stop-opacity="0.5"/>
<stop offset="0.782278"/>
</radialGradient>
<radialGradient id="paint3_radial_153_2059" cx="0" cy="0" r="1" gradientUnits="userSpaceOnUse" gradientTransform="translate(10.7668 0.124) rotate(90) scale(19.0001 25.8557)">
<stop offset="0.0922635" stop-color="white"/>
<stop offset="0.670207" stop-color="white" stop-opacity="0"/>
</radialGradient>
<radialGradient id="paint4_radial_153_2059" cx="0" cy="0" r="1" gradientUnits="userSpaceOnUse" gradientTransform="translate(11.903 14.5149) scale(0.885392 4.28058)">
<stop stop-color="#743C1C"/>
<stop offset="1" stop-color="#401C02"/>
</radialGradient>
<linearGradient id="paint5_linear_153_2059" x1="13.1111" y1="14.5238" x2="10.6948" y2="14.5238" gradientUnits="userSpaceOnUse">
<stop stop-color="#FFDE43"/>
<stop offset="0.22" stop-color="#FED93F"/>
<stop offset="0.51" stop-color="#FCC934"/>
<stop offset="0.82" stop-color="#F9AF21"/>
<stop offset="1" stop-color="#F79D14"/>
</linearGradient>
<radialGradient id="paint6_radial_153_2059" cx="0" cy="0" r="1" gradientUnits="userSpaceOnUse" gradientTransform="translate(7.77856 10.3126) scale(2.26726 0.665735)">
<stop stop-color="#743C1C"/>
<stop offset="1" stop-color="#401C02"/>
</radialGradient>
<linearGradient id="paint7_linear_153_2059" x1="7.78102" y1="11.015" x2="7.78102" y2="9.60567" gradientUnits="userSpaceOnUse">
<stop stop-color="#FFDE43"/>
<stop offset="0.22" stop-color="#FED93F"/>
<stop offset="0.51" stop-color="#FCC934"/>
<stop offset="0.82" stop-color="#F9AF21"/>
<stop offset="1" stop-color="#F79D14"/>
</linearGradient>
<radialGradient id="paint8_radial_153_2059" cx="0" cy="0" r="1" gradientUnits="userSpaceOnUse" gradientTransform="translate(13.7552 10.3126) scale(2.26734 0.665735)">
<stop stop-color="#743C1C"/>
<stop offset="1" stop-color="#401C02"/>
</radialGradient>
<linearGradient id="paint9_linear_153_2059" x1="13.7577" y1="11.015" x2="13.7577" y2="9.60567" gradientUnits="userSpaceOnUse">
<stop stop-color="#FFDE43"/>
<stop offset="0.22" stop-color="#FED93F"/>
<stop offset="0.51" stop-color="#FCC934"/>
<stop offset="0.82" stop-color="#F9AF21"/>
<stop offset="1" stop-color="#F79D14"/>
</linearGradient>
<radialGradient id="paint10_radial_153_2059" cx="0" cy="0" r="1" gradientUnits="userSpaceOnUse" gradientTransform="translate(10.7668 1.99023) rotate(90) scale(17.1338 17.2411)">
<stop stop-color="#FFDE43"/>
<stop offset="1" stop-color="#FFBC00"/>
</radialGradient>
<linearGradient id="paint11_linear_153_2059" x1="19.5562" y1="15.2281" x2="18.5451" y2="9.45843" gradientUnits="userSpaceOnUse">
<stop stop-color="#005269"/>
<stop offset="0.7" stop-color="#42C5E9"/>
</linearGradient>
<linearGradient id="paint12_linear_153_2059" x1="13.4" y1="15.1689" x2="13.4" y2="14.2695" gradientUnits="userSpaceOnUse">
<stop stop-color="#053584"/>
<stop offset="0.7" stop-color="#1D60D1"/>
</linearGradient>
<linearGradient id="paint13_linear_153_2059" x1="11.648" y1="15.32" x2="10.7383" y2="14.4046" gradientUnits="userSpaceOnUse">
<stop stop-color="#17A7CF"/>
<stop offset="0.7" stop-color="#42C5E9"/>
</linearGradient>
<linearGradient id="paint14_linear_153_2059" x1="651.907" y1="438.977" x2="625.202" y2="394.029" gradientUnits="userSpaceOnUse">
<stop stop-color="#17A7CF"/>
<stop offset="0.7" stop-color="#42C5E9"/>
</linearGradient>
<linearGradient id="paint15_linear_153_2059" x1="707.845" y1="438.977" x2="681.141" y2="394.029" gradientUnits="userSpaceOnUse">
<stop stop-color="#17A7CF"/>
<stop offset="0.7" stop-color="#42C5E9"/>
</linearGradient>
<linearGradient id="paint16_linear_153_2059" x1="763.961" y1="438.977" x2="737.259" y2="394.023" gradientUnits="userSpaceOnUse">
<stop stop-color="#17A7CF"/>
<stop offset="0.7" stop-color="#42C5E9"/>
</linearGradient>
<linearGradient id="paint17_linear_153_2059" x1="15.334" y1="15.258" x2="15.334" y2="14.1816" gradientUnits="userSpaceOnUse">
<stop stop-color="#021738"/>
<stop offset="0.7" stop-color="#053584"/>
</linearGradient>
<linearGradient id="paint18_linear_153_2059" x1="338.049" y1="520.593" x2="338.049" y2="488.001" gradientUnits="userSpaceOnUse">
<stop stop-color="#053584"/>
<stop offset="0.7" stop-color="#1D60D1"/>
</linearGradient>
<linearGradient id="paint19_linear_153_2059" x1="19.5384" y1="15.2223" x2="18.5273" y2="9.45257" gradientUnits="userSpaceOnUse">
<stop stop-color="#005269"/>
<stop offset="0.7" stop-color="#42C5E9"/>
</linearGradient>
<linearGradient id="paint20_linear_153_2059" x1="13.5033" y1="15.1781" x2="13.5033" y2="14.2539" gradientUnits="userSpaceOnUse">
<stop stop-color="#053584"/>
<stop offset="0.7" stop-color="#1D60D1"/>
</linearGradient>
<radialGradient id="paint21_radial_153_2059" cx="0" cy="0" r="1" gradientUnits="userSpaceOnUse" gradientTransform="translate(11.6654 14.6231) scale(0.43294 1.49364)">
<stop stop-color="#743C1C"/>
<stop offset="1" stop-color="#401C02"/>
</radialGradient>
<radialGradient id="paint22_radial_153_2059" cx="0" cy="0" r="1" gradientUnits="userSpaceOnUse" gradientTransform="translate(11.6654 14.6231) scale(0.43294 1.49364)">
<stop stop-color="#743C1C"/>
<stop offset="1" stop-color="#401C02"/>
</radialGradient>
<linearGradient id="paint23_linear_153_2059" x1="5.56544" y1="5.39843" x2="0.728157" y2="-0.402054" gradientUnits="userSpaceOnUse">
<stop stop-color="#04265E"/>
<stop offset="0.7" stop-color="#1D60D1"/>
</linearGradient>
<linearGradient id="paint24_linear_153_2059" x1="5.56544" y1="5.39843" x2="0.728157" y2="-0.402054" gradientUnits="userSpaceOnUse">
<stop stop-color="#04265E"/>
<stop offset="0.7" stop-color="#1D60D1"/>
</linearGradient>
</defs>
</svg>
