<svg width="10" height="10" viewBox="0 0 10 10" fill="none" xmlns="http://www.w3.org/2000/svg">
<path fill-rule="evenodd" clip-rule="evenodd" d="M5 1.42857C3.02755 1.42857 1.42857 3.02755 1.42857 5C1.42857 5.39449 1.10877 5.71429 0.714286 5.71429C0.319797 5.71429 0 5.39449 0 5C0 2.23858 2.23858 0 5 0C6.16895 0 7.2444 0.401604 8.09544 1.07323V0.714286C8.09544 0.319797 8.41523 0 8.80972 0C9.20421 0 9.52401 0.319797 9.52401 0.714286V2.61905C9.52401 3.01354 9.20421 3.33333 8.80972 3.33333H6.90496C6.51047 3.33333 6.19067 3.01354 6.19067 2.61905C6.19067 2.2612 6.45382 1.96481 6.79716 1.91284C6.26914 1.60474 5.65524 1.42857 5 1.42857ZM9.28571 4.28571C9.6802 4.28571 10 4.60551 10 5C10 7.76142 7.76142 10 5 10C3.83105 10 2.7556 9.5984 1.90456 8.92677V9.28571C1.90456 9.6802 1.58477 10 1.19028 10C0.795789 10 0.475992 9.6802 0.475992 9.28571V7.38095C0.475992 6.98646 0.795789 6.66667 1.19028 6.66667H3.09504C3.48953 6.66667 3.80933 6.98646 3.80933 7.38095C3.80933 7.7388 3.54618 8.03518 3.20283 8.08716C3.73085 8.39526 4.34476 8.57143 5 8.57143C6.97245 8.57143 8.57143 6.97245 8.57143 5C8.57143 4.60551 8.89123 4.28571 9.28571 4.28571Z" fill="#ECF3EC" fill-opacity="0.45"/>
</svg>
