<svg width="14" height="14" viewBox="0 0 14 14" fill="none" xmlns="http://www.w3.org/2000/svg">
<path d="M13.48 12.6001L11 10.1667C12.0005 9.03761 12.527 7.56611 12.4699 6.05857C12.4128 4.55103 11.7764 3.12359 10.6934 2.07341C9.54389 0.957895 8.00512 0.333984 6.40336 0.333984C4.8016 0.333984 3.26282 0.957895 2.11336 2.07341C1.55008 2.61968 1.10224 3.27351 0.796418 3.99613C0.490594 4.71874 0.333008 5.49541 0.333008 6.28007C0.333008 7.06474 0.490594 7.84141 0.796418 8.56402C1.10224 9.28664 1.55008 9.94047 2.11336 10.4867C3.16464 11.4983 4.5402 12.1048 5.99609 12.1988C7.45197 12.2928 8.89409 11.8681 10.0667 11.0001L12.5734 13.4601C12.6855 13.5789 12.8373 13.6525 13 13.6667C13.1684 13.6662 13.3304 13.6019 13.4534 13.4867C13.5134 13.4303 13.5617 13.3626 13.5956 13.2875C13.6294 13.2124 13.6481 13.1313 13.6506 13.0489C13.653 12.9666 13.6393 12.8845 13.61 12.8075C13.5807 12.7305 13.5366 12.66 13.48 12.6001ZM1.61336 6.28007C1.63442 5.02698 2.15021 3.83306 3.04819 2.9588C3.94618 2.08455 5.15348 1.60091 6.40669 1.61341C7.65875 1.60268 8.86435 2.0871 9.76089 2.96117C10.6574 3.83523 11.1723 5.02814 11.1934 6.28007C11.1723 7.53201 10.6574 8.72491 9.76089 9.59898C8.86435 10.473 7.65875 10.9575 6.40669 10.9467C5.15348 10.9592 3.94618 10.4756 3.04819 9.60135C2.15021 8.72709 1.63442 7.53317 1.61336 6.28007Z" fill="#ECF3EC" fill-opacity="0.65"/>
</svg>
