<svg width="21" height="20" viewBox="0 0 21 20" fill="none" xmlns="http://www.w3.org/2000/svg">
<path d="M10.9379 20C16.495 20 20.9999 15.5228 20.9999 10C20.9999 4.47715 16.495 0 10.9379 0C5.38086 0 0.875977 4.47715 0.875977 10C0.875977 15.5228 5.38086 20 10.9379 20Z" fill="url(#paint0_radial_153_2799)"/>
<g style="mix-blend-mode:soft-light">
<path d="M10.9379 20C16.495 20 20.9999 15.5228 20.9999 10C20.9999 4.47715 16.495 0 10.9379 0C5.38086 0 0.875977 4.47715 0.875977 10C0.875977 15.5228 5.38086 20 10.9379 20Z" fill="url(#paint1_radial_153_2799)"/>
</g>
<g style="mix-blend-mode:soft-light">
<path d="M10.9379 20C16.495 20 20.9999 15.5228 20.9999 10C20.9999 4.47715 16.495 0 10.9379 0C5.38086 0 0.875977 4.47715 0.875977 10C0.875977 15.5228 5.38086 20 10.9379 20Z" fill="url(#paint2_radial_153_2799)"/>
</g>
<g style="mix-blend-mode:overlay">
<path d="M10.9379 20C16.495 20 20.9999 15.5228 20.9999 10C20.9999 4.47715 16.495 0 10.9379 0C5.38086 0 0.875977 4.47715 0.875977 10C0.875977 15.5228 5.38086 20 10.9379 20Z" fill="url(#paint3_radial_153_2799)" fill-opacity="0.7"/>
</g>
<mask id="mask0_153_2799" style="mask-type:alpha" maskUnits="userSpaceOnUse" x="0" y="0" width="21" height="20">
<path d="M10.8964 20C16.4535 20 20.9584 15.5228 20.9584 10C20.9584 4.47715 16.4535 0 10.8964 0C5.33936 0 0.834473 4.47715 0.834473 10C0.834473 15.5228 5.33936 20 10.8964 20Z" fill="white"/>
</mask>
<g mask="url(#mask0_153_2799)">
<g filter="url(#filter0_f_153_2799)">
<path d="M0.777594 9.71421C0.78852 9.57213 0.835568 9.5579 0.84929 9.70218C0.864536 9.86247 0.834899 10.1847 0.842035 10.3791C0.860927 10.8938 0.940314 11.3413 1.02215 11.7053C1.28588 12.8784 1.6511 13.6343 1.99175 14.2747C3.11148 16.3799 4.33806 17.4459 5.53462 18.2493C7.28858 19.4269 9.05679 19.8015 10.8264 19.881C10.8711 19.883 10.8785 20.1719 10.8346 20.2095C10.7554 20.2774 10.6573 20.2101 10.5763 20.2072C10.3435 20.1991 10.1107 20.1833 9.87797 20.1592C9.18779 20.0879 8.49766 19.9428 7.80892 19.7092C5.93625 19.0742 3.9171 17.987 2.15372 14.9246C2.04279 14.7319 1.93274 14.5291 1.82424 14.3111C1.73748 14.1368 1.65156 13.9541 1.56715 13.7587C1.28951 13.1159 0.642534 11.4706 0.777594 9.71421ZM10.8277 20.2126C10.7851 20.214 10.7743 19.9446 10.8149 19.8886C10.8763 19.8041 10.9682 19.8737 11.0329 19.8697C11.3015 19.853 11.5701 19.8283 11.8385 19.7948C12.5747 19.7029 13.3103 19.546 14.0443 19.3045C15.8648 18.7053 17.822 17.7919 19.5381 14.9855C19.6473 14.8069 19.7556 14.6174 19.8624 14.4137C20.1871 13.7947 21.0007 12.1516 20.9066 10.109C20.8987 9.93685 20.9514 9.83371 20.975 9.98143C21.0051 10.1695 20.9929 10.5616 20.9846 10.7702C20.9581 11.4384 20.8548 12.0035 20.746 12.4598C20.401 13.9061 19.9166 14.7447 19.473 15.4448C18.0312 17.7206 16.4652 18.6381 14.9427 19.2973C13.5772 19.8886 12.2013 20.1705 10.8277 20.2126Z" fill="#401C02"/>
</g>
<g filter="url(#filter1_f_153_2799)">
<path d="M0.777594 9.71421C0.78852 9.57213 0.835568 9.5579 0.84929 9.70218C0.864536 9.86247 0.834899 10.1847 0.842035 10.3791C0.860927 10.8938 0.940314 11.3413 1.02215 11.7053C1.28588 12.8784 1.6511 13.6343 1.99175 14.2747C3.11148 16.3799 4.33806 17.4459 5.53462 18.2493C7.28858 19.4269 9.05679 19.8015 10.8264 19.881C10.8711 19.883 10.8785 20.1719 10.8346 20.2095C10.7554 20.2774 10.6573 20.2101 10.5763 20.2072C10.3435 20.1991 10.1107 20.1833 9.87797 20.1592C9.18779 20.0879 8.49766 19.9428 7.80892 19.7092C5.93625 19.0742 3.9171 17.987 2.15372 14.9246C2.04279 14.7319 1.93274 14.5291 1.82424 14.3111C1.73748 14.1368 1.65156 13.9541 1.56715 13.7587C1.28951 13.1159 0.642534 11.4706 0.777594 9.71421ZM10.8277 20.2126C10.7851 20.214 10.7743 19.9446 10.8149 19.8886C10.8763 19.8041 10.9682 19.8737 11.0329 19.8697C11.3015 19.853 11.5701 19.8283 11.8385 19.7948C12.5747 19.7029 13.3103 19.546 14.0443 19.3045C15.8648 18.7053 17.822 17.7919 19.5381 14.9855C19.6473 14.8069 19.7556 14.6174 19.8624 14.4137C20.1871 13.7947 21.0007 12.1516 20.9066 10.109C20.8987 9.93685 20.9514 9.83371 20.975 9.98143C21.0051 10.1695 20.9929 10.5616 20.9846 10.7702C20.9581 11.4384 20.8548 12.0035 20.746 12.4598C20.401 13.9061 19.9166 14.7447 19.473 15.4448C18.0312 17.7206 16.4652 18.6381 14.9427 19.2973C13.5772 19.8886 12.2013 20.1705 10.8277 20.2126Z" fill="#401C02"/>
</g>
</g>
<path d="M12.9709 14.1572V15.7593C12.9708 16.2691 12.767 16.7579 12.4043 17.1183C12.0416 17.4787 11.5497 17.6812 11.0368 17.6812H10.7477C10.2348 17.6812 9.74297 17.4787 9.38033 17.1183C9.01769 16.7579 8.81396 16.269 8.81396 15.7593V14.1576C9.40972 14.3558 10.1244 14.4711 10.8924 14.4711C11.6605 14.4711 12.3752 14.3567 12.9709 14.1572Z" fill="url(#paint4_radial_153_2799)"/>
<path d="M11.0412 11.9414H10.7446C9.64921 11.9414 8.76123 12.8239 8.76123 13.9125V15.7829C8.76123 16.8716 9.64921 17.7541 10.7446 17.7541H11.0412C12.1366 17.7541 13.0246 16.8716 13.0246 15.7829V13.9125C13.0246 12.8239 12.1366 11.9414 11.0412 11.9414Z" stroke="url(#paint5_linear_153_2799)" stroke-width="0.169998" stroke-miterlimit="10"/>
<path d="M12.9709 13.9355V14.1569C12.3752 14.3555 11.6605 14.4708 10.8924 14.4708C10.1244 14.4708 9.40972 14.3555 8.81396 14.1573V13.9355C8.81396 13.4258 9.01769 12.937 9.38033 12.5766C9.74297 12.2161 10.2348 12.0137 10.7477 12.0137H11.0368C11.5497 12.0137 12.0416 12.2161 12.4043 12.5765C12.767 12.9369 12.9708 13.4257 12.9709 13.9355Z" fill="url(#paint6_linear_153_2799)"/>
<path d="M11.0363 12.0137H10.7476C9.67941 12.0137 8.81348 12.8743 8.81348 13.9359V15.7586C8.81348 16.8202 9.67941 17.6808 10.7476 17.6808H11.0363C12.1045 17.6808 12.9704 16.8202 12.9704 15.7586V13.9359C12.9704 12.8743 12.1045 12.0137 11.0363 12.0137Z" stroke="url(#paint7_linear_153_2799)" stroke-width="0.165851" stroke-miterlimit="10"/>
<mask id="mask1_153_2799" style="mask-type:alpha" maskUnits="userSpaceOnUse" x="8" y="12" width="5" height="6">
<path d="M11.0363 12.0137H10.7476C9.67941 12.0137 8.81348 12.8743 8.81348 13.9359V15.7586C8.81348 16.8202 9.67941 17.6808 10.7476 17.6808H11.0363C12.1045 17.6808 12.9704 16.8202 12.9704 15.7586V13.9359C12.9704 12.8743 12.1045 12.0137 11.0363 12.0137Z" fill="url(#paint8_linear_153_2799)"/>
</mask>
<g mask="url(#mask1_153_2799)">
<g filter="url(#filter2_f_153_2799)">
<path d="M11.0363 12.0137H10.7476C9.67941 12.0137 8.81348 12.8743 8.81348 13.9359V15.7586C8.81348 16.8202 9.67941 17.6808 10.7476 17.6808H11.0363C12.1045 17.6808 12.9704 16.8202 12.9704 15.7586V13.9359C12.9704 12.8743 12.1045 12.0137 11.0363 12.0137Z" stroke="#42210B" stroke-width="0.248777" stroke-miterlimit="10"/>
</g>
</g>
<path d="M12.2112 8.04146C12.5646 7.61771 14.2817 5.86383 17.268 7.6571C17.3672 7.71496 17.442 7.80654 17.4785 7.91492C17.515 8.02331 17.5108 8.14116 17.4666 8.2467C17.407 8.38104 17.2831 8.47143 17.034 8.37731C16.4528 8.15714 14.6142 7.46513 12.5829 8.29065C12.5829 8.29065 12.3046 8.46189 12.1899 8.29272C12.166 8.25408 12.1551 8.20883 12.159 8.16361C12.1628 8.11839 12.1811 8.07558 12.2112 8.04146Z" fill="url(#paint9_radial_153_2799)"/>
<path d="M12.2112 8.04146C12.5646 7.61771 14.2817 5.86383 17.268 7.6571C17.3672 7.71496 17.442 7.80654 17.4785 7.91492C17.515 8.02331 17.5108 8.14116 17.4666 8.2467C17.407 8.38104 17.2831 8.47143 17.034 8.37731C16.4528 8.15714 14.6142 7.46513 12.5829 8.29065C12.5829 8.29065 12.3046 8.46189 12.1899 8.29272C12.166 8.25408 12.1551 8.20883 12.159 8.16361C12.1628 8.11839 12.1811 8.07558 12.2112 8.04146Z" stroke="url(#paint10_linear_153_2799)" stroke-width="0.0829256" stroke-miterlimit="10"/>
<path d="M5.89307 10.9971L1.97726 17.7686C1.91685 17.8731 1.81715 17.9494 1.7001 17.9809C1.58305 18.0123 1.45824 17.9962 1.35312 17.9362L0.578922 17.494C0.473803 17.4339 0.396988 17.3348 0.365376 17.2185C0.333764 17.1022 0.349944 16.9781 0.410358 16.8737L4.32616 10.1021L5.89307 10.9971Z" fill="black"/>
<mask id="mask2_153_2799" style="mask-type:alpha" maskUnits="userSpaceOnUse" x="0" y="0" width="21" height="20">
<path d="M10.9379 20C16.495 20 20.9999 15.5228 20.9999 10C20.9999 4.47715 16.495 0 10.9379 0C5.38086 0 0.875977 4.47715 0.875977 10C0.875977 15.5228 5.38086 20 10.9379 20Z" fill="url(#paint11_radial_153_2799)"/>
</mask>
<g mask="url(#mask2_153_2799)">
<g filter="url(#filter3_f_153_2799)">
<path d="M4.8135 11.2864C4.59239 11.1454 4.36293 11.0127 4.12513 10.9049C3.79137 10.7515 3.47013 10.6727 3.103 10.6437C2.79844 10.623 2.45634 10.6313 2.19351 10.8096C1.96405 10.9671 1.82638 11.2201 1.75963 11.4813C1.75128 11.5103 1.71373 11.8876 1.70539 11.8918C1.02119 12.1447 0.829277 12.4391 0.666571 12.7293C0.328642 13.3512 0.687431 13.9276 0.687431 13.9276C-0.443172 14.902 0.307782 15.8183 0.307782 15.8183C-0.347217 16.461 0.245202 17.0166 0.245202 17.0166L2.16013 18.277C2.47303 18.4843 2.90274 18.3973 3.11134 18.0863C3.31994 17.7753 3.23233 17.3483 2.91943 17.1409L3.24902 17.3607C3.59529 17.5887 4.06672 17.4934 4.29618 17.1492L4.40882 16.9792C4.63828 16.6351 4.54233 16.1666 4.19605 15.9385L4.14182 15.9012C4.51729 16.15 5.03045 16.0463 5.28076 15.6732L5.31414 15.6193C5.31414 15.6193 5.15143 15.9385 5.51439 16.179C6.1235 16.5812 6.29872 16.1956 6.29872 16.1956C6.29872 16.1956 7.35006 14.4542 7.63375 14.0229C7.91745 13.5917 7.53362 12.7708 7.53362 12.7708C6.55738 11.1703 6.02337 12.0576 4.8135 11.2864Z" fill="#8D3300"/>
</g>
</g>
<path d="M4.81399 10.8714C4.59288 10.7304 4.36342 10.5977 4.12562 10.4899C3.79186 10.3365 3.47062 10.2577 3.10349 10.2287C2.79893 10.208 2.45683 10.2162 2.194 10.3945C1.96454 10.5521 1.82686 10.805 1.76011 11.0662C1.75177 11.0953 1.71422 11.4726 1.70588 11.4767C1.02168 11.7296 0.829766 12.024 0.667059 12.3143C0.32913 12.9362 0.687919 13.5125 0.687919 13.5125C-0.442684 14.4869 0.30827 15.4032 0.30827 15.4032C-0.346728 16.0459 0.245691 16.6015 0.245691 16.6015L2.16062 17.862C2.47352 18.0693 2.90323 17.9822 3.11183 17.6713C3.32043 17.3603 3.23282 16.9332 2.91992 16.7259L3.24951 16.9457C3.59578 17.1737 4.06721 17.0783 4.29667 16.7342L4.40931 16.5642C4.63877 16.2201 4.54281 15.7515 4.19654 15.5235L4.14231 15.4862C4.51778 15.7349 5.03093 15.6313 5.28125 15.2581L5.31463 15.2042C5.31463 15.2042 5.15192 15.5235 5.51488 15.764C6.12399 16.1662 6.29921 15.7806 6.29921 15.7806C6.29921 15.7806 7.35055 14.0391 7.63424 13.6079C7.91793 13.1767 7.53411 12.3557 7.53411 12.3557C6.55787 10.7553 6.02386 11.6426 4.81399 10.8714Z" fill="url(#paint12_radial_153_2799)"/>
<path d="M5.87801 11.0128L5.56929 11.5435L4.06738 10.5525L4.3177 10.1172L5.87801 11.0128Z" fill="black"/>
<mask id="mask3_153_2799" style="mask-type:alpha" maskUnits="userSpaceOnUse" x="0" y="10" width="8" height="8">
<path d="M4.81399 10.8714C4.59288 10.7304 4.36342 10.5977 4.12562 10.4899C3.79186 10.3365 3.47062 10.2577 3.10349 10.2287C2.79893 10.208 2.45683 10.2162 2.194 10.3945C1.96454 10.5521 1.82686 10.805 1.76011 11.0662C1.75177 11.0953 1.71422 11.4726 1.70588 11.4767C1.02168 11.7296 0.829766 12.024 0.667059 12.3143C0.32913 12.9362 0.687919 13.5125 0.687919 13.5125C-0.442684 14.4869 0.30827 15.4032 0.30827 15.4032C-0.346728 16.0459 0.245691 16.6015 0.245691 16.6015L2.16062 17.862C2.47352 18.0693 2.90323 17.9822 3.11183 17.6713C3.32043 17.3603 3.23282 16.9332 2.91992 16.7259L3.24951 16.9457C3.59578 17.1737 4.06721 17.0783 4.29667 16.7342L4.40931 16.5642C4.63877 16.2201 4.54281 15.7515 4.19654 15.5235L4.14231 15.4862C4.51778 15.7349 5.03093 15.6313 5.28125 15.2581L5.31463 15.2042C5.31463 15.2042 5.15192 15.5235 5.51488 15.764C6.12399 16.1662 6.29921 15.7806 6.29921 15.7806C6.29921 15.7806 7.35055 14.0391 7.63424 13.6079C7.91793 13.1767 7.53411 12.3557 7.53411 12.3557C6.55787 10.7553 6.02386 11.6426 4.81399 10.8714Z" fill="url(#paint13_radial_153_2799)"/>
</mask>
<g mask="url(#mask3_153_2799)">
<g opacity="0.4" filter="url(#filter4_f_153_2799)">
<path opacity="0.4" d="M4.20846 10.4898C3.98317 10.3945 3.74537 10.3323 3.50757 10.295C3.38658 10.2825 3.26559 10.2701 3.14461 10.2659C3.02362 10.2618 2.90263 10.2618 2.78582 10.2784C2.669 10.295 2.55219 10.3198 2.44789 10.3696C2.34359 10.4152 2.25181 10.4857 2.17254 10.5686C2.09745 10.6515 2.03487 10.751 1.98897 10.8589C1.96811 10.9128 1.94725 10.9667 1.93057 11.0206C1.92639 11.033 1.92222 11.0496 1.91805 11.062L1.91388 11.0828L1.90971 11.0993L1.90136 11.1864L1.8805 11.3688C1.87633 11.3979 1.87216 11.431 1.86799 11.4601L1.86382 11.4725C1.86382 11.4766 1.86382 11.4808 1.85964 11.4932V11.4974C1.85547 11.5015 1.86382 11.4932 1.85547 11.5098C1.84713 11.5264 1.83044 11.5388 1.81375 11.543L1.80958 11.5513L1.80124 11.5554L1.75952 11.572C1.64687 11.6176 1.54257 11.6674 1.43827 11.7254C1.23385 11.8374 1.05445 11.9908 0.929295 12.1857C0.89592 12.2354 0.866716 12.2852 0.837512 12.3349C0.820824 12.3598 0.81248 12.3847 0.799964 12.4137C0.787448 12.4386 0.774933 12.4635 0.766589 12.4925L0.737385 12.5713L0.716525 12.6542C0.708181 12.6832 0.708181 12.7081 0.699837 12.7371C0.699837 12.7496 0.695665 12.7661 0.695665 12.7786L0.691493 12.82C0.683149 12.932 0.695665 13.0481 0.720697 13.16C0.733213 13.2139 0.749901 13.272 0.770761 13.3259C0.79162 13.3798 0.816652 13.4337 0.841684 13.4793L0.87506 13.5373L0.824996 13.5788C0.691493 13.6908 0.570506 13.8152 0.470379 13.9561C0.420316 14.0266 0.378596 14.0971 0.336876 14.1759C0.299329 14.2505 0.270125 14.3334 0.245093 14.4122C0.203374 14.5739 0.19503 14.7481 0.228405 14.9139C0.245093 14.9968 0.270125 15.0798 0.303501 15.1585C0.336876 15.2373 0.378596 15.3161 0.424488 15.3824L0.449519 15.4156L0.420316 15.4405C0.341048 15.5151 0.270125 15.5981 0.211718 15.6934C0.157482 15.7846 0.115762 15.8924 0.107418 16.0002C0.0949025 16.108 0.11159 16.22 0.15331 16.3237C0.190858 16.4273 0.249265 16.5268 0.324361 16.6097C0.240921 16.531 0.17417 16.4397 0.124106 16.3361C0.0740427 16.2324 0.0490109 16.1163 0.0531829 16.0002C0.0573549 15.8841 0.0907306 15.768 0.144966 15.6644C0.199202 15.5607 0.270125 15.4654 0.353564 15.3824L0.349392 15.4446C0.286813 15.37 0.245093 15.2912 0.203374 15.2042C0.161654 15.1212 0.13245 15.03 0.11159 14.9429C0.0698708 14.7605 0.0698708 14.5698 0.11159 14.3832C0.13245 14.292 0.165826 14.2008 0.203374 14.1178C0.245093 14.0349 0.290985 13.952 0.34522 13.8773C0.449519 13.7239 0.57885 13.5871 0.716525 13.4669L0.699837 13.5664C0.66229 13.5042 0.637258 13.4503 0.612226 13.3881C0.587194 13.33 0.570506 13.2678 0.553819 13.2056C0.524615 13.0813 0.512099 12.9486 0.516271 12.82L0.520443 12.7703C0.520443 12.7537 0.524615 12.7371 0.528787 12.7205C0.532959 12.6874 0.537131 12.6542 0.545475 12.6252L0.570506 12.5298L0.603882 12.4386C0.612226 12.4054 0.628914 12.3805 0.645602 12.3515C0.658118 12.3225 0.674806 12.2935 0.691493 12.2644C0.720697 12.2105 0.754073 12.1566 0.79162 12.1027C0.862544 11.9949 0.945983 11.8954 1.04611 11.8125C1.14207 11.7254 1.25054 11.6549 1.35901 11.5969C1.47165 11.5347 1.58429 11.4849 1.70111 11.4435L1.747 11.4269L1.75952 11.4227H1.76369C1.75117 11.4269 1.73448 11.4393 1.72614 11.4559C1.7178 11.4725 1.72197 11.4601 1.72197 11.4642V11.4684C1.72197 11.4725 1.72197 11.4684 1.72197 11.4642V11.4559C1.72614 11.4269 1.73031 11.3979 1.73448 11.3688L1.75952 11.1906L1.77203 11.0993C1.77203 11.091 1.77203 11.0869 1.7762 11.0703L1.78455 11.0454C1.78872 11.0288 1.79289 11.0164 1.79706 10.9998C1.81792 10.9376 1.83878 10.8796 1.86799 10.8215C1.92222 10.7054 1.99315 10.5976 2.08493 10.5023C2.17671 10.4069 2.28518 10.3323 2.40617 10.2867C2.52716 10.2369 2.65232 10.2162 2.77748 10.2037C2.90263 10.1954 3.02779 10.1996 3.15295 10.2079C3.27811 10.2203 3.3991 10.2369 3.52008 10.2618C3.75789 10.295 3.99152 10.3779 4.20846 10.4898Z" fill="#B04B02"/>
</g>
</g>
<mask id="mask4_153_2799" style="mask-type:alpha" maskUnits="userSpaceOnUse" x="0" y="10" width="8" height="8">
<path d="M4.81399 10.8714C4.59288 10.7304 4.36342 10.5977 4.12562 10.4899C3.79186 10.3365 3.47062 10.2577 3.10349 10.2287C2.79893 10.208 2.45683 10.2162 2.194 10.3945C1.96454 10.5521 1.82686 10.805 1.76011 11.0662C1.75177 11.0953 1.71422 11.4726 1.70588 11.4767C1.02168 11.7296 0.829766 12.024 0.667059 12.3143C0.32913 12.9362 0.687919 13.5125 0.687919 13.5125C-0.442684 14.4869 0.30827 15.4032 0.30827 15.4032C-0.346728 16.0459 0.245691 16.6015 0.245691 16.6015L2.16062 17.862C2.47352 18.0693 2.90323 17.9822 3.11183 17.6713C3.32043 17.3603 3.23282 16.9332 2.91992 16.7259L3.24951 16.9457C3.59578 17.1737 4.06721 17.0783 4.29667 16.7342L4.40931 16.5642C4.63877 16.2201 4.54281 15.7515 4.19654 15.5235L4.14231 15.4862C4.51778 15.7349 5.03093 15.6313 5.28125 15.2581L5.31463 15.2042C5.31463 15.2042 5.15192 15.5235 5.51488 15.764C6.12399 16.1662 6.29921 15.7806 6.29921 15.7806C6.29921 15.7806 7.35055 14.0391 7.63424 13.6079C7.91793 13.1767 7.53411 12.3557 7.53411 12.3557C6.55787 10.7553 6.02386 11.6426 4.81399 10.8714Z" fill="url(#paint14_radial_153_2799)"/>
</mask>
<g mask="url(#mask4_153_2799)">
<g style="mix-blend-mode:multiply" filter="url(#filter5_f_153_2799)">
<path d="M2.91599 16.7295C3.23305 16.9368 3.31649 17.3639 3.1079 17.6748C3.0036 17.8324 2.84506 17.9319 2.66984 17.9651C2.49879 17.9983 2.31105 17.9692 2.15252 17.8656L2.11914 17.8448C2.40283 17.7163 2.86175 17.4012 2.91599 16.7295Z" fill="#E7834A"/>
<path d="M4.19241 15.5186L4.19658 15.5227C4.54286 15.7507 4.63881 16.2193 4.40935 16.5634L4.29671 16.7334C4.06725 17.0776 3.59582 17.1729 3.32882 16.9946L3.19531 16.9076C3.47483 16.8122 4.02971 16.4929 4.19241 15.5186Z" fill="#E7834A"/>
<path d="M5.26481 13.9805C5.5777 14.2417 5.6528 14.7061 5.41917 15.0544L5.28149 15.2575C5.05204 15.6017 4.60564 15.7136 4.24268 15.5436C4.53889 15.3944 5.08541 14.988 5.26481 13.9805Z" fill="#E7834A"/>
<path d="M6.4035 12.123C6.73309 12.463 6.79149 12.9979 6.52032 13.4042L6.44522 13.5162C6.17822 13.9142 5.67341 14.0718 5.23535 13.9184C5.57328 13.6903 6.13232 13.1721 6.4035 12.123Z" fill="#E7834A"/>
</g>
</g>
<mask id="mask5_153_2799" style="mask-type:alpha" maskUnits="userSpaceOnUse" x="0" y="10" width="8" height="8">
<path d="M4.81399 10.8714C4.59288 10.7304 4.36342 10.5977 4.12562 10.4899C3.79186 10.3365 3.47062 10.2577 3.10349 10.2287C2.79893 10.208 2.45683 10.2162 2.194 10.3945C1.96454 10.5521 1.82686 10.805 1.76011 11.0662C1.75177 11.0953 1.71422 11.4726 1.70588 11.4767C1.02168 11.7296 0.829766 12.024 0.667059 12.3143C0.32913 12.9362 0.687919 13.5125 0.687919 13.5125C-0.442684 14.4869 0.30827 15.4032 0.30827 15.4032C-0.346728 16.0459 0.245691 16.6015 0.245691 16.6015L2.16062 17.862C2.47352 18.0693 2.90323 17.9822 3.11183 17.6713C3.32043 17.3603 3.23282 16.9332 2.91992 16.7259L3.24951 16.9457C3.59578 17.1737 4.06721 17.0783 4.29667 16.7342L4.40931 16.5642C4.63877 16.2201 4.54281 15.7515 4.19654 15.5235L4.14231 15.4862C4.51778 15.7349 5.03093 15.6313 5.28125 15.2581L5.31463 15.2042C5.31463 15.2042 5.15192 15.5235 5.51488 15.764C6.12399 16.1662 6.29921 15.7806 6.29921 15.7806C6.29921 15.7806 7.35055 14.0391 7.63424 13.6079C7.91793 13.1767 7.53411 12.3557 7.53411 12.3557C6.55787 10.7553 6.02386 11.6426 4.81399 10.8714Z" fill="url(#paint15_radial_153_2799)"/>
</mask>
<g mask="url(#mask5_153_2799)">
<g filter="url(#filter6_f_153_2799)">
<path d="M3.7168 10.3203C3.89619 10.3701 4.07559 10.4281 4.24246 10.511C4.41352 10.5898 4.57622 10.681 4.73893 10.7723C4.8182 10.8179 4.89746 10.8676 4.9809 10.9132C5.02262 10.934 5.06017 10.9547 5.10606 10.9754L5.16864 11.0044L5.23122 11.0293C5.27294 11.0459 5.31883 11.0625 5.36055 11.0749C5.40644 11.0874 5.44816 11.104 5.49405 11.1123C5.58167 11.1371 5.67345 11.1537 5.76523 11.1662C5.9488 11.1952 6.13236 11.2076 6.3201 11.2408C6.41606 11.2574 6.50784 11.2822 6.59962 11.3196C6.69141 11.3569 6.77485 11.4025 6.85829 11.4564C6.94173 11.5103 7.01265 11.5725 7.08357 11.6388C7.15032 11.7052 7.21708 11.7757 7.27965 11.8503C7.40064 11.9954 7.50494 12.153 7.60507 12.3147V12.3188V12.323C7.65513 12.4308 7.69268 12.5386 7.73023 12.6505C7.7636 12.7625 7.79281 12.8744 7.80949 12.9905C7.82618 13.1066 7.83453 13.2269 7.82201 13.3471C7.81367 13.4093 7.80115 13.4673 7.78029 13.5254C7.77195 13.5544 7.75526 13.5834 7.74274 13.6125L7.71771 13.6539C7.70937 13.6664 7.70102 13.6788 7.69268 13.6912C7.44653 14.0727 7.20456 14.4624 6.96259 14.8522L6.59962 15.4327L6.42023 15.7229L6.37434 15.7975C6.36182 15.8183 6.34096 15.8515 6.3201 15.8722C6.27838 15.9178 6.22415 15.9551 6.16574 15.98C6.04892 16.0256 5.91959 16.0173 5.80695 15.9841C5.69431 15.9468 5.59001 15.8888 5.49405 15.8266C5.39393 15.7644 5.31049 15.669 5.27294 15.5571C5.23539 15.4451 5.23956 15.3207 5.28963 15.2129L5.40644 15.0471L5.29797 15.2171C5.26042 15.3207 5.25625 15.441 5.29797 15.5446C5.33969 15.6483 5.41896 15.7312 5.51491 15.7851C5.61087 15.8432 5.71517 15.8929 5.81947 15.9219C5.92377 15.951 6.04058 15.9551 6.13654 15.9095C6.18243 15.8888 6.22832 15.8556 6.2617 15.8183C6.27838 15.7975 6.2909 15.781 6.30341 15.7519L6.34513 15.6773L6.52036 15.3829L6.8708 14.7941C7.1086 14.4044 7.33806 14.0105 7.58838 13.6249C7.71354 13.4549 7.71354 13.2227 7.68434 13.0071C7.65096 12.7915 7.58004 12.5717 7.49242 12.3686L7.4966 12.3727C7.40064 12.2152 7.29634 12.0618 7.1837 11.9208C7.12529 11.8503 7.06688 11.7839 7.00013 11.7176C6.93338 11.6554 6.86663 11.5974 6.79153 11.5476C6.71644 11.4979 6.63717 11.4522 6.5579 11.4191C6.47447 11.3859 6.38685 11.361 6.29924 11.3444C6.11985 11.3071 5.93211 11.2905 5.74854 11.2574C5.56081 11.2242 5.37724 11.1744 5.20202 11.0957L5.13526 11.0666L5.07269 11.0335C5.03097 11.0127 4.98925 10.9879 4.94753 10.9671C4.86409 10.9215 4.78899 10.8676 4.70972 10.8179C4.55536 10.7184 4.39266 10.623 4.22995 10.5359C4.06724 10.4488 3.89202 10.3825 3.7168 10.3203Z" fill="#923D00"/>
<path d="M1.16788 15.5732C1.64348 15.8469 2.10657 16.1288 2.56966 16.4191C2.68647 16.4896 2.79911 16.5642 2.91593 16.6388L2.95765 16.6679L3.00354 16.701C3.02023 16.7135 3.03274 16.7259 3.04943 16.7383C3.06195 16.7508 3.07863 16.7632 3.09115 16.7757C3.14539 16.8296 3.18711 16.8918 3.22465 16.9581C3.2622 17.0244 3.28306 17.0991 3.29558 17.1737C3.30809 17.2483 3.31226 17.323 3.29975 17.4018C3.29558 17.4391 3.28723 17.4764 3.27889 17.5137C3.26637 17.551 3.25803 17.5883 3.23717 17.6215C3.22465 17.6588 3.20379 17.6878 3.18293 17.721C3.16207 17.75 3.14121 17.7832 3.11201 17.8122C3.06195 17.8703 2.99937 17.9159 2.93679 17.9574C2.87004 17.9988 2.79911 18.0237 2.72402 18.0444C2.64892 18.061 2.57383 18.0693 2.49873 18.0652C2.42364 18.061 2.34854 18.0486 2.27762 18.0195C2.26093 18.0154 2.24424 18.0071 2.22338 17.9988C2.20669 17.9905 2.19001 17.9822 2.17332 17.9739L2.12326 17.9449C2.10657 17.9366 2.09405 17.9242 2.08154 17.9159L1.91049 17.7998C1.79784 17.7252 1.6852 17.6464 1.57256 17.5676C1.12616 17.2566 0.679756 16.9415 0.241699 16.614C0.717303 16.8835 1.18039 17.1696 1.64348 17.4598C1.76029 17.5303 1.87294 17.6049 1.98975 17.6796L2.1608 17.7915C2.17332 17.7998 2.19001 17.8122 2.20252 17.8164L2.24007 17.8371C2.25259 17.8454 2.26927 17.8496 2.28179 17.8578C2.29431 17.8661 2.31099 17.8703 2.32351 17.8744C2.38192 17.8952 2.44032 17.9035 2.49873 17.9076C2.55714 17.9117 2.61972 17.9035 2.67813 17.891C2.73653 17.8786 2.79494 17.8537 2.84501 17.8205C2.89507 17.7915 2.94513 17.75 2.98268 17.7044C3.00354 17.6837 3.02023 17.6588 3.03692 17.6339C3.0536 17.6091 3.07029 17.5842 3.07864 17.5552C3.09115 17.5303 3.09949 17.5013 3.11201 17.4722C3.12035 17.4432 3.1287 17.4142 3.1287 17.3852C3.14539 17.2649 3.12453 17.1447 3.07029 17.0369C3.04526 16.983 3.01188 16.9332 2.97016 16.8876C2.96182 16.8752 2.9493 16.8669 2.93679 16.8544C2.92427 16.842 2.91593 16.8337 2.90341 16.8254L2.86586 16.7964L2.82415 16.7674C2.7115 16.6927 2.59886 16.614 2.48622 16.5352C2.04816 16.2159 1.60176 15.9049 1.16788 15.5732Z" fill="#923D00"/>
<path d="M2.11895 14.1514C2.66131 14.4706 3.19949 14.8023 3.72933 15.1382C3.86284 15.2211 3.99634 15.304 4.12984 15.3911L4.22997 15.4533C4.24666 15.4616 4.26334 15.4782 4.28003 15.4906L4.30506 15.5113L4.3301 15.5321C4.39685 15.586 4.45108 15.6565 4.49697 15.7311C4.58876 15.8804 4.6263 16.0587 4.60962 16.2287C4.60127 16.3157 4.58041 16.3987 4.54704 16.4816C4.53869 16.5023 4.53035 16.523 4.51783 16.5396L4.48446 16.5977C4.4636 16.635 4.44274 16.664 4.41771 16.6972C4.39685 16.7304 4.37599 16.7594 4.35096 16.7967L4.31341 16.8506C4.30089 16.8672 4.2842 16.8838 4.26752 16.9004C4.20494 16.9625 4.13819 17.0164 4.05892 17.0579C3.90456 17.1367 3.72516 17.174 3.55411 17.1491C3.4665 17.1367 3.38306 17.1118 3.30379 17.0745L3.27459 17.0621L3.24538 17.0455C3.2287 17.033 3.20784 17.0247 3.19115 17.0123L3.09519 16.946C2.96586 16.8589 2.83653 16.7677 2.7072 16.6806C2.18988 16.324 1.67255 15.9633 1.16357 15.586C1.7101 15.9052 2.24411 16.2369 2.77812 16.5728C2.91163 16.6557 3.04513 16.7428 3.17863 16.8257L3.27876 16.8879C3.29545 16.9004 3.31214 16.9045 3.32465 16.9169L3.34968 16.9294L3.37472 16.9418C3.43729 16.9708 3.50822 16.9916 3.57914 16.9999C3.72099 17.0164 3.86284 16.9874 3.98799 16.9252C4.05057 16.8921 4.10481 16.8464 4.15487 16.7967L4.18825 16.7594L4.21745 16.7179C4.23831 16.6889 4.25917 16.6516 4.2842 16.6226C4.30506 16.5894 4.3301 16.5562 4.34678 16.5272L4.37181 16.4816L4.39267 16.436C4.42188 16.3738 4.43857 16.3033 4.44691 16.2328C4.45943 16.0918 4.43022 15.9509 4.3593 15.8265C4.32592 15.7643 4.28003 15.7104 4.2258 15.6606L4.20494 15.644L4.18408 15.6274C4.16739 15.615 4.15904 15.6067 4.14236 15.5943L4.0464 15.5279C3.91707 15.4409 3.78774 15.3496 3.65841 15.2626C3.14109 14.8894 2.62376 14.5287 2.11895 14.1514Z" fill="#923D00"/>
<path d="M3.16213 12.5879C3.717 12.9113 4.25936 13.2471 4.80171 13.5913C4.93522 13.6784 5.07289 13.7613 5.20639 13.8484L5.23143 13.8649L5.25646 13.8857C5.27315 13.8981 5.29401 13.9106 5.31069 13.923C5.34407 13.952 5.37744 13.981 5.40665 14.0142C5.43585 14.0432 5.46088 14.0806 5.49009 14.1179C5.51095 14.1552 5.53598 14.1925 5.55267 14.2298C5.59021 14.3086 5.61525 14.3915 5.62776 14.4786C5.64028 14.5657 5.64028 14.6527 5.62776 14.7398C5.61525 14.8269 5.59021 14.9098 5.55267 14.9886C5.53598 15.0301 5.51095 15.0674 5.49009 15.1047L5.42334 15.2042L5.35659 15.3037C5.33155 15.3369 5.30652 15.3742 5.27315 15.4074C5.21474 15.4737 5.14381 15.5276 5.06872 15.5732C4.99362 15.6188 4.91018 15.652 4.82675 15.6727C4.74331 15.6935 4.65152 15.7059 4.56391 15.7017C4.51802 15.7017 4.4763 15.6935 4.43458 15.6852C4.39286 15.6727 4.34697 15.6644 4.30942 15.652C4.2677 15.6396 4.23015 15.6188 4.18844 15.6022C4.16758 15.5939 4.15089 15.5815 4.13003 15.5691L4.105 15.5483L4.07996 15.5318C3.94646 15.4405 3.81713 15.3535 3.68363 15.2622C3.15796 14.9015 2.63229 14.5325 2.11914 14.151C2.67401 14.4744 3.21637 14.8103 3.75872 15.1544C3.89223 15.2415 4.0299 15.3244 4.1634 15.4115L4.18844 15.4281L4.21347 15.4405C4.23015 15.4488 4.24267 15.4571 4.25936 15.4654C4.29273 15.482 4.32611 15.4944 4.35949 15.5069C4.39286 15.5193 4.43041 15.5235 4.46378 15.5318C4.50133 15.5359 4.53471 15.54 4.57226 15.54C4.64318 15.54 4.71827 15.5359 4.78503 15.5152C4.85595 15.4944 4.9227 15.4696 4.98528 15.4322C5.04786 15.3949 5.1021 15.3493 5.14799 15.2954C5.17302 15.2705 5.19388 15.2374 5.21474 15.2083L5.28149 15.1088L5.34824 15.0093C5.36493 14.9761 5.38579 14.9471 5.40248 14.914C5.43585 14.8518 5.45671 14.7813 5.46506 14.7108C5.47757 14.6403 5.47757 14.5657 5.46506 14.4952C5.45671 14.4247 5.43585 14.3542 5.40665 14.2879C5.39413 14.2547 5.37327 14.2257 5.35659 14.1925C5.33573 14.1635 5.31487 14.1345 5.28983 14.1054C5.26897 14.0764 5.23977 14.0515 5.21474 14.0267C5.20222 14.0142 5.18553 14.0059 5.17302 13.9935L5.15216 13.9769L5.12713 13.9603C4.99362 13.8691 4.86429 13.782 4.73079 13.6908C4.20095 13.3342 3.67528 12.9693 3.16213 12.5879Z" fill="#923D00"/>
<path d="M4.38032 10.7598C4.94354 11.0873 5.49424 11.4315 6.04494 11.7798L6.24936 11.9083C6.28274 11.929 6.32029 11.958 6.35366 11.9829C6.38704 12.0119 6.42041 12.041 6.44962 12.07C6.5706 12.1944 6.66239 12.3478 6.71662 12.5136C6.76669 12.6795 6.7792 12.8578 6.75 13.0319C6.74165 13.0734 6.73331 13.119 6.72079 13.1605C6.70411 13.2019 6.69576 13.2434 6.6749 13.2849L6.6457 13.3429C6.63736 13.3636 6.62484 13.3802 6.61232 13.4009C6.59981 13.4175 6.59146 13.4383 6.57895 13.4548L6.54557 13.5046L6.5122 13.5544C6.49968 13.5709 6.48717 13.5875 6.47465 13.6083C6.46213 13.6248 6.44962 13.6456 6.43293 13.6622L6.38704 13.7119C6.35783 13.7451 6.32446 13.77 6.29108 13.8031C6.25771 13.8322 6.22016 13.857 6.18678 13.8819C6.03659 13.9773 5.86971 14.0353 5.69449 14.0519C5.51927 14.0685 5.34405 14.0436 5.18134 13.9814C5.13962 13.9648 5.10207 13.9441 5.06453 13.9275C5.02698 13.9068 4.98943 13.8819 4.95605 13.8612L4.7558 13.7244C4.21762 13.3553 3.68778 12.9822 3.16211 12.5966C3.72532 12.9241 4.27602 13.2683 4.82672 13.6166L5.03115 13.7451C5.06453 13.7658 5.0979 13.7824 5.13128 13.8031C5.16465 13.8197 5.19803 13.8363 5.23558 13.8487C5.37742 13.8985 5.53179 13.9192 5.68198 13.8985C5.83217 13.8778 5.97819 13.828 6.10334 13.7492C6.13255 13.7285 6.16592 13.7078 6.19513 13.6829C6.22016 13.658 6.25354 13.6331 6.27439 13.6041L6.31194 13.5627C6.32446 13.5502 6.3328 13.5336 6.34532 13.517C6.35783 13.5005 6.36618 13.488 6.37869 13.4714L6.41207 13.4217L6.44545 13.3719C6.45796 13.3553 6.46631 13.3388 6.47465 13.3222C6.48299 13.3056 6.49551 13.289 6.50385 13.2724L6.52888 13.2227C6.54557 13.1895 6.55392 13.1522 6.5706 13.119C6.58312 13.0817 6.59146 13.0485 6.59564 13.0112C6.62067 12.8661 6.61232 12.7127 6.5706 12.5675C6.52888 12.4224 6.45379 12.2897 6.34949 12.1778C6.32446 12.1488 6.29525 12.1239 6.26605 12.099C6.23685 12.0783 6.20764 12.0534 6.17427 12.0285L5.97401 11.8917C5.44 11.5185 4.90599 11.1454 4.38032 10.7598Z" fill="#923D00"/>
</g>
</g>
<path d="M7.61709 10.2881C8.43091 10.2881 9.09063 9.31596 9.09063 8.11672C9.09063 6.91748 8.43091 5.94531 7.61709 5.94531C6.80328 5.94531 6.14355 6.91748 6.14355 8.11672C6.14355 9.31596 6.80328 10.2881 7.61709 10.2881Z" fill="url(#paint16_radial_153_2799)"/>
<path d="M7.61709 10.3296C8.04183 10.3296 8.4216 10.0759 8.69335 9.67542C8.96526 9.27474 9.13209 8.72353 9.13209 8.11672C9.13209 7.50991 8.96526 6.9587 8.69335 6.55802C8.4216 6.15757 8.04183 5.90385 7.61709 5.90385C7.19235 5.90385 6.81259 6.15757 6.54084 6.55802C6.26893 6.9587 6.10209 7.50991 6.10209 8.11672C6.10209 8.72353 6.26893 9.27474 6.54084 9.67542C6.81259 10.0759 7.19235 10.3296 7.61709 10.3296Z" stroke="url(#paint17_linear_153_2799)" stroke-width="0.0829256" stroke-miterlimit="10"/>
<path style="mix-blend-mode:screen" d="M7.10386 10.7305C9.06212 10.7305 10.6496 9.15275 10.6496 7.20654C10.6496 5.26033 9.06212 3.68262 7.10386 3.68262C5.14559 3.68262 3.55811 5.26033 3.55811 7.20654C3.55811 9.15275 5.14559 10.7305 7.10386 10.7305Z" fill="url(#paint18_linear_153_2799)"/>
<path d="M6.19562 10.896L6.2532 10.7973C7.01954 10.976 7.82317 10.9083 8.54833 10.604C9.27348 10.2996 9.88273 9.77444 10.2883 9.10398C11.3384 7.36254 10.7623 5.0796 9.00836 4.03847C8.24193 3.5847 7.33672 3.42035 6.45836 3.57549C5.58 3.73064 4.78721 4.19489 4.22502 4.88333C3.66284 5.57177 3.36885 6.43836 3.39685 7.32455C3.42484 8.21075 3.77295 9.0573 4.37748 9.70933L4.31323 9.81631C4.27484 9.8824 4.26444 9.96094 4.28431 10.0347C4.30418 10.1084 4.3527 10.1712 4.4192 10.2094L5.79929 11.0013C5.83223 11.0204 5.86866 11.0328 5.90645 11.0378C5.94425 11.0429 5.98267 11.0404 6.01951 11.0306C6.05635 11.0208 6.09087 11.0039 6.1211 10.9808C6.15132 10.9577 6.17665 10.9289 6.19562 10.896ZM4.17764 5.52698C4.53131 4.91808 5.06833 4.43484 5.71301 4.14538C6.35769 3.85591 7.07752 3.77482 7.77104 3.91353C8.46455 4.05224 9.09678 4.40376 9.57861 4.91854C10.0604 5.43332 10.3676 6.08539 10.4567 6.78286C10.5458 7.48032 10.4125 8.188 10.0754 8.80614C9.73837 9.42428 9.21463 9.92171 8.57802 10.2283C7.94141 10.5349 7.22403 10.6352 6.52701 10.5151C5.82999 10.395 5.18847 10.0605 4.69288 9.55882C4.17593 9.03481 3.84574 8.35707 3.7527 7.62906C3.65967 6.90105 3.80891 6.16279 4.17764 5.52698Z" fill="black"/>
<defs>
<filter id="filter0_f_153_2799" x="-0.277293" y="8.56402" width="22.308" height="12.7118" filterUnits="userSpaceOnUse" color-interpolation-filters="sRGB">
<feFlood flood-opacity="0" result="BackgroundImageFix"/>
<feBlend mode="normal" in="SourceGraphic" in2="BackgroundImageFix" result="shape"/>
<feGaussianBlur stdDeviation="0.518285" result="effect1_foregroundBlur_153_2799"/>
</filter>
<filter id="filter1_f_153_2799" x="-0.899235" y="7.94207" width="23.5519" height="13.9557" filterUnits="userSpaceOnUse" color-interpolation-filters="sRGB">
<feFlood flood-opacity="0" result="BackgroundImageFix"/>
<feBlend mode="normal" in="SourceGraphic" in2="BackgroundImageFix" result="shape"/>
<feGaussianBlur stdDeviation="0.829256" result="effect1_foregroundBlur_153_2799"/>
</filter>
<filter id="filter2_f_153_2799" x="8.44019" y="11.6409" width="4.90332" height="6.41357" filterUnits="userSpaceOnUse" color-interpolation-filters="sRGB">
<feFlood flood-opacity="0" result="BackgroundImageFix"/>
<feBlend mode="normal" in="SourceGraphic" in2="BackgroundImageFix" result="shape"/>
<feGaussianBlur stdDeviation="0.124388" result="effect1_foregroundBlur_153_2799"/>
</filter>
<filter id="filter3_f_153_2799" x="-1.24437" y="9.39186" width="10.2265" height="10.2417" filterUnits="userSpaceOnUse" color-interpolation-filters="sRGB">
<feFlood flood-opacity="0" result="BackgroundImageFix"/>
<feBlend mode="normal" in="SourceGraphic" in2="BackgroundImageFix" result="shape"/>
<feGaussianBlur stdDeviation="0.621942" result="effect1_foregroundBlur_153_2799"/>
</filter>
<filter id="filter4_f_153_2799" x="-0.196042" y="9.95044" width="4.65332" height="6.90771" filterUnits="userSpaceOnUse" color-interpolation-filters="sRGB">
<feFlood flood-opacity="0" result="BackgroundImageFix"/>
<feBlend mode="normal" in="SourceGraphic" in2="BackgroundImageFix" result="shape"/>
<feGaussianBlur stdDeviation="0.124388" result="effect1_foregroundBlur_153_2799"/>
</filter>
<filter id="filter5_f_153_2799" x="1.28988" y="11.2938" width="6.23127" height="7.51398" filterUnits="userSpaceOnUse" color-interpolation-filters="sRGB">
<feFlood flood-opacity="0" result="BackgroundImageFix"/>
<feBlend mode="normal" in="SourceGraphic" in2="BackgroundImageFix" result="shape"/>
<feGaussianBlur stdDeviation="0.414628" result="effect1_foregroundBlur_153_2799"/>
</filter>
<filter id="filter6_f_153_2799" x="-0.172929" y="9.90568" width="8.41568" height="8.57535" filterUnits="userSpaceOnUse" color-interpolation-filters="sRGB">
<feFlood flood-opacity="0" result="BackgroundImageFix"/>
<feBlend mode="normal" in="SourceGraphic" in2="BackgroundImageFix" result="shape"/>
<feGaussianBlur stdDeviation="0.207314" result="effect1_foregroundBlur_153_2799"/>
</filter>
<radialGradient id="paint0_radial_153_2799" cx="0" cy="0" r="1" gradientUnits="userSpaceOnUse" gradientTransform="translate(10.9304) rotate(90) scale(19.9851 20.1089)">
<stop stop-color="#FFDE43"/>
<stop offset="1" stop-color="#FFBC00"/>
</radialGradient>
<radialGradient id="paint1_radial_153_2799" cx="0" cy="0" r="1" gradientUnits="userSpaceOnUse" gradientTransform="translate(10.9304 2.67435) rotate(90) scale(17.3107 17.418)">
<stop stop-color="white" stop-opacity="0.5"/>
<stop offset="0.782278"/>
</radialGradient>
<radialGradient id="paint2_radial_153_2799" cx="0" cy="0" r="1" gradientUnits="userSpaceOnUse" gradientTransform="translate(10.9304 2.67435) rotate(90) scale(17.3107 17.418)">
<stop stop-color="white" stop-opacity="0.5"/>
<stop offset="0.782278"/>
</radialGradient>
<radialGradient id="paint3_radial_153_2799" cx="0" cy="0" r="1" gradientUnits="userSpaceOnUse" gradientTransform="translate(10.9304 -2.1768) rotate(90) scale(22.1619 30.1564)">
<stop offset="0.0922635" stop-color="white"/>
<stop offset="0.670207" stop-color="white" stop-opacity="0"/>
</radialGradient>
<radialGradient id="paint4_radial_153_2799" cx="0" cy="0" r="1" gradientUnits="userSpaceOnUse" gradientTransform="translate(10.8924 15.9121) scale(1.56888 3.55936)">
<stop stop-color="#743C1C"/>
<stop offset="1" stop-color="#401C02"/>
</radialGradient>
<linearGradient id="paint5_linear_153_2799" x1="10.8929" y1="17.9176" x2="10.8929" y2="11.7544" gradientUnits="userSpaceOnUse">
<stop offset="0.265625" stop-color="#FFDE43"/>
<stop offset="1" stop-color="#F79D14"/>
</linearGradient>
<linearGradient id="paint6_linear_153_2799" x1="8.81237" y1="13.2427" x2="12.9709" y2="13.2427" gradientUnits="userSpaceOnUse">
<stop stop-color="#CCCCCC"/>
<stop offset="0.05" stop-color="#D5D5D5"/>
<stop offset="0.2" stop-color="#E9E9E9"/>
<stop offset="0.35" stop-color="#F6F6F6"/>
<stop offset="0.5" stop-color="#FAFAFA"/>
<stop offset="0.65" stop-color="#F6F6F6"/>
<stop offset="0.8" stop-color="#E9E9E9"/>
<stop offset="0.95" stop-color="#D5D5D5"/>
<stop offset="1" stop-color="#CCCCCC"/>
</linearGradient>
<linearGradient id="paint7_linear_153_2799" x1="10.8924" y1="17.7637" x2="10.8924" y2="11.9307" gradientUnits="userSpaceOnUse">
<stop stop-color="#401C02"/>
<stop offset="1" stop-color="#401C02"/>
</linearGradient>
<linearGradient id="paint8_linear_153_2799" x1="10.8924" y1="17.7637" x2="10.8924" y2="11.9307" gradientUnits="userSpaceOnUse">
<stop stop-color="#401C02"/>
<stop offset="1" stop-color="#401C02"/>
</linearGradient>
<radialGradient id="paint9_radial_153_2799" cx="0" cy="0" r="1" gradientUnits="userSpaceOnUse" gradientTransform="translate(14.8269 7.64014) scale(3.40671 0.776765)">
<stop stop-color="#743C1C"/>
<stop offset="1" stop-color="#401C02"/>
</radialGradient>
<linearGradient id="paint10_linear_153_2799" x1="14.8306" y1="8.45971" x2="14.8306" y2="6.81533" gradientUnits="userSpaceOnUse">
<stop stop-color="#FFDE43"/>
<stop offset="0.22" stop-color="#FED93F"/>
<stop offset="0.51" stop-color="#FCC934"/>
<stop offset="0.82" stop-color="#F9AF21"/>
<stop offset="1" stop-color="#F79D14"/>
</linearGradient>
<radialGradient id="paint11_radial_153_2799" cx="0" cy="0" r="1" gradientUnits="userSpaceOnUse" gradientTransform="translate(10.9304) rotate(90) scale(19.9851 20.1089)">
<stop stop-color="#FFDE43"/>
<stop offset="1" stop-color="#FFBC00"/>
</radialGradient>
<radialGradient id="paint12_radial_153_2799" cx="0" cy="0" r="1" gradientUnits="userSpaceOnUse" gradientTransform="translate(3.50574 14.0509) rotate(-56.2771) scale(3.62931 3.63798)">
<stop offset="0.0139674" stop-color="#FFDE43"/>
<stop offset="0.3975" stop-color="#FFDC41"/>
<stop offset="0.6038" stop-color="#FFD43B"/>
<stop offset="0.7679" stop-color="#FFC631"/>
<stop offset="0.9089" stop-color="#FFB323"/>
<stop offset="1" stop-color="#FFA216"/>
</radialGradient>
<radialGradient id="paint13_radial_153_2799" cx="0" cy="0" r="1" gradientUnits="userSpaceOnUse" gradientTransform="translate(3.50574 14.0509) rotate(-56.2771) scale(3.62931 3.63798)">
<stop offset="0.0139674" stop-color="#FFDE43"/>
<stop offset="0.3975" stop-color="#FFDC41"/>
<stop offset="0.6038" stop-color="#FFD43B"/>
<stop offset="0.7679" stop-color="#FFC631"/>
<stop offset="0.9089" stop-color="#FFB323"/>
<stop offset="1" stop-color="#FFA216"/>
</radialGradient>
<radialGradient id="paint14_radial_153_2799" cx="0" cy="0" r="1" gradientUnits="userSpaceOnUse" gradientTransform="translate(3.50574 14.0509) rotate(-56.2771) scale(3.62931 3.63798)">
<stop offset="0.0139674" stop-color="#FFDE43"/>
<stop offset="0.3975" stop-color="#FFDC41"/>
<stop offset="0.6038" stop-color="#FFD43B"/>
<stop offset="0.7679" stop-color="#FFC631"/>
<stop offset="0.9089" stop-color="#FFB323"/>
<stop offset="1" stop-color="#FFA216"/>
</radialGradient>
<radialGradient id="paint15_radial_153_2799" cx="0" cy="0" r="1" gradientUnits="userSpaceOnUse" gradientTransform="translate(3.50574 14.0509) rotate(-56.2771) scale(3.62931 3.63798)">
<stop offset="0.0139674" stop-color="#FFDE43"/>
<stop offset="0.3975" stop-color="#FFDC41"/>
<stop offset="0.6038" stop-color="#FFD43B"/>
<stop offset="0.7679" stop-color="#FFC631"/>
<stop offset="0.9089" stop-color="#FFB323"/>
<stop offset="1" stop-color="#FFA216"/>
</radialGradient>
<radialGradient id="paint16_radial_153_2799" cx="0" cy="0" r="1" gradientUnits="userSpaceOnUse" gradientTransform="translate(7.61505 8.11527) scale(1.8784 2.17517)">
<stop stop-color="#743C1C"/>
<stop offset="1" stop-color="#401C02"/>
</radialGradient>
<linearGradient id="paint17_linear_153_2799" x1="7.61709" y1="10.4103" x2="7.61709" y2="5.80557" gradientUnits="userSpaceOnUse">
<stop stop-color="#FFDE43"/>
<stop offset="0.22" stop-color="#FED93F"/>
<stop offset="0.51" stop-color="#FCC934"/>
<stop offset="0.82" stop-color="#F9AF21"/>
<stop offset="1" stop-color="#F79D14"/>
</linearGradient>
<linearGradient id="paint18_linear_153_2799" x1="2.71183" y1="4.37746" x2="6.25008" y2="10.5151" gradientUnits="userSpaceOnUse">
<stop offset="0.03" stop-color="white" stop-opacity="0"/>
<stop offset="0.15" stop-color="white" stop-opacity="0.12"/>
<stop offset="0.45" stop-color="white" stop-opacity="0.41"/>
<stop offset="0.71" stop-color="white" stop-opacity="0.62"/>
<stop offset="0.9" stop-color="white" stop-opacity="0.75"/>
<stop offset="1" stop-color="white" stop-opacity="0.8"/>
</linearGradient>
</defs>
</svg>
