<svg width="22" height="17" viewBox="0 0 22 17" fill="none" xmlns="http://www.w3.org/2000/svg">
<path d="M17.5789 4.08534L19.6894 6.11423C20.1093 6.5179 20.7732 6.51726 21.1924 6.11278V6.11278C21.6337 5.68686 21.6337 4.97981 21.1924 4.55389L17.8625 1.34037C17.0876 0.592523 15.8597 0.592523 15.0848 1.34037L11.755 4.55389C11.3137 4.97981 11.3137 5.68686 11.755 6.11278V6.11278C12.1741 6.51726 12.8381 6.5179 13.258 6.11423L15.3684 4.08534L15.3684 14.8947C15.3684 15.5052 15.8633 16 16.4737 16V16C17.0841 16 17.5789 15.5052 17.5789 14.8947L17.5789 4.08534Z" fill="#01796F"/>
<path d="M5.42105 11.9147L3.31059 9.88577C2.8907 9.4821 2.22676 9.48274 1.80765 9.88722V9.88722C1.36632 10.3131 1.36632 11.0202 1.80765 11.4461L5.13745 14.6596C5.91236 15.4075 7.14028 15.4075 7.91518 14.6596L11.245 11.4461C11.6863 11.0202 11.6863 10.3131 11.245 9.88722V9.88722C10.8259 9.48274 10.1619 9.4821 9.74204 9.88577L7.63158 11.9147L7.63158 1.10526C7.63158 0.494842 7.13674 0 6.52632 0V0C5.9159 0 5.42105 0.494843 5.42105 1.10526L5.42105 11.9147Z" fill="#01796F"/>
<g opacity="0.2">
<path d="M16.5789 5.08534L18.6894 7.11423C19.1093 7.5179 19.7732 7.51726 20.1924 7.11278V7.11278C20.6337 6.68686 20.6337 5.97981 20.1924 5.55389L16.8625 2.34037C16.0876 1.59252 14.8597 1.59252 14.0848 2.34037L10.755 5.55389C10.3137 5.97981 10.3137 6.68686 10.755 7.11278V7.11278C11.1741 7.51726 11.8381 7.5179 12.258 7.11423L14.3684 5.08534L14.3684 15.8947C14.3684 16.5052 14.8633 17 15.4737 17V17C16.0841 17 16.5789 16.5052 16.5789 15.8947L16.5789 5.08534Z" fill="#01796F"/>
<path d="M4.42105 12.9147L2.31059 10.8858C1.8907 10.4821 1.22676 10.4827 0.807648 10.8872V10.8872C0.366315 11.3131 0.366315 12.0202 0.807649 12.4461L4.13745 15.6596C4.91236 16.4075 6.14028 16.4075 6.91518 15.6596L10.245 12.4461C10.6863 12.0202 10.6863 11.3131 10.245 10.8872V10.8872C9.82587 10.4827 9.16193 10.4821 8.74204 10.8858L6.63158 12.9147L6.63158 2.10526C6.63158 1.49484 6.13674 1 5.52632 1V1C4.9159 1 4.42105 1.49484 4.42105 2.10526L4.42105 12.9147Z" fill="#01796F"/>
</g>
</svg>
