<svg width="21" height="20" viewBox="0 0 21 20" fill="none" xmlns="http://www.w3.org/2000/svg">
<path fill-rule="evenodd" clip-rule="evenodd" d="M10.5049 20C16.0277 20 20.5049 15.5228 20.5049 10C20.5049 4.47715 16.0277 0 10.5049 0C4.98204 0 0.504883 4.47715 0.504883 10C0.504883 15.5228 4.98204 20 10.5049 20ZM8.57294 15.4025C12.5869 15.2714 15.316 12.2855 15.316 8.13878C15.7005 7.88605 16.2163 7.36187 16.3382 6.84704C15.9537 7.09977 15.5598 7.23082 15.044 7.23082C15.5692 6.97809 15.9537 6.59431 16.085 5.93908C16.0084 5.98016 15.9345 6.02081 15.8621 6.06067C15.456 6.28424 15.0947 6.4831 14.5376 6.59431C13.1121 4.90007 9.72648 6.21053 10.383 8.79401C8.029 8.67233 6.60349 7.50227 5.44057 6.21053C4.79347 7.24954 5.30928 8.93442 6.21898 9.44924C5.69379 9.44924 5.4312 9.32756 5.17798 9.19651C5.17798 10.4883 5.96576 11.2652 7.00676 11.6583H5.96576C6.35027 12.5475 7.00676 13.2028 8.16967 13.2028C7.40065 13.9891 5.83446 14.3728 4.67155 14.2418C5.71255 15.0187 6.87546 15.5335 8.57294 15.4025Z" fill="white" fill-opacity="0.65"/>
</svg>
