<svg width="20" height="20" viewBox="0 0 20 20" fill="none" xmlns="http://www.w3.org/2000/svg">
<path fill-rule="evenodd" clip-rule="evenodd" d="M10 20C15.5228 20 20 15.5228 20 10C20 4.47715 15.5228 0 10 0C4.47715 0 0 4.47715 0 10C0 15.5228 4.47715 20 10 20ZM14.9829 6.10775C15.5449 6.25809 15.9886 6.70183 16.1389 7.26526C16.4119 8.28556 16.4119 10.4167 16.4119 10.4167C16.4119 10.4167 16.4119 12.5478 16.1389 13.5681C15.9886 14.1315 15.5463 14.5752 14.9829 14.7256C13.9626 15 9.87261 15 9.87261 15C9.87261 15 5.78264 15 4.76234 14.7256C4.20037 14.5752 3.75663 14.1315 3.60629 13.5681C3.33333 12.5478 3.33333 10.4167 3.33333 10.4167C3.33333 10.4167 3.33333 8.28556 3.60629 7.2638C3.75663 6.70037 4.19891 6.25664 4.76234 6.10629C5.78264 5.83333 9.87261 5.83333 9.87261 5.83333C9.87261 5.83333 13.9626 5.83333 14.9829 6.10775ZM11.9599 10.4021L8.57351 8.46072V12.3726L11.9599 10.4021Z" fill="white" fill-opacity="0.65"/>
</svg>
