<svg width="661" height="299" viewBox="0 0 661 299" fill="none" xmlns="http://www.w3.org/2000/svg">
<g opacity="0.1">
<g clip-path="url(#clip0_153_1702)">
<path d="M55.3049 166.263C52.568 157.163 42.9207 151.621 36.0101 145.737C33.2049 143.411 33.2049 143.616 34.4365 140.332C35.2132 138.342 35.7863 136.279 36.147 134.174C36.8113 130.237 36.506 126.198 35.2575 122.406C34.0559 118.588 31.8867 115.145 28.9609 112.414C26.0351 109.683 22.4522 107.755 18.5607 106.818C14.6692 105.881 10.6015 105.968 6.75325 107.068C2.90495 108.169 -0.593016 110.247 -3.40039 113.1L-11.8846 106.258C-13.0477 105.369 -16.5372 103.453 -16.4004 101.742C-15.7166 96.7482 -15.7166 91.6841 -16.4004 86.6898C-17.93 74.8149 -24.0448 64.0097 -33.4372 56.5845C-38.0224 52.795 -43.2316 49.8316 -48.832 47.8267C-54.2372 46.253 -55.2635 51.2477 -55.1951 55.6951C-54.0657 67.8183 -48.4249 79.0754 -39.3898 87.2372C-36.7214 89.9056 -28.7846 94.0793 -29.3319 98.1161C-30.0846 103.727 -30.7688 109.406 -30.9741 115.153C-32.2335 125.764 -29.8187 136.486 -24.132 145.532C-21.033 149.978 -16.9222 153.624 -12.1381 156.17C-7.35397 158.716 -2.03349 160.089 3.38518 160.176C8.80384 160.262 14.1656 159.061 19.0289 156.669C23.8921 154.278 28.1177 150.766 31.3575 146.421C38.6101 152.237 50.9944 158.806 52.2944 169C52.4896 171.072 52.2429 173.162 51.5706 175.132C50.8983 177.102 49.8157 178.906 48.3943 180.427C46.1364 183.027 40.7312 187.269 37.3102 184.258C38.9428 183.182 40.1982 181.623 40.9005 179.798C41.6027 177.973 41.7167 175.974 41.2266 174.081C40.7364 172.188 39.6665 170.496 38.1668 169.242C36.667 167.987 34.8125 167.233 32.8628 167.085C30.944 167.059 29.0559 167.568 27.4102 168.555C25.7645 169.542 24.4262 170.968 23.5453 172.673C22.6644 174.378 22.2758 176.294 22.423 178.208C22.5702 180.121 23.2473 181.955 24.3786 183.506C34.5049 199.858 59.7523 182.206 55.3049 166.263ZM-28.5793 91.4793C-28.5134 91.6061 -28.4789 91.7469 -28.4789 91.8898C-28.4789 92.0327 -28.5134 92.1735 -28.5793 92.3003C-35.008 87.7589 -39.9955 81.4651 -42.9478 74.1688C-44.6583 69.9267 -47.3951 58.5688 -40.1425 57.474C-34.1214 56.5845 -30.4267 65.4793 -29.1267 69.9266C-27.3086 76.9759 -27.1214 84.3468 -28.5793 91.4793V91.4793ZM27.9365 145.806C25.1194 149.418 21.487 152.312 17.3366 154.25C13.1861 156.188 8.63561 157.117 4.05753 156.958C-16.4688 155.863 -20.9162 133.421 -18.7951 117C-18.3846 113.442 -17.7004 110.158 -17.0162 106.463C-14.553 108.379 -12.2267 110.363 -10.1741 112.348C-8.12143 114.332 -5.31616 114.948 -6.47932 117.342C-8.34936 121.355 -9.06036 125.81 -8.53197 130.206C-8.07168 134.378 -6.19909 138.267 -3.22484 141.229C-0.250589 144.191 3.64669 146.047 7.82071 146.49C8.91544 146.49 19.1786 146.49 17.1944 143.753C16.3733 142.658 9.53122 143.753 7.75227 143.411C5.94526 142.519 4.35749 141.239 3.1024 139.663C1.84732 138.086 0.955908 136.252 0.491826 134.291C0.0277444 132.33 0.00243536 130.291 0.417753 128.319C0.83307 126.347 1.67878 124.492 2.89438 122.885C7.41017 126.648 11.926 130.411 16.5786 134.106L24.1049 140.4C26.226 142.179 29.647 143.479 27.9365 145.806ZM30.8101 141.563L5.63118 121.037C4.74171 120.079 13.7049 117.137 14.7312 117.069C18.5569 116.766 22.3712 117.78 25.5417 119.942C28.7681 122.394 31.0527 125.881 32.012 129.818C32.9713 133.755 32.5469 137.902 30.8101 141.563V141.563Z" fill="#01796F"/>
<path fill-rule="evenodd" clip-rule="evenodd" d="M548.005 145.531H549.442C549.442 147.789 550.057 149.979 550.331 152.373L552.657 151.689C552.657 152.852 552.999 154.084 553.136 155.315L550.742 156.068C550.742 157.779 551.221 159.489 551.426 161.2L553.752 160.447C553.752 161.747 553.752 162.979 554.231 164.21L551.905 164.963L552.726 171.805H551.221L550.399 165.305L547.115 166.4C547.115 168.726 547.663 171.052 548.005 173.242H546.431L545.61 166.4C544.789 166.4 543.968 166.947 543.215 167.084L542.805 163.389L545.131 162.637C545.131 160.926 544.721 159.215 544.447 157.505L542.121 158.189C542.121 156.958 542.121 155.794 541.642 154.563L544.036 153.81C543.694 151.484 543.421 149.158 543.147 146.968C543.646 146.901 544.153 146.901 544.652 146.968C544.652 149.158 545.199 151.415 545.542 153.81L548.826 152.784C548.826 150.458 548.21 148.131 547.936 145.942C547.936 145.531 547.936 145.531 548.005 145.531ZM545.952 157.163C545.952 158.873 546.431 160.584 546.636 162.294L549.921 161.337C549.921 159.831 549.51 158.258 549.373 156.752C549.373 156.752 549.373 156.342 549.373 156.137C549.373 155.931 547.047 156.821 545.952 157.163V157.163Z" fill="#01796F"/>
<path d="M410.273 112.347V111.595L411.026 111.184C412.915 109.94 414.467 108.248 415.542 106.258C416.347 104.424 416.767 102.445 416.773 100.442C416.908 98.5285 416.908 96.608 416.773 94.6946C416.603 93.2889 416.841 91.8639 417.457 90.5893L418.279 89.7683L417.457 89.0156L395.357 113.1C395.037 111.826 394.358 110.671 393.399 109.774C392.441 108.876 391.244 108.273 389.952 108.037C386.394 107.079 383.11 108.037 382.221 110.705C381.331 113.374 383.863 115.974 387.421 117C388.757 117.465 390.206 117.505 391.566 117.113C392.926 116.721 394.131 115.916 395.015 114.81L407.331 101.537C407.81 103.11 408.221 104.616 408.7 106.258C409.238 107.451 409.516 108.746 409.516 110.055C409.516 111.364 409.238 112.659 408.7 113.852C407.186 116.258 404.891 118.07 402.2 118.984C402.2 118.984 401.652 118.984 401.721 119.326C401.789 119.668 402.747 119.326 403.089 119.326C404.548 118.829 405.913 118.089 407.126 117.137C408.537 115.81 409.615 114.169 410.273 112.347V112.347ZM410.821 110.431C410.821 110.431 410.821 110.431 410.821 110.021C411.094 107.588 411.094 105.133 410.821 102.7C410.552 100.332 411.031 97.94 412.189 95.8577L413.284 94.6946C414.152 97.1085 414.592 99.6556 414.584 102.221C414.68 103.793 414.387 105.365 413.731 106.798C413.074 108.23 412.075 109.478 410.821 110.431V110.431Z" fill="#01796F"/>
<path d="M97.1117 48.5785C97.2764 48.9016 97.3918 49.2475 97.4539 49.6048C97.3677 50.0086 97.2297 50.3996 97.0433 50.768C96.0403 53.7164 95.8049 56.8717 96.3591 59.9364C96.9943 62.7873 98.2306 65.4699 99.9854 67.8048C101.678 70.0573 103.506 72.2051 105.459 74.2364C106.927 75.7165 107.927 77.5966 108.333 79.6416V81.3522H109.838L114.285 34.6206C115.783 35.8131 117.591 36.5503 119.496 36.7444C121.4 36.9385 123.32 36.5813 125.028 35.7153C130.091 33.7311 133.101 28.8732 131.87 25.7259C130.638 22.5785 125.028 21.0048 120.101 23.0574C118.202 23.6423 116.528 24.7955 115.304 26.3615C114.081 27.9275 113.367 29.831 113.259 31.8153L110.317 58.3627L104.57 53.9838C102.843 53.047 101.338 51.7494 100.157 50.1791C98.9766 48.6089 98.148 46.8028 97.7276 44.8838C97.4164 40.7706 98.5011 36.6727 100.806 33.2522C100.806 33.2522 101.354 32.6364 100.806 32.4995C100.259 32.3627 99.5065 33.2522 99.2328 33.6627C97.9677 35.5645 97.0418 37.6711 96.496 39.889C95.9319 42.7892 96.1443 45.7869 97.1117 48.5785V48.5785ZM98.1381 51.3838C98.1381 51.3838 98.1381 51.3838 98.1381 51.7943C100.079 54.8593 102.376 57.6841 104.98 60.2101C107.209 62.6775 108.661 65.7477 109.154 69.0364V71.4311C106.008 69.303 103.195 66.7206 100.806 63.768C99.4517 62.0682 98.5064 60.0794 98.0436 57.9556C97.5809 55.8317 97.6132 53.6299 98.1381 51.5206V51.3838Z" fill="#01796F"/>
<path d="M461.383 152.237L447.015 176.253L447.562 176.595L461.246 153.469C461.6 154.124 462.123 154.673 462.761 155.058C463.399 155.443 464.128 155.65 464.873 155.658C466.925 155.658 468.773 154.7 468.841 153.263C468.909 151.827 467.336 150.527 465.215 150.321C464.46 150.241 463.697 150.378 463.018 150.718C462.339 151.057 461.772 151.585 461.383 152.237Z" fill="#01796F"/>
<path d="M437.095 140.469L422.727 164.484H423.206L436.89 141.358C437.214 142.023 437.721 142.582 438.351 142.969C438.981 143.357 439.708 143.557 440.448 143.547C442.569 143.547 444.348 142.59 444.484 141.153C444.621 139.716 442.911 138.416 440.79 138.279C440.023 138.213 439.254 138.389 438.592 138.782C437.929 139.174 437.406 139.764 437.095 140.469Z" fill="#01796F"/>
<path d="M447.427 157.095L438.806 171.463H439.354L447.427 157.779C447.767 158.426 448.28 158.967 448.907 159.341C449.535 159.715 450.254 159.909 450.985 159.9C453.106 159.9 454.954 159.011 455.022 157.574C455.09 156.137 453.517 154.769 451.396 154.632C450.553 154.535 449.703 154.726 448.983 155.173C448.263 155.62 447.715 156.297 447.427 157.095V157.095Z" fill="#01796F"/>
<path d="M436.959 155.043L430.117 166.675L430.664 167.017L437.096 156.206C437.42 156.871 437.927 157.43 438.557 157.817C439.187 158.205 439.914 158.406 440.654 158.396C442.775 158.396 444.554 157.506 444.69 156.001C444.827 154.496 443.117 153.264 440.996 153.127C440.206 152.962 439.384 153.06 438.655 153.406C437.926 153.752 437.33 154.327 436.959 155.043Z" fill="#01796F"/>
<path d="M424.027 162.774L448.385 174.68L447.564 176.527L423.138 164.553L424.027 162.774Z" fill="#01796F"/>
<path d="M441.405 166.878L450.641 171.188L449.752 173.036L440.583 168.725L441.405 166.878Z" fill="#01796F"/>
<path d="M459.469 150.047L470.006 153.947L469.733 154.7L459.196 150.8L459.469 150.047Z" fill="#01796F"/>
<path d="M284.586 182.82L283.56 230.715H285.065L286.023 185.557C287.479 186.537 289.18 187.089 290.934 187.149C292.688 187.21 294.424 186.776 295.944 185.899C300.528 183.641 302.786 179.057 301.417 176.183C300.049 173.31 294.986 172.352 290.47 174.541C288.772 175.172 287.303 176.299 286.254 177.775C285.205 179.251 284.623 181.009 284.586 182.82Z" fill="#01796F"/>
<path d="M280.138 187.679L306.48 183.231L306.822 185.147L280.48 189.526L280.138 187.679Z" fill="#01796F"/>
<path d="M280.001 195.684L306.344 191.305L306.617 193.152L280.275 197.599L280.001 195.684Z" fill="#01796F"/>
<path d="M159.03 214.568L115.651 176.047L114.488 177.347L155.54 213.952C153.468 214.511 151.6 215.652 150.157 217.241C148.713 218.83 147.756 220.799 147.398 222.915C145.825 228.868 147.877 234.615 151.983 235.642C156.088 236.668 160.672 232.768 162.246 226.747C163.039 224.634 163.156 222.327 162.58 220.145C162.004 217.963 160.763 216.014 159.03 214.568V214.568Z" fill="#01796F"/>
<path d="M139.394 233.316L156.089 205.4L158.141 206.564L141.378 234.479L139.394 233.316Z" fill="#01796F"/>
<path d="M132.074 226.816L148.769 198.832L150.753 200.064L134.058 227.979L132.074 226.816Z" fill="#01796F"/>
<path d="M218.147 205.606L203.984 156.411L202.41 156.89L216.094 203.416C214.21 202.829 212.197 202.795 210.293 203.316C208.389 203.837 206.675 204.893 205.352 206.358C201.247 210.258 200.016 215.664 202.684 218.537C205.352 221.411 210.826 220.522 215 216.69C216.589 215.381 217.741 213.62 218.304 211.639C218.866 209.659 218.811 207.554 218.147 205.606V205.606Z" fill="#01796F"/>
<path d="M647.147 64.3159L626.279 43.1738L625.731 43.7212L645.779 64.2475C644.916 64.4319 644.123 64.8579 643.493 65.4757C642.863 66.0936 642.422 66.8778 642.221 67.737C641.4 70.2001 642.221 72.5949 643.795 73.1422C645.368 73.6896 647.421 72.1844 648.242 69.7212C648.707 68.8313 648.852 67.8086 648.652 66.8246C648.453 65.8405 647.922 64.9549 647.147 64.3159V64.3159Z" fill="#01796F"/>
<path d="M650.021 47.8951L636.679 34.2109L636.132 34.6899L648.584 47.2794C647.728 47.4785 646.943 47.9094 646.316 48.5249C645.688 49.1404 645.242 49.9167 645.027 50.7688C644.274 53.232 645.027 55.6267 646.6 56.1741C648.174 56.7215 650.227 55.1478 651.048 52.753C651.353 51.929 651.418 51.0355 651.237 50.1758C651.055 49.316 650.634 48.5253 650.021 47.8951V47.8951Z" fill="#01796F"/>
<path d="M658.848 34.9636L644 20.0479L643.521 20.5268L657.206 34.6215C656.339 34.7981 655.542 35.2215 654.911 35.8406C654.28 36.4597 653.841 37.2482 653.648 38.111C652.827 40.5057 653.648 42.9005 655.221 43.4479C656.795 43.9952 658.848 42.49 659.669 40.0952C660.087 39.2618 660.233 38.3179 660.086 37.397C659.938 36.4762 659.505 35.6249 658.848 34.9636Z" fill="#01796F"/>
<path d="M627.648 45.705L624.843 42.8998L643.795 19.7734L646.327 22.5103L627.648 45.705Z" fill="#01796F"/>
<path d="M251.33 185.626L228.957 124.047L227.383 124.594L248.935 183.368C247.03 182.938 245.042 183.056 243.201 183.71C241.36 184.364 239.742 185.527 238.535 187.063C234.772 191.168 233.951 196.573 236.757 199.242C239.562 201.91 244.967 200.61 248.73 196.505C250.232 195.18 251.287 193.424 251.753 191.477C252.218 189.53 252.071 187.486 251.33 185.626V185.626Z" fill="#01796F"/>
<path d="M277.949 144.778L263.58 105.642L262.075 106.189L275.759 142.726C273.853 142.32 271.873 142.45 270.037 143.103C268.201 143.755 266.582 144.903 265.359 146.421C261.596 150.526 260.775 155.999 263.58 158.599C266.385 161.199 271.791 160.036 275.622 155.931C277.117 154.542 278.144 152.723 278.561 150.725C278.977 148.727 278.764 146.649 277.949 144.778V144.778Z" fill="#01796F"/>
<path d="M229.573 131.163L226.631 122.953L262.757 102.563L265.426 110.295L229.573 131.163Z" fill="#01796F"/>
<path d="M519.336 160.994L509.894 130.889H509.142L518.173 159.968C517.274 159.703 516.318 159.705 515.419 159.972C514.521 160.239 513.719 160.76 513.11 161.473C511.194 163.389 510.647 165.989 511.947 167.357C513.247 168.726 515.915 168.178 517.831 166.262C518.616 165.663 519.186 164.827 519.457 163.878C519.729 162.929 519.686 161.917 519.336 160.994Z" fill="#01796F"/>
<path d="M533.159 141.837L527.07 122.679H526.317L531.996 140.605C531.09 140.357 530.132 140.374 529.235 140.653C528.337 140.931 527.539 141.461 526.933 142.179C525.017 144.095 524.47 146.695 525.77 147.995C527.07 149.295 529.738 148.816 531.654 146.968C532.379 146.354 532.909 145.54 533.176 144.628C533.444 143.716 533.438 142.745 533.159 141.837Z" fill="#01796F"/>
<path d="M510.168 134.242L508.868 130.205L526.794 121.174L527.889 124.937L510.168 134.242Z" fill="#01796F"/>
<path d="M223.14 229.417L238.261 283.264L239.561 282.922L225.125 231.264C226.72 231.748 228.419 231.773 230.028 231.337C231.637 230.902 233.091 230.023 234.225 228.801C237.714 225.517 238.74 220.933 236.551 218.538C234.361 216.143 229.709 216.759 226.083 220.043C224.688 221.114 223.658 222.588 223.131 224.265C222.605 225.943 222.608 227.741 223.14 229.417V229.417Z" fill="#01796F"/>
<path d="M197.004 259.179L206.651 293.39L208.02 292.979L198.988 260.821C200.582 261.321 202.286 261.355 203.898 260.919C205.51 260.482 206.964 259.594 208.088 258.358C211.578 255.143 212.672 250.558 210.415 248.095C208.157 245.632 203.572 246.385 200.015 249.6C198.559 250.669 197.482 252.174 196.94 253.897C196.399 255.62 196.421 257.47 197.004 259.179Z" fill="#01796F"/>
<path d="M238.47 276.763L240.454 284.015L208.159 299L206.449 292.226L238.47 276.763Z" fill="#01796F"/>
<path d="M235.049 266.362L237.033 273.547L204.807 288.599L203.028 281.825L235.049 266.362Z" fill="#01796F"/>
<path d="M625.869 88.8789L654.058 109.063L654.469 108.447L627.1 89.0158C627.961 88.6701 628.706 88.0886 629.251 87.3382C629.796 86.5878 630.117 85.6988 630.179 84.7736C630.59 82.1736 629.427 79.8473 627.648 79.6421C625.869 79.4368 624.09 81.2158 623.679 83.8158C623.467 84.7827 623.565 85.7918 623.958 86.7004C624.351 87.609 625.019 88.3711 625.869 88.8789V88.8789Z" fill="#01796F"/>
<path d="M607.735 116.316L635.925 136.843L636.404 136.227L609.035 116.727C609.887 116.397 610.625 115.827 611.159 115.086C611.694 114.345 612.002 113.466 612.046 112.553C612.456 109.953 611.293 107.627 609.514 107.353C607.735 107.08 605.956 108.995 605.614 111.595C605.47 112.503 605.594 113.434 605.97 114.272C606.347 115.111 606.961 115.821 607.735 116.316V116.316Z" fill="#01796F"/>
<path d="M629.836 105.574L646.736 117.685L647.146 117.069L631.272 105.711C632.128 105.377 632.871 104.808 633.416 104.07C633.96 103.331 634.285 102.453 634.351 101.537C634.762 98.9374 633.599 96.6111 631.82 96.3374C630.041 96.0637 628.262 97.9111 627.851 100.511C627.62 101.457 627.686 102.451 628.041 103.357C628.397 104.263 629.023 105.038 629.836 105.574V105.574Z" fill="#01796F"/>
<path d="M625.391 118.026L639.076 127.811L639.486 127.195L626.897 118.163C627.744 117.807 628.475 117.222 629.007 116.472C629.539 115.722 629.851 114.839 629.907 113.921C630.318 111.321 629.154 108.995 627.376 108.79C625.597 108.584 623.818 110.363 623.476 112.963C623.216 113.901 623.262 114.898 623.606 115.808C623.951 116.718 624.576 117.495 625.391 118.026V118.026Z" fill="#01796F"/>
<path d="M651.251 106.258L654.535 108.584L637.498 137.663L634.488 135.405L651.251 106.258Z" fill="#01796F"/>
<path d="M646.532 102.905L649.748 105.232L632.711 134.311L629.7 132.053L646.532 102.905Z" fill="#01796F"/>
<path d="M395.014 131.711C393.92 128.153 388.788 126.511 383.588 128.085C378.388 129.658 375.72 132.942 375.856 136.227L366.209 188.911H367.783L376.883 138.827C378.281 140.128 380.016 141.01 381.891 141.373C383.766 141.736 385.705 141.565 387.488 140.879C392.688 139.579 396.041 135.337 395.014 131.711ZM386.735 137.253C382.767 138.485 379.209 138.279 378.73 136.774C378.251 135.269 381.056 133.011 384.956 131.779C388.856 130.548 392.483 130.753 392.962 132.258C393.441 133.763 390.567 136.021 386.667 137.253H386.735Z" fill="#01796F"/>
<path d="M586.596 147.652L578.659 117.684H577.907L585.57 146.42C584.691 146.123 583.744 146.088 582.845 146.319C581.946 146.55 581.134 147.037 580.507 147.72C578.523 149.499 577.907 152.031 579.138 153.399C580.37 154.768 582.901 154.426 584.886 152.647C585.651 152.092 586.226 151.314 586.532 150.42C586.838 149.526 586.861 148.559 586.596 147.652V147.652Z" fill="#01796F"/>
<path d="M600.689 129.452L595.626 110.362H594.874L599.663 128.22C598.784 127.923 597.837 127.888 596.938 128.119C596.04 128.349 595.227 128.836 594.6 129.52C592.616 131.299 592 133.831 593.231 135.199C594.463 136.568 596.995 136.225 598.979 134.447C599.744 133.892 600.319 133.114 600.625 132.22C600.932 131.326 600.954 130.359 600.689 129.452V129.452Z" fill="#01796F"/>
<path d="M578.452 120.968L577.426 116.931L595.421 108.857L596.31 112.621L578.452 120.968Z" fill="#01796F"/>
<path d="M569.352 157.369C570.384 156.682 571.119 155.631 571.411 154.427C571.703 153.222 571.529 151.951 570.926 150.869C569.489 149.295 566.547 149.706 564.084 151.758C563.167 152.414 562.481 153.343 562.124 154.412C561.768 155.481 561.759 156.636 562.1 157.711L569.763 186.516H570.584L563.331 159.148C564.398 159.485 565.541 159.496 566.614 159.179C567.687 158.862 568.64 158.232 569.352 157.369V157.369ZM565.863 153.263C567.505 151.69 569.352 151.006 569.968 151.621C570.584 152.237 569.968 154.085 568.052 155.658C566.136 157.232 564.494 157.916 563.879 157.232C563.263 156.548 564.152 154.837 566.068 153.263H565.863Z" fill="#01796F"/>
<path d="M582.285 143.889C581.502 143.444 580.677 143.078 579.822 142.795C577.109 141.761 574.138 141.618 571.338 142.384C568.718 143.086 566.348 144.508 564.496 146.489C563.449 147.594 562.593 148.866 561.964 150.253C562.836 149.024 563.846 147.899 564.975 146.9C566.848 145.341 569.045 144.22 571.406 143.616C574.109 142.77 576.982 142.629 579.754 143.205C580.64 143.383 581.51 143.635 582.354 143.958L583.243 144.368L582.285 143.889Z" fill="#01796F"/>
<path d="M150.001 78.0005L182.911 106.258L183.801 105.232L152.806 78.5478C154.348 78.0948 155.728 77.2097 156.783 75.9972C157.838 74.7847 158.523 73.2955 158.759 71.7057C159.853 67.2584 158.28 63.0163 155.201 62.2636C152.122 61.511 148.769 64.5215 147.674 69.1057C147.111 70.6489 147.032 72.3273 147.448 73.9166C147.863 75.5059 148.754 76.9306 150.001 78.0005V78.0005Z" fill="#01796F"/>
<path d="M135.496 154.152L157.664 173.241L158.554 172.283L138.027 154.562C139.574 154.117 140.958 153.234 142.014 152.02C143.07 150.806 143.753 149.313 143.98 147.72C145.075 143.273 143.501 139.099 140.422 138.347C137.343 137.594 133.991 140.605 132.896 145.189C132.358 146.769 132.319 148.477 132.784 150.08C133.249 151.683 134.196 153.105 135.496 154.152V154.152Z" fill="#01796F"/>
<path d="M104.294 148.132L149.999 187.611L150.889 186.585L106.826 148.611C108.363 148.151 109.739 147.264 110.793 146.052C111.847 144.841 112.535 143.356 112.778 141.769C113.873 137.322 112.231 133.08 109.22 132.327C106.21 131.574 102.789 134.585 101.694 139.169C101.146 140.749 101.102 142.459 101.568 144.065C102.033 145.67 102.986 147.091 104.294 148.132V148.132Z" fill="#01796F"/>
<path d="M138.643 100.92L184.348 140.468L185.238 139.441L141.175 101.399C142.717 100.946 144.097 100.061 145.152 98.8487C146.206 97.6362 146.892 96.147 147.127 94.5572C148.222 90.1099 146.58 85.9362 143.57 85.1835C140.559 84.4309 137.138 87.4414 136.043 92.0257C135.511 93.5958 135.475 95.2918 135.94 96.8832C136.405 98.4746 137.349 99.8841 138.643 100.92V100.92Z" fill="#01796F"/>
<path d="M143.774 132.395L171.143 156L172.032 155.042L146.306 132.806C147.852 132.36 149.236 131.477 150.292 130.263C151.348 129.05 152.031 127.556 152.258 125.963C153.353 121.516 151.711 117.342 148.701 116.59C145.69 115.837 142.269 118.848 141.174 123.432C140.637 125.012 140.598 126.72 141.063 128.323C141.528 129.926 142.474 131.348 143.774 132.395Z" fill="#01796F"/>
<path d="M147.262 184.326L181.609 136.842L185.099 139.373L150.751 186.858L147.262 184.326Z" fill="#01796F"/>
<path d="M162.383 148.817L174.972 130.822L178.53 133.354L165.941 151.28L162.383 148.817Z" fill="#01796F"/>
<path d="M133.304 104.273L145.414 83.3359L146.919 84.157L134.809 105.094L133.304 104.273Z" fill="#01796F"/>
<path d="M150.89 83.9525L163.001 63.0156L164.506 63.8367L152.327 84.7735L150.89 83.9525Z" fill="#01796F"/>
<path d="M156.362 88.6732L168.473 67.7363L169.978 68.6258L157.868 89.5626L156.362 88.6732Z" fill="#01796F"/>
<path d="M624.499 53.0955H623.951C623.951 53.0955 623.951 53.0955 623.541 53.0955C622.36 52.3004 620.992 51.8285 619.572 51.7271C618.236 51.6417 616.899 51.8763 615.672 52.4113C614.5 52.8892 613.357 53.4376 612.251 54.0534C611.449 54.5342 610.515 54.7497 609.583 54.6692H608.83V55.285L628.877 62.606C628.188 63.133 627.658 63.8396 627.344 64.6482C627.03 65.4569 626.945 66.3364 627.099 67.1902C627.441 69.6534 629.083 71.5008 630.725 71.2955C632.367 71.0902 633.598 68.9008 633.256 66.4376C633.235 65.5275 632.935 64.6458 632.397 63.9116C631.858 63.1775 631.108 62.6262 630.246 62.3323L618.888 58.2271L621.42 56.1745C622.046 55.5508 622.795 55.0644 623.62 54.7464C624.444 54.4283 625.326 54.2855 626.209 54.3271C628.071 54.665 629.762 55.631 630.998 57.0639C630.998 57.0639 630.999 57.0639 631.341 57.0639C631.683 57.0639 631.341 56.3797 630.998 56.2429C630.328 55.4595 629.515 54.8096 628.604 54.3271C627.393 53.5084 625.96 53.0788 624.499 53.0955V53.0955ZM623.13 53.0955C621.569 53.5923 620.057 54.2336 618.614 55.0113C617.3 55.7347 615.797 56.0447 614.304 55.9008L613.277 55.4902C614.575 54.3747 616.027 53.4528 617.588 52.7534C618.488 52.4084 619.454 52.2722 620.414 52.3552C621.374 52.4381 622.303 52.7381 623.13 53.2323V53.0955Z" fill="#01796F"/>
<path d="M54.0042 89.4948L37.241 19.4316L35.5305 19.8422L51.541 86.9632C49.5216 86.2576 47.3434 86.1402 45.2599 86.6248C43.1764 87.1093 41.2734 88.1758 39.7726 89.7001C35.0515 93.7369 33.4778 99.5527 36.2147 102.768C38.2368 104.336 40.7836 105.069 43.3297 104.814C45.8759 104.559 48.2272 103.337 49.8989 101.4C51.7255 100.08 53.1 98.2276 53.8347 96.0968C54.5695 93.9661 54.6287 91.6604 54.0042 89.4948V89.4948Z" fill="#01796F"/>
<path d="M88.4213 48.1006L77.7476 3.62695L76.0371 4.03748L86.0266 45.7743C83.999 45.0461 81.8047 44.9169 79.7057 45.4022C77.6068 45.8875 75.6918 46.9668 74.1898 48.5112C69.4687 52.4796 67.9634 58.3638 70.7003 61.5796C73.4371 64.7954 79.4582 64.1796 84.3845 60.1427C86.2258 58.8044 87.6042 56.9253 88.3278 54.7669C89.0513 52.6086 89.084 50.2784 88.4213 48.1006V48.1006Z" fill="#01796F"/>
<path d="M37.2412 27.0947L35.0518 17.7211L77.2675 0L79.1149 8.82632L37.2412 27.0947Z" fill="#01796F"/>
<path d="M333.055 97.4971L321.605 99.1104L322.493 105.411L333.943 103.798L333.055 97.4971Z" fill="#01796F"/>
<path d="M306.546 138.074L300.183 92.9844H298.951L304.972 136.021C303.577 135.379 302.029 135.141 300.505 135.334C298.981 135.528 297.542 136.145 296.351 137.116C292.793 139.648 291.288 143.958 292.998 146.216C293.635 146.857 294.391 147.366 295.225 147.714C296.059 148.061 296.953 148.24 297.856 148.24C298.76 148.24 299.654 148.061 300.488 147.714C301.322 147.366 302.078 146.857 302.714 146.216C304.116 145.421 305.237 144.211 305.923 142.753C306.609 141.295 306.826 139.661 306.546 138.074V138.074Z" fill="#01796F"/>
<path d="M360.806 131.094L353.964 84.7041H352.732L358.959 129.041C357.561 128.392 356.006 128.156 354.478 128.362C352.95 128.568 351.514 129.207 350.338 130.204C346.711 132.736 345.206 137.046 346.985 139.236C348.764 141.425 353.006 141.699 356.632 139.236C358.104 138.499 359.302 137.313 360.053 135.848C360.803 134.384 361.067 132.718 360.806 131.094Z" fill="#01796F"/>
<path d="M336.994 119.941L332.547 88.6045H331.315L335.42 117.82C334.029 117.162 332.478 116.915 330.95 117.109C329.423 117.303 327.982 117.929 326.799 118.915C323.241 121.447 321.668 125.757 323.447 128.015C325.226 130.273 329.536 130.478 333.163 128.015C334.538 127.21 335.639 126.009 336.323 124.569C337.006 123.129 337.24 121.516 336.994 119.941V119.941Z" fill="#01796F"/>
<path d="M354.095 84.6846L298.874 92.4453L299.76 98.7465L354.98 90.9858L354.095 84.6846Z" fill="#01796F"/>
<path d="M5.56308 172.558C20.0683 141.016 50.5157 121.311 78.5683 106.053C95.3691 96.8138 112.898 88.9648 130.979 82.5846C148.563 76.632 168.542 71.5004 186.947 74.4425C191.492 74.9873 195.827 76.6632 199.557 79.3169C203.286 81.9705 206.29 85.517 208.295 89.632C210.895 97.6835 210.895 106.349 208.295 114.4C203.227 131.399 195.959 147.661 186.674 162.774C177.38 178.21 170.265 194.857 165.531 212.243C162.453 223.229 162.453 234.851 165.531 245.837C171.005 260.616 186.947 259.111 198.784 255.416C217.782 248.407 235.596 238.532 251.605 226.132C265.289 216.211 278.974 205.606 292.247 194.248C317.495 172.558 342.605 149.843 372.847 136.843C391.075 128.588 411.171 125.329 431.074 127.4C440.067 128.305 448.626 131.719 455.774 137.253C461.888 142.43 467.584 148.081 472.81 154.153C482.681 165.787 496.307 173.604 511.332 176.253C527.24 178.154 543.368 175.793 558.063 169.411C609.789 148.885 647.695 94.1478 655.426 35.5794C655.426 35.1689 654.879 35.1689 654.81 35.5794C649.804 72.6089 633.318 107.138 607.668 134.311C584.2 159.079 551.153 177.827 517.968 176.321C509.589 175.806 501.397 173.63 493.867 169.918C486.337 166.206 479.622 161.033 474.11 154.7C469.047 149.295 464.258 143.479 458.716 138.553C453.026 133.387 446.096 129.78 438.6 128.085C402.679 119.532 365.389 136.706 335.968 158.121C316.674 171.806 299.226 188.569 280.753 203.621C264.936 216.692 248.248 228.67 230.805 239.474C222.101 244.828 212.943 249.407 203.437 253.158C196.295 256.288 188.497 257.627 180.721 257.058C158.484 254.185 163.547 220.795 168.2 205.058C174.358 187.302 182.361 170.24 192.079 154.153C200.603 140.211 206.753 124.951 210.279 108.995C211.643 102.128 211.051 95.0155 208.568 88.4689C207.018 85.2997 204.824 82.4887 202.126 80.215C199.428 77.9413 196.286 76.255 192.9 75.2636C185.226 72.9905 177.16 72.361 169.226 73.4162C159.734 74.3473 150.345 76.1335 141.174 78.7531C112.718 87.1995 85.604 99.6392 60.642 115.7C38.6104 129.385 16.5104 147.106 4.94727 172.216C4.94727 172.627 4.94728 172.969 5.49465 172.558H5.56308Z" fill="#01796F"/>
<path d="M-17.1517 150.253C-1.3464 119.19 30.3325 100.648 59.4115 86.5529C76.8141 77.916 94.9197 70.7745 113.533 65.2055C131.733 59.8687 152.259 55.5582 170.869 59.2529C175.479 59.8826 179.852 61.6769 183.575 64.4663C187.298 67.2557 190.249 70.9482 192.148 75.195C194.577 83.3072 194.362 91.982 191.533 99.9634C185.814 116.913 177.852 133.021 167.859 147.858C157.93 162.937 150.168 179.336 144.801 196.574C141.462 207.227 141.154 218.598 143.912 229.416C148.975 244.4 165.327 243.511 177.506 240.295C197.038 234.009 215.496 224.78 232.243 212.927C246.817 203.484 260.912 193.29 274.664 182.548C301.143 162.021 327.485 140.195 358.685 128.29C377.612 120.757 398.174 118.281 418.348 121.106C427.491 122.333 436.113 126.076 443.254 131.916C449.197 137.394 454.689 143.343 459.675 149.706C469.41 161.648 482.968 169.865 498.059 172.969C514.191 175.513 530.71 173.767 545.954 167.906C599.322 149.295 639.759 95.7898 649.475 37.9056C649.475 37.495 648.927 37.495 648.859 37.9056C642.52 74.9244 624.545 108.958 597.543 135.063C572.911 158.942 538.701 176.39 504.49 173.584C487.329 171.944 471.513 163.581 460.496 150.321C455.501 144.642 450.848 138.69 445.375 133.558C439.7 128.161 432.759 124.279 425.19 122.269C388.859 112.348 349.927 128.153 319.411 148.337C299.364 161.542 281.027 177.416 261.733 191.784C245.218 204.353 227.867 215.782 209.801 225.995C200.824 231.045 191.413 235.281 181.68 238.653C174.262 241.536 166.26 242.592 158.348 241.732C135.838 237.969 142.064 204.784 147.264 189.184C154.156 171.714 162.871 155.018 173.264 139.374C182.398 125.724 189.131 110.613 193.175 94.695C194.841 87.8946 194.46 80.7533 192.08 74.1687C190.574 70.9526 188.424 68.0792 185.765 65.7257C183.106 63.3722 179.992 61.5885 176.617 60.4845C168.901 57.9642 160.75 57.056 152.669 57.8161C142.96 58.3187 133.317 59.7159 123.864 61.9898C94.6547 69.3112 66.6228 80.7128 40.5957 95.8582C17.743 108.653 -5.38324 125.553 -17.9043 150.595C-17.9043 151.006 -17.9043 151.348 -17.4254 151.006L-17.1517 150.253Z" fill="#01796F"/>
<path d="M-39.5936 126.784C-22.4883 96.4048 10.3538 78.889 40.5275 66.0258C58.5789 58.0599 77.2517 51.5839 96.359 46.6627C115.356 40.9207 135.421 39.633 154.996 42.8995C159.654 43.7217 164.029 45.7085 167.714 48.6752C171.398 51.6419 174.272 55.4922 176.07 59.8679C178.335 68.0566 177.83 76.7646 174.633 84.6363C168.236 101.248 159.629 116.92 149.043 131.231C138.451 145.928 129.996 162.054 123.933 179.126C120.105 189.887 119.417 201.515 121.948 212.652C126.67 227.842 143.296 227.568 156.159 224.831C176.228 219.346 195.351 210.857 212.88 199.652C228.07 190.826 242.78 181.178 257.08 170.984C284.448 151.278 312.227 130.615 344.454 119.942C364.041 113.105 385.055 111.409 405.485 115.015C414.645 116.654 423.197 120.718 430.254 126.784C436.087 132.528 441.506 138.679 446.47 145.189C456.051 157.578 469.564 166.338 484.785 170.026C501.106 173.116 517.945 171.986 533.706 166.742C588.443 150.252 631.617 98.3205 643.18 40.71C643.18 40.2995 642.633 40.2311 642.564 40.71C634.851 77.493 615.431 110.788 587.212 135.61C561.28 158.531 525.633 174.678 491.422 170.573C474.039 168.315 458.227 159.353 447.359 145.599C442.912 139.647 438.054 133.626 432.649 128.152C426.929 122.475 419.868 118.333 412.122 116.11C375.449 104.752 335.627 119.052 303.538 138.073C283.012 150.526 263.512 165.442 243.327 179.126C226.214 191.04 208.316 201.783 189.754 211.284C180.375 215.918 170.596 219.696 160.538 222.573C152.861 225.171 144.68 225.921 136.659 224.763C113.875 220.11 121.264 187.131 127.08 171.805C134.649 154.582 144.054 138.226 155.133 123.021C164.848 109.733 172.208 94.8745 176.891 79.0942C178.739 72.3522 178.573 65.2163 176.412 58.5679C174.905 55.3405 172.767 52.4482 170.122 50.0624C167.478 47.6766 164.382 45.8458 161.017 44.6784C153.25 41.8363 144.986 40.6026 136.727 41.0521C126.827 41.2271 116.961 42.2572 107.238 44.1311C77.3136 50.3286 48.3927 60.6444 21.3011 74.7837C-2.37257 86.689 -26.5936 102.699 -40.2778 126.921C-40.2778 127.263 -40.2778 127.673 -39.7989 127.331L-39.5936 126.784Z" fill="#01796F"/>
<path d="M-61.6933 102.837C-43.2881 73.1424 -9.28282 57.0634 21.8488 45.2266C40.5519 37.9234 59.8192 32.1569 79.4593 27.9845C98.6172 24.0845 120.512 21.1424 139.328 26.4792C144.006 27.4533 148.372 29.5682 152.037 32.6359C155.701 35.7036 158.551 39.629 160.333 44.0634C162.366 52.3174 161.571 61.0149 158.075 68.7634C151.08 85.1545 141.871 100.51 130.707 114.4C119.373 128.623 110.155 144.409 103.338 161.269C99.0791 171.862 98.0321 183.474 100.328 194.658C104.57 210.053 121.607 210.463 134.538 208.342C155.088 203.643 174.826 195.919 193.107 185.421C208.843 177.142 224.101 168.042 239.086 158.395C267.891 139.853 296.559 120.148 329.744 110.5C349.997 104.405 371.463 103.535 392.144 107.969C401.488 109.886 410.155 114.255 417.254 120.627C423.024 126.594 428.352 132.974 433.196 139.716C442.651 152.488 456.12 161.716 471.443 165.921C487.936 169.702 505.117 169.255 521.391 164.621C578.044 150.184 623.407 99.895 637.228 42.7634C637.228 42.3529 636.68 42.2845 636.612 42.7634C627.498 79.3538 606.635 111.946 577.222 135.542C549.854 157.437 513.317 172.216 478.422 166.811C460.865 164 445.049 154.574 434.222 140.469C429.365 134.448 424.917 128.153 419.58 122.542C413.904 116.642 406.851 112.246 399.054 109.748C362.038 97.0213 320.986 109.748 287.665 127.537C265.975 139.169 245.928 153.537 224.991 166.4C207.103 177.52 188.471 187.396 169.228 195.958C159.594 200.351 149.587 203.877 139.328 206.495C131.388 208.776 123.03 209.197 114.901 207.727C91.7751 202.184 100.328 169.548 106.759 154.427C115.037 137.407 125.155 121.346 136.933 106.532C147.264 93.6813 155.254 79.1137 160.538 63.495C162.563 56.8027 162.563 49.661 160.538 42.9687C159.146 39.5686 157.084 36.4835 154.475 33.8974C151.865 31.3113 148.761 29.2771 145.349 27.9161C137.514 24.8098 129.144 23.2753 120.717 23.4003C110.62 23.1384 100.52 23.8026 90.5435 25.3845C59.9116 30.3863 30.1177 39.5962 2.00664 52.7529C-22.5565 63.7687 -47.5986 78.8213 -62.2407 102.495C-62.2407 102.906 -62.2407 103.316 -61.7618 102.906L-61.6933 102.837Z" fill="#01796F"/>
<path d="M-83.4526 77.9317C-63.8158 48.8527 -28.7158 34.1422 3.57891 23.1949C22.8841 16.7244 42.6751 11.8053 62.7631 8.48433C82.9383 4.24869 103.798 4.50564 123.863 9.23696C128.51 10.4326 132.802 12.7291 136.374 15.9326C139.947 19.1361 142.696 23.1524 144.389 27.6422C146.359 35.9025 145.467 44.5869 141.858 52.2738C134.141 68.4536 124.191 83.4702 112.3 96.8843C100.394 110.632 90.5736 126.055 83.1526 142.658C78.4848 153.08 77.0316 164.658 78.9789 175.911C82.8789 191.442 100.189 192.537 113.189 190.758C134.256 186.949 154.64 180.031 173.674 170.232C189.958 162.637 205.832 154.084 221.568 145.053C251.537 127.537 281.437 108.995 315.579 100.853C336.466 95.6185 358.323 95.6185 379.21 100.853C388.647 103.158 397.322 107.873 404.389 114.537C409.921 120.531 415.019 126.91 419.647 133.626C428.978 146.857 442.427 156.625 457.895 161.405C474.557 165.794 492.047 165.982 508.8 161.953C566.958 149.705 614.853 101.195 630.795 44.6106C630.795 44.2001 630.247 44.0633 630.11 44.6106C619.537 80.9564 597.206 112.768 566.616 135.063C538.221 155.932 500.384 169.274 464.942 162.432C447.167 158.896 431.395 148.748 420.81 134.037C416.089 127.879 411.71 121.379 406.51 115.563C400.894 109.388 393.845 104.688 385.984 101.879C348.626 87.7159 306.41 98.8685 271.858 115.563C249.689 126.784 228.753 140.469 206.995 152.169C188.199 162.687 168.724 171.945 148.7 179.879C138.691 183.919 128.341 187.056 117.774 189.253C109.579 191.135 101.063 191.135 92.8683 189.253C69.5368 182.89 79.1841 150.526 86.0262 135.679C95.0606 119.017 105.89 103.392 118.321 89.0843C129.223 76.6577 137.819 62.3847 143.705 46.937C146.098 40.3476 146.408 33.1823 144.595 26.4106C143.257 22.9273 141.236 19.7467 138.651 17.0559C136.066 14.3651 132.969 12.2185 129.542 10.7422C121.651 7.31469 113.169 5.45557 104.568 5.26854C94.3008 4.65157 83.999 4.92628 73.7789 6.08959C42.6107 9.98684 12.1141 18.0886 -16.879 30.1738C-42.2632 40.2317 -68.2632 54.3264 -84 77.4527C-84 77.7949 -84 78.2738 -83.4526 77.9317V77.9317Z" fill="#01796F"/>
</g>
</g>
<defs>
<clipPath id="clip0_153_1702">
<rect width="744.284" height="299" fill="white" transform="translate(-84)"/>
</clipPath>
</defs>
</svg>
