<svg width="358" height="204" viewBox="0 0 358 204" fill="none" xmlns="http://www.w3.org/2000/svg">
<g opacity="0.1">
<path d="M517.204 166.477C510.269 139.949 489.305 120.429 469.591 104.699C457.798 95.1987 445.247 86.6796 432.065 79.2268C419.21 72.175 404.379 65.4317 389.66 65.1841C386.051 64.9817 382.448 65.6877 379.183 67.2376C375.917 68.7875 373.092 71.1318 370.966 74.0558C367.835 79.9592 366.641 86.6983 367.554 93.3181C369.152 107.236 372.565 120.884 377.704 133.917C382.805 147.202 386.044 161.128 387.331 175.301C388.211 184.269 386.61 193.307 382.702 201.427C376.409 212.166 364.219 208.799 355.522 204.295C341.713 196.227 329.22 186.093 318.478 174.244C309.203 164.643 300.022 154.51 291.264 143.849C274.617 123.503 258.218 102.377 236.49 88.1009C223.452 79.1698 208.273 73.867 192.509 72.7361C185.39 72.2009 178.264 73.6768 171.943 76.9956C166.474 80.1793 161.266 83.7891 156.365 87.7914C147.086 95.479 135.412 99.6814 123.363 99.6714C110.729 98.9585 98.5117 94.9002 87.9624 87.9122C50.5631 64.8228 28.6255 17.0322 30.6816 -29.5812C30.7382 -29.9005 31.1638 -29.8251 31.1605 -29.4964C29.9522 -0.00905948 38.0169 29.1153 54.2205 53.7812C69.0594 76.2766 92.1773 95.4092 118.192 98.8103C124.779 99.5641 131.45 98.9998 137.817 97.1505C144.185 95.3011 150.12 92.2035 155.278 88.038C159.961 84.5319 164.487 80.6689 169.475 77.6012C174.612 74.3672 180.498 72.5173 186.562 72.2313C215.675 70.5288 242.309 89.022 262.239 109.73C275.359 123.031 286.619 138.471 298.912 152.722C309.412 165.066 320.739 176.68 332.816 187.486C338.848 192.849 345.339 197.672 352.215 201.898C357.338 205.316 363.218 207.432 369.344 208.061C387.033 208.89 387.695 182.225 386.245 169.346C383.903 154.688 380.029 140.317 374.688 126.467C369.98 114.451 367.299 101.736 366.755 88.8411C366.64 83.3125 368.081 77.8628 370.913 73.1135C372.556 70.8626 374.649 68.9787 377.061 67.5822C379.472 66.1856 382.148 65.307 384.918 65.0025C391.199 64.292 397.559 64.9138 403.583 66.8273C410.837 68.8592 417.893 71.5418 424.664 74.8425C445.63 85.3316 465.003 98.7413 482.203 114.671C497.451 128.348 512.197 145.175 517.73 166.296C517.674 166.615 517.627 166.881 517.257 166.487L517.204 166.477Z" fill="#01796F"/>
<path d="M537.942 152.259C529.93 125.924 507.848 107.14 487.176 92.1724C474.832 83.058 461.735 75.0097 448.027 68.1145C434.608 61.4567 419.239 55.2766 404.257 55.586C400.585 55.4407 396.937 56.2336 393.658 57.89C390.378 59.5464 387.574 62.0115 385.512 65.0525C382.505 71.0267 381.478 77.8027 382.578 84.3996C384.691 98.3691 388.664 111.993 394.391 124.908C400.035 138.003 403.812 151.826 405.611 165.971C406.74 174.716 405.413 183.602 401.779 191.635C395.777 202.59 383.182 199.646 374.153 195.467C359.83 187.888 346.747 178.167 335.355 166.642C325.322 157.291 315.766 147.421 306.55 137.172C288.786 117.561 271.306 96.9574 248.683 83.4003C235.001 74.9345 219.351 70.1761 203.273 69.5935C195.993 69.2888 188.773 71.0115 182.415 74.5696C177.038 78.011 171.947 81.8811 167.193 86.1421C157.977 94.0882 146.301 98.6105 134.137 98.9455C121.24 98.7019 108.635 95.0682 97.5874 88.4096C58.6471 66.5838 34.571 19.4022 34.9898 -26.9525C35.0463 -27.2717 35.472 -27.1963 35.4687 -26.8676C35.298 2.79489 44.5888 31.7393 61.9913 55.7611C77.8573 77.725 102.059 96.0069 129.051 98.5384C142.623 99.6271 156.075 95.3022 166.47 86.5079C171.137 82.7795 175.575 78.7912 180.539 75.5545C185.695 72.1388 191.628 70.0758 197.791 69.5555C227.413 66.8453 255.512 84.5005 276.464 104.402C290.235 117.433 302.309 132.304 315.334 146.137C326.446 158.186 338.365 169.465 351.008 179.897C357.294 185.061 364.029 189.652 371.134 193.615C376.505 196.879 382.583 198.803 388.854 199.224C406.879 199.398 406.609 172.733 404.714 159.885C401.761 145.348 397.283 131.164 391.356 117.566C386.134 105.692 382.979 93.0128 382.027 80.0761C381.668 74.5579 382.948 69.0566 385.707 64.2638C387.321 61.9702 389.388 60.0316 391.781 58.5677C394.173 57.1038 396.84 56.1455 399.617 55.752C405.965 54.8549 412.429 55.2715 418.609 56.976C426.091 58.7046 433.397 61.1196 440.435 64.1903C462.143 73.9082 482.372 86.6371 500.527 102.001C516.536 115.1 532.193 131.429 538.481 152.629C538.424 152.948 538.377 153.215 538.052 152.882L537.942 152.259Z" fill="#01796F"/>
<path d="M558.629 137.1C549.511 111.117 526.383 92.971 504.689 78.8104C491.748 70.1284 478.119 62.5196 463.937 56.06C449.955 48.9773 434.528 45.2116 418.854 45.0551C415.118 45.0527 411.442 45.9951 408.168 47.7947C404.894 49.5943 402.128 52.1926 400.128 55.348C397.238 61.4041 396.431 68.2459 397.833 74.8082C400.519 88.6078 405.054 101.982 411.314 114.57C417.527 127.459 421.881 141.165 424.244 155.277C425.739 164.173 424.672 173.311 421.168 181.623C415.404 192.786 402.512 190.282 392.885 186.382C378.034 179.351 364.331 170.115 352.243 158.986C341.646 150.029 331.535 140.5 321.818 130.601C303.249 111.506 284.492 91.6094 260.9 78.8688C246.609 70.8534 230.5 66.6392 214.115 66.6294C206.766 66.6424 199.555 68.6244 193.232 72.3693C187.904 76.0331 182.842 80.0697 178.085 84.4489C168.927 92.764 157.211 97.7144 144.865 98.4857C131.747 98.6405 118.807 95.4414 107.272 89.1918C66.9756 68.827 40.5543 22.4922 39.4986 -23.9041C39.5551 -24.2234 39.9902 -24.2012 39.9774 -23.8193C40.9083 5.84915 51.4242 34.4179 69.9505 57.6096C86.9596 79.0077 112.458 96.4765 139.629 97.997C153.458 98.6358 166.99 93.8446 177.337 84.6457C181.616 80.629 186.223 76.6158 191.181 73.1036C196.411 69.4767 202.472 67.2282 208.803 66.5664C238.889 62.786 267.887 79.3931 290.222 98.6065C304.47 111.119 317.58 125.405 331.392 138.828C343.059 150.451 355.499 161.272 368.625 171.218C375.281 176.114 382.365 180.399 389.791 184.022C395.403 187.1 401.662 188.811 408.06 189.015C426.42 188.536 425.217 161.87 422.805 149.15C419.292 134.713 414.231 120.697 407.71 107.346C401.985 95.6736 398.308 83.1044 396.84 70.187C396.331 64.6891 397.444 59.1625 400.041 54.2899C401.657 51.9874 403.718 50.0328 406.104 48.5417C408.489 47.0505 411.149 46.0533 413.927 45.609C420.359 44.4688 426.955 44.6478 433.316 46.1352C440.991 47.6352 448.522 49.7956 455.826 52.5924C478.244 61.5348 499.314 73.5417 518.435 88.2701C535.206 100.79 551.837 116.578 559.142 137.3C559.095 137.566 559.038 137.886 558.713 137.553L558.629 137.1Z" fill="#01796F"/>
<path d="M579.114 121.521C568.892 95.8916 544.661 78.7023 522.081 65.2079C508.542 56.9515 494.353 49.8126 479.653 43.8619C465.292 38.1895 448.67 32.8851 433.302 34.4433C429.529 34.5562 425.842 35.5995 422.57 37.4804C419.297 39.3612 416.54 42.0214 414.543 45.2245C411.825 51.3635 411.245 58.237 412.896 64.7446C416.078 78.4555 421.124 91.6657 427.893 104.007C434.748 116.629 439.742 130.175 442.721 144.226C444.573 153.051 443.788 162.226 440.462 170.608C435.042 181.996 421.736 179.968 411.971 176.537C396.637 170.051 382.351 161.325 369.581 150.642C358.483 142.036 347.871 132.857 337.547 123.29C317.7 104.901 298.119 85.627 273.641 73.5525C258.73 66.0223 242.156 62.3877 225.462 62.987C217.93 63.1908 210.589 65.3944 204.19 69.3715C198.88 73.2177 193.857 77.4454 189.162 82.0209C180.049 90.6507 168.303 95.9717 155.807 97.1313C142.459 97.7993 129.16 95.0846 117.142 89.2391C75.0727 70.2067 46.7224 24.8473 43.8448 -21.4876C43.9013 -21.8069 44.3364 -21.7847 44.3237 -21.4027C46.3706 8.30899 58.1051 36.5296 77.7284 58.9328C95.9962 79.7307 122.375 96.2578 150.257 96.8615C164.299 97.0945 177.897 91.9431 188.26 82.4649C192.867 78.4516 197.193 74.1689 202.117 70.5409C207.344 66.7346 213.435 64.287 219.842 63.4184C250.383 58.6209 280.556 74.1738 304.018 92.5991C319.284 104.633 332.895 118.569 347.405 131.457C359.784 142.57 372.913 152.817 386.7 162.127C393.587 166.87 400.883 170.991 408.501 174.44C414.361 177.308 420.803 178.787 427.328 178.763C446.076 177.639 443.921 151.08 441.003 138.434C436.91 124.058 431.254 110.173 424.135 97.0296C417.871 85.6125 413.664 73.1826 411.707 60.308C411.054 54.8245 412.038 49.2705 414.535 44.3449C416.085 41.8924 418.114 39.7773 420.5 38.1256C422.886 36.4739 425.58 35.3195 428.421 34.7312C434.942 33.3948 441.662 33.3546 448.199 34.6127C456.088 35.8002 463.851 37.7082 471.391 40.3128C494.525 48.4228 516.426 59.69 536.475 73.7947C554.06 85.7456 571.462 100.902 579.587 121.33C579.531 121.649 579.474 121.969 579.158 121.583L579.114 121.521Z" fill="#01796F"/>
<path d="M599.468 105.15C588.202 79.8303 562.932 63.5543 539.325 50.5914C525.203 42.8998 510.489 36.3476 495.324 30.9974C480.218 24.9239 463.96 22.2499 447.704 23.1651C443.925 23.4547 440.271 24.6495 437.052 26.6486C433.832 28.6478 431.14 31.3925 429.205 34.6509C426.535 40.8035 426.033 47.6802 427.78 54.1554C431.553 67.8015 437.222 80.8506 444.621 92.9209C451.986 105.253 457.499 118.6 460.983 132.534C463.177 141.283 462.712 150.487 459.647 158.97C454.475 170.511 440.862 168.978 430.997 165.803C415.138 159.939 400.239 151.751 386.786 141.507C375.169 133.357 364.002 124.519 353.008 115.327C332.115 97.5767 311.416 79.0374 285.986 68.0016C270.463 61.0534 253.465 58.0422 236.5 59.2352C228.844 59.7277 221.447 62.1994 215.033 66.4084C209.906 70.308 205.062 74.5666 200.537 79.1521C191.459 88.1559 179.653 93.8996 166.966 95.4863C153.403 96.6035 139.775 94.3402 127.302 88.8989C83.76 71.3618 53.1958 27.0372 48.5933 -19.1643C48.6498 -19.4835 49.0944 -19.5146 49.1253 -19.07C52.3411 10.6526 65.325 38.469 86.0432 60.0219C105.251 80.163 132.838 95.7518 161.344 95.3136C175.654 95.0127 189.318 89.2937 199.576 79.3111C204.096 75.1726 208.397 70.7209 213.242 66.9144C218.461 62.8856 224.591 60.2021 231.091 59.1002C262.095 53.2323 293.39 67.7216 317.961 85.4653C333.655 97.2459 348.052 110.772 363.361 122.869C376.53 133.639 390.399 143.521 404.879 152.451C412.106 156.971 419.723 160.837 427.639 164.001C433.753 166.594 440.375 167.767 447.008 167.432C466.029 165.698 462.985 139.2 459.709 126.711C454.979 112.508 448.71 98.8652 441.013 86.0254C434.247 74.8593 429.528 62.575 427.079 49.7505C426.126 44.2964 426.872 38.6812 429.215 33.6648C430.735 31.1401 432.745 28.945 435.126 27.2085C437.507 25.472 440.211 24.2293 443.08 23.5534C449.689 21.9749 456.541 21.6976 463.256 22.7371C471.326 23.6718 479.3 25.3047 487.087 27.6174C510.79 34.9423 533.391 45.4444 554.273 58.8374C572.629 70.1565 590.907 84.6998 599.959 104.853C599.912 105.119 599.846 105.492 599.468 105.15Z" fill="#01796F"/>
</g>
</svg>
